/* XPM */
static char *result[] = {
/* columns rows colors chars-per-pixel */
"60 60 182 2 ",
"   c #2E3210",
".  c #303513",
"X  c #383D16",
"o  c #14302A",
"O  c #1D3C35",
"+  c #253829",
"@  c #363E3A",
"#  c #5B1026",
"$  c #6B0D28",
"%  c #0E491C",
"&  c #39401A",
"*  c #394A2A",
"=  c #35462A",
"-  c #2C4433",
";  c #27413B",
":  c #2E4839",
">  c #274537",
",  c #324C39",
"<  c #3A563E",
"1  c #3B5136",
"2  c #0F7B20",
"3  c #424616",
"4  c #4A4C12",
"5  c #424B1E",
"6  c #4E541A",
"7  c #4F581F",
"8  c #505214",
"9  c #575915",
"0  c #5C5E17",
"q  c #5C5F1A",
"w  c #52581D",
"e  c #5D631C",
"r  c #686C0B",
"t  c #656A0A",
"y  c #726D0F",
"u  c #6D750E",
"i  c #71770C",
"p  c #737A0A",
"a  c #626514",
"s  c #666912",
"d  c #6B6E15",
"f  c #62651A",
"g  c #65691A",
"h  c #6A6D1A",
"j  c #686119",
"k  c #706D1C",
"l  c #7A6C17",
"z  c #6D7214",
"x  c #6E721A",
"c  c #6C791A",
"v  c #727414",
"b  c #747B14",
"n  c #72751C",
"m  c #79751D",
"M  c #75791E",
"N  c #797D1F",
"B  c #495423",
"V  c #475426",
"C  c #405635",
"Z  c #496032",
"A  c #5C6D34",
"S  c #676622",
"D  c #6F6F29",
"F  c #736E23",
"G  c #7D6D22",
"H  c #6E7221",
"J  c #6E7921",
"K  c #737522",
"L  c #797723",
"P  c #767A21",
"I  c #797C23",
"U  c #73742B",
"Y  c #70782B",
"T  c #767633",
"R  c #7C7D34",
"E  c #10595C",
"W  c #174846",
"Q  c #274C42",
"!  c #2F5541",
"~  c #2C564C",
"^  c #2D5A4F",
"/  c #395B47",
"(  c #2E5D52",
")  c #275E56",
"_  c #385E51",
"`  c #37614C",
"'  c #38654E",
"]  c #3D6A4F",
"[  c #2E6355",
"{  c #396156",
"}  c #3C6D55",
"|  c #366E5E",
" . c #36655A",
".. c #39705F",
"X. c #266347",
"o. c #346F61",
"O. c #377061",
"+. c #3A7362",
"@. c #3C7967",
"#. c #3E7D69",
"$. c #357863",
"%. c #0C6C75",
"&. c #425B53",
"*. c #4A5554",
"=. c #416C4C",
"-. c #496657",
";. c #447253",
":. c #417358",
">. c #7E7E40",
",. c #407C6E",
"<. c #4A6D66",
"1. c #6E7E76",
"2. c #820227",
"3. c #95002B",
"4. c #847D2B",
"5. c #EA0043",
"6. c #F60047",
"7. c #798119",
"8. c #788009",
"9. c #7E8127",
"0. c #7F8229",
"q. c #7A8134",
"w. c #3D8171",
"e. c #44826A",
"r. c #428875",
"t. c #448D7C",
"y. c #46907C",
"u. c #818729",
"i. c #999024",
"p. c #948E44",
"a. c #8C8D53",
"s. c #908A4F",
"d. c #A18346",
"f. c #0F8B97",
"g. c #12ADBC",
"h. c #459280",
"j. c #4B9984",
"k. c #4A9D8A",
"l. c #489885",
"z. c #738B81",
"x. c #7A8C83",
"c. c #4CA18D",
"v. c #52A38A",
"b. c #53A88F",
"n. c #4FA792",
"m. c #4FA893",
"M. c #51AC96",
"N. c #58AF94",
"B. c #52AF99",
"V. c #55B49E",
"C. c #5AB79C",
"Z. c #56B7A1",
"A. c #57B8A2",
"S. c #58BBA4",
"D. c #60C6AB",
"F. c #13B6C5",
"G. c #809A8F",
"H. c #90A59B",
"J. c #AFAB9F",
"K. c #ADB29C",
"L. c #AB9EBA",
"P. c #A89DA3",
"I. c #99AAA8",
"U. c #9AB0A5",
"Y. c #9EA4B0",
"T. c #9EB2B3",
"R. c #AAA1A4",
"E. c #B7ACAA",
"W. c #A1B9AE",
"Q. c #B9B2AA",
"!. c #B4A7B2",
"~. c #BAACBD",
"^. c #A6BFB3",
"/. c #C0B49A",
"(. c #A9C2B6",
"). c #AAC3B7",
"_. c #9DA7C0",
"`. c #B7D2C5",
"'. c #C2DFD1",
"]. c #C6E3D5",
"[. c #DDFEEE",
"{. c #D4F4E5",
/* pixels */
"n n n n n n n n n n n n n n n M M x n n K n n n n n n n n n n n n n n n n n n n n n n n n n n M n n x n n n n n n n n n ",
"n n n n n n n n n n n n n n n k n n n n n n n n n n n n n n n n n n n n n n n n n n n n n n v x n n n n n n n n n n n n ",
"n n n n n n n n n n n x M P I P n n M 0.I P n M n n n n n n n n n n n n n n n n n n n n n n n n n n n n n n n n n n n n ",
"n n n n n n n n x n n n n P 9.u.n M P I I M d n n n n n n n n n n n n n n n n n n n M n k n n M n n n n n n n n n n n n ",
"n n n n n n n n n n M n x n P P n P P d x M K n n n n n n n n n n n n n n n n n n n n n n n M n n M M n x n n n n n n n ",
"n n n n n n n n n n n n n n x d M M M d d n L n n n n n n n n n n n n n n n n n n n n n I I P n n K P M n n n n n n n n ",
"n n n n n n n n n n n n n n x z k h d n K n n n n n n n n n n n n n n n n n n n n n n n I I I P n M I M n n n n n n n n ",
"n n n n n n n n n n n n n n n M M n k K n K n n n n n n n n n n n n n n n n n n x M M d d n K P n P P M n n n n n n n n ",
"n n n n n n n n n n n n n n n n n n n n n n n n n n n n n n n n n n n n n n n n n n n n d x K I n d r x n n n n n n n n ",
"n n n n n n n n n n n n n n n n n n n n n n n n n n n n n n n n n n n n n n n n k n M M n n d d M k x n n n n n n n n n ",
"n n n n n n n n n n n n n n n n n n n n n n n n n n n n n n n n n n n n n n n n n n n n K n k d M n n M n k n n n n n n ",
"n n n n n n n n n n n n n n n n n n n n n n n n n n n n n n n n n n n n n n n n M n x n n M M n n n n n n n n n n n n n ",
"n n n n n n n n n n n n n n n n n n n n n n n n n n n n n n n n n n n n n n n n n n n M n n n n n n n x n n M n n n n n ",
"n n n n n n n n n n n n n n n n n n n n n n n n n n n n n n n n n n n n n n n n n n n n n n n n n n n n n n n d n n n n ",
"n n n n n n n n n n n n n n n n n n n n n n n n n n n n n n n n n n n n n n n n K n n n n n M M n n n n n n n n n n n n ",
"n n n n n n n n n n n n n n n n n n n n n n n n n n n n n n n n n n n n n n n n n n n n n n n v n n n n M n n n n n n n ",
"n n n n n n n n n n n n n n n n n n n n n n g ` ....O.O.O.O.O.O.O.+.O.o.O.O.O.O B n M n n n n n n n n n n n n n n n n n ",
"n n n n n n n n n n n n n n n n n n n n n e e.D.D.D.D.D.D.D.D.D.D.D.D.D.D.S.e.b.v.Z x n n n n n n n n n n n n n n n n n ",
"n n n n n n n n n n n n n n n n n n n n 9 + | | | | | O.| O.| | | | O.| ..@.M.C.j.> h n n n n n n n n n n n n n n n n n ",
"n n n n n n n n n n n n n n n n n n n e r.M.M.M.M.M.M.M.M.M.M.B.B.M.M.M.M.t.y.y.e.} h n n n n n n n n n n n n n n n n n ",
"n n n n n n n n n n n n n n n n n n 0 #.S.c.t.t.t.h.t.t.t.t.t.t.t.t.t.t.c.S.w...v.{ h n n n n n n n n n n n n n n n n n ",
"n n n n n n n n n n n n n n n n n n 8 h.V.&.W.^.^.^.^.^.(.(.^.^.^.(.^.^._ B.n...j.' h n n n n n n n n n n n n n n n n n ",
"n n n n n n n n n n n n n n n n n n 8 h.V.z.[.[.[.[.[.[.[.[.[.[.[.[.[.[.G.b.c.@.j.' d n n n n n n n n n n n n n n n n n ",
"n n n n n n n n n n n n n n n n n n 8 y.B.z.[.[.^.x.].[.[.[.[.`.x.^.[.[.G.n.c.' v.} h n n n n n n n n n n n n n n n n n ",
"n n n n n n n n n n n n n n n n n n 8 h.B.z.[.[.^.[.U.[.[.[.[.).{.T.[.[.x.B.c.w.j.` x n n n n n n n n n n n n n n n n n ",
"n n n n n n n n n n n n n n n n n K 8 h.B.z.[.[.[.[.[.I.`.`.H.[.[.[.[.[.x.M.v.$.N.} h n n n n n n n n n n n n n n n n n ",
"n n n n n n n n n n n n n n n n n n 8 h.B.z.[.[.[.[.[.x.@ @ 1.[.[.[.[.[.x.m.c.w.w.! h x n n n n n n n n n n n n n n n n ",
"n n n n n n n n n n n n n n n n n n 8 h.B.z.[.[.[.[.[.{.(.(.{.[.[.[.[.[.H.B.c.) [ > h n n n n n n n n n n n n n n n n n ",
"n n n n n n n n n n n n n n n n n n 8 h.B.-.'.].].].].].].].].].].].].].-.M.c.> w.] d x n n n n n n n n n n n n n n n n ",
"n n n n n n n n n n n n n n n n n n 8 h.S.l.o.o.o.o.o.o.O.o.o.O.O.O.O.O.y.S.c.@.r.` h c n n n n n n n n n n n n n n n n ",
"n n n n n n n n n n n n n n n n n n 8 h.A. .; ; ; O @ ; ; ; ; l.S.w.O w.S.S.c.| | ! h n n n n n n n n n n n n n n n n n ",
"n n n n n n n n n n n n n n n n n n 8 h.S.r.( ( ( ( ( ( ( ( [ B.S.c.) n.S.S.c.| ) ! h n n n n n n n n n n n n n n n n n ",
"n n n n n n n n x n n n n n n n n n 8 h.S.S.S.S.k.n.S.S.S.S.S.S.S.S.S.S.S.S.c.@.@.' h n n n n n n n n n n n n n n n n n ",
"n n n n n n n n n n n n n n n n n n 8 h.S.S.S.A.A / S.S.S.A.A.( l.S.S.S.S.S.c.+.y.} h n n n n n n n n n n n n n n n n n ",
"n n n n n n n n n M n n n n n n K w . h.S.S.k.B i.k V S.S.Z.) f.E h.A.$.w.A.k.[ o > 5 d n n n n n n n n n n n n n n n n ",
"n n n n n n n n n n n n n M M n 6 _ + h.S.S.M.+.U 1 @.S.S.r.%.F.g.W h.2 % m.c.^ O Q _ * n n n n n n n n n n n n n n n n ",
"n n n n n n n n n n n n n n n n X / 4 h.S.S.S.S.;.+.S.S.S.M.w.w.#.h.M.) [ V.c.+. .'   : n n n n n n n n n n n n n n n n ",
"n n n n n n n n n n n M n n x n X < 4 h.S.S.S.S.S.S.S.S.S.S.S.A.w.<.#.Z.S.S.c.#.N.}   : n n n n n n n n n n n n n n n n ",
"n n n n n n n n n n n n n n n M X / 3 h.S.S.c.^ ^ n.m.^ ^ l.S.m.# 5.2.k.S.S.k.#.N.]   : n n n n n n n n n n n n n n n n ",
"n n n n n n n n n n n n n n P I X / 4 h.S.S.h.Q ; l.c.; ; t.S.m.$ 6.3.k.S.S.c.#.} e X : n n n n n n n n n n n n n n n n ",
"n n M n n n M n n n n n n M P P = , 3 h.A.S.S.S.S.S.S.S.S.S.S.S.@.*. .A.S.S.k.- g c * , n n n n n K n K K n K M n n n n ",
"n n M n k n n v n M P K n n n n d K H ;.Z.S.S.S.S.S.S.S.S.S.S.S.S.S.S.S.S.V.:.f n n h h n n n n K x v b L x x n n n n n ",
"n n n n n n n n n n n n P P M d I P P f =.#.#.#.w.w.w.#.#.w.w.w.#.w.w.w.#.=.f n n n n n n n n n x K i 9.n D 7.v n n n n ",
"n n n n n n n n n n d x m P K v I M n I H q 6 : - 9 0 0 0 0 0 0 3 ^ & 0 0 g n n n n n n n n n n K v E.E.N K x D n n n n ",
"n n n n n n n n n n M n x n n n n n n I d s / / g n n n n k n B o.B k n n c n n n n n n n n n n n Q.s.~.d v p K n n n n ",
"n n n n n n n K n M n n n x n n d z P 6 < < &.a n n n n h C 1 { V k n M P n n n n n n n n n n n i !.E.t K K P z n n n n ",
"n n n n n M I u.K M n z n M n n n P x q , 1 h n n n n n n 5 / B n n n K P n n n n n n n n n n n U s S v v u K b n n n n ",
"n n n n n n L I I P n n n n n n n n n n M x n n n n n x M I I I P M P I I n n n n n n n n n n n b v n K v T H n n n n n ",
"n n n n n n x z P P K n n n n n n n n n n n n n n M z P u.4.z L r I 9.x z c M n x P n n P i H n n n n n n n n n n n n n ",
"x n n n n n x n x d n n n n n n n n n n n n n n n F L i R P E.Q.h 4.M r M 0.7.P P v 9.U d p K n n n n n n n n n n n n n ",
"n n n M n n n n d n n n n n n n n n n n n n n n Y b u n r Q.i.s.K.R H P x y 4.7.U 8.p K L n K n n n n n n n n n n n n n ",
"n n n n n n n n M n n n n n n n n n n n n n n n K H L z T a !.!.d h x z c n P q.a R n n F F M x n n n n n n n n n n n n ",
"n n n n n n n n n n n n n n n n n n n n n n n n n n v x n T s h x L b G l _.Y.4.z t n M v M m M n n n n n n n n n n n n ",
"n n n n n n n n n n x n n n n n n n n n n n n n n v v I n m v v b c H c Y.p.d.I.M u Y z n v d v n n n n n n n n n n n n ",
"n n n n n n n n n M n n n n n n n n n n n n n n y n L d n v x c z G m n g Y.I.j K P.L.b U K M n n n n n n n n n n n n n ",
"n n n M n n n n n n n n n n n n n n n n n n n n n n n n n x M n K J c z b a S x J a.R.z x M D v n n n n n n n n n n n n ",
"n n n n n n n n n n n n n n n n n n n n n n n n n n n n n n n n n n n n n n n n x s s n n n n n n n n n n n n n n n n n ",
"n n n n n n n n n n n n n n n n n n n n n n n n n n n n n n n n n n n n n n n n n n z n n n n n n n n n n n n n n n n n ",
"n n n n n n n n n n n n n n n n n n n n n n n n n n n n n n n n n n n n n n n n M n n M n n n n n n n n n n n n n n n n ",
"n n n n n n n n n n n n n n n n n n n n n n n n n n n n n n n n n n n n n n n n n n n n n x n n n n n n n n n n n n n n "
};
