/* XPM */
static char *result[] = {
/* columns rows colors chars-per-pixel */
"60 60 198 2 ",
"   c #141313",
".  c #1C1514",
"X  c #1C1C1C",
"o  c #181817",
"O  c #221616",
"+  c #261915",
"@  c #2A171A",
"#  c #231E1D",
"$  c #2E191C",
"%  c #291917",
"&  c #311D17",
"*  c #341A1D",
"=  c #3A1E1C",
"-  c #2A211E",
";  c #3E221A",
":  c #34221D",
">  c #2B1E20",
",  c #3B1D23",
"<  c #242323",
"1  c #292626",
"2  c #2B2A24",
"3  c #252929",
"4  c #2D2A29",
"5  c #252827",
"6  c #332325",
"7  c #3B2524",
"8  c #3E2228",
"9  c #332D2C",
"0  c #3C2924",
"q  c #36312F",
"w  c #373525",
"e  c #2B3433",
"r  c #2E3C3B",
"t  c #2C3837",
"y  c #363232",
"u  c #3B3332",
"i  c #3F3C38",
"p  c #3D3935",
"a  c #43241B",
"s  c #48251B",
"d  c #542A1E",
"f  c #592C1F",
"g  c #441C24",
"h  c #4A1E26",
"j  c #511F28",
"k  c #422527",
"l  c #4C2123",
"z  c #442A24",
"x  c #4B2C25",
"c  c #432329",
"v  c #482628",
"b  c #532523",
"n  c #512E25",
"m  c #5C2C21",
"M  c #53222B",
"N  c #5C222D",
"B  c #512A28",
"V  c #5D3126",
"C  c #403635",
"Z  c #443936",
"A  c #453B39",
"S  c #493C3A",
"D  c #612F20",
"F  c #62242F",
"G  c #68272E",
"H  c #642A2B",
"J  c #6B2A2E",
"K  c #712D2D",
"L  c #633023",
"P  c #693222",
"I  c #6B3129",
"U  c #743624",
"Y  c #753927",
"T  c #7A3826",
"R  c #75312B",
"E  c #7A332C",
"W  c #7F3B28",
"Q  c #30413F",
"!  c #57591E",
"~  c #494A1F",
"^  c #5F611D",
"/  c #66681D",
"(  c #72751C",
")  c #545328",
"_  c #4B4537",
"`  c #45423E",
"'  c #4D413D",
"]  c #50423F",
"[  c #544C3A",
"{  c #334846",
"}  c #354E4C",
"|  c #384543",
" . c #395654",
".. c #3E615E",
"X. c #3F6461",
"o. c #4A4845",
"O. c #544541",
"+. c #594743",
"@. c #554942",
"#. c #5C4A46",
"$. c #5F4F49",
"%. c #5E5047",
"&. c #5D5149",
"*. c #495956",
"=. c #595956",
"-. c #604C47",
";. c #624E49",
":. c #65524C",
">. c #6A534D",
",. c #645C54",
"<. c #6A5C54",
"1. c #705751",
"2. c #735A53",
"3. c #5D605E",
"4. c #6A6057",
"5. c #6D635A",
"6. c #736256",
"7. c #7C695C",
"8. c #79665A",
"9. c #436A67",
"0. c #497874",
"q. c #5F7C78",
"w. c #656360",
"e. c #686E6A",
"r. c #796D62",
"t. c #6A7F7B",
"y. c #7B7874",
"u. c #7C7267",
"i. c #833B27",
"p. c #81372B",
"a. c #85392A",
"s. c #8B3E29",
"d. c #8F4029",
"f. c #816E5E",
"g. c #867A6E",
"h. c #867467",
"j. c #957D6D",
"k. c #997E6F",
"l. c #82766D",
"z. c #4D827D",
"x. c #63827E",
"c. c #8E8173",
"v. c #85837E",
"b. c #9B8171",
"n. c #948779",
"m. c #A58977",
"M. c #A78C7A",
"N. c #AA8D7A",
"B. c #A18674",
"V. c #AF937F",
"C. c #4F8783",
"Z. c #518C87",
"A. c #55948F",
"S. c #589B95",
"D. c #698984",
"F. c #679994",
"G. c #718581",
"H. c #5CA49E",
"J. c #69A19C",
"K. c #5FAAA4",
"L. c #63B3AD",
"P. c #7EB5AE",
"I. c #66BBB5",
"U. c #6FAAA4",
"Y. c #6AC4BD",
"T. c #6DCAC3",
"R. c #73D3CB",
"E. c #898A85",
"W. c #9D8F80",
"Q. c #9E9080",
"!. c #8E9791",
"~. c #A29383",
"^. c #AC9683",
"/. c #B09581",
"(. c #B49A86",
"). c #B79D89",
"_. c #A29F99",
"`. c #9AA59E",
"'. c #BBA18D",
"]. c #BCA895",
"[. c #9CBEB7",
"{. c #8CB0A9",
"}. c #ACA8A2",
"|. c #B3AFA8",
" X c #B1ADA7",
".X c #B4B5AF",
"XX c #CAB49F",
"oX c #D3BFA9",
"OX c #D0BBA5",
"+X c #84C0B8",
"@X c #92CCC4",
"#X c #A3DFD6",
"$X c #BAE4DC",
"%X c #ADE3DA",
"&X c #C5CBC3",
"*X c #D6D1C9",
"=X c #CDDBD3",
"-X c #F1F2E8",
/* pixels */
"( ( ( ! - %.m.N.m.&.q n.oXoXoXoXQ.i < < > < X < < < < < < # < < < > < < < < < < < < Z Q.oXoXW.A @.b.M.M.M.M.&.- ^ ( ( ( ",
"( / ^ ) _ 4.M.V.(.r.&.g.Q.Q.~.~.g.' q q 9 < 4 y q y u 9 1 1 9 q u u y 4 < < q q q q ' l.~.~.u.y &.M.'.(.^.M.4._ ) ^ / ( ",
"( / w [ 7.b.N.'.XX].~.5.o.` ` ` O.-.:.:.S < A ;.:.;.;.#.q 9 O.;.;.;.;.S < Z :.:.:.;.;.@.' ` p 1 =.].XXXX'.N.b.f.[ w ^ ( ",
"! ) [ 6.B.V.'.V.Q.Q.n.:.p u p u S ;.:.:.S < A >.>.>.>.#.9 9 +.>.>.>.1.S < Z >.:.>.:.#.q 1 q u u &.n.M.Q.^.).V.B.@.2 ~ ^ ",
"w _ 7.b.N.'.XXg.S A ` +.:.:.>.>.-.+.O.' u < q ] ] ] ] S 9 4 S S O.] ] u - u ] ] S O.S 9 9 +.>.>.+.` ` A g.XX'.b.@.< - 2 ",
"_ &.8.j.(.^.n.4.C C p ] #.;.:.>.+.Z u u 4 < 9 u u u u u 1 1 9 p u u y 4 < 4 u u u u u u S #.>.>.+.Z u C 4.n.h.8.:.' @.[ ",
"j.8.` 5.].c.` [ >.>.;.Z 9 A ' S Z 4 1 1 < < < 1 < 1 1 < < < 1 1 2 1 < < < < 1 1 1 1 9 +.;.O.S S +.:.:.>.@.p p p 6.j.j.j.",
"M.b.5.r.c.,.9 S ;.>.-.u 1 9 u u 4 # X X X X X X X X X X X X X X X X X X X X X o X X 1 Z ] C C u _ -.:.:.S 2 1 q h.).^.M.",
"M.(.].c.S u Z S S S S 9 < < < < -                                                   o 1 5 5 < > 9 S S S S A 6 y c.XX(.N.",
"'.^.n.,.4 9 S S S p q < X o X X # ; &   + ; s s a ; +   @ * ; a a &   + a a a a ; O . : z > # . 1 9 u C q q 4 4 ,.n.^.).",
"OX~.o.2 < 9 S S A 9 > o         : U f . a i.s.i.a.T ; . h H E a.s.f . a i.s.i.s.T ; + L P $     o < < < < 1 < < 4 o.~.OX",
"oXQ.i 4 Z C q q q 5 o o . & s s f i.D . s s.d.d.d.i.; . h J a.d.s.D . s s.s.s.i.R & + P T m d d = X # < 9 Z S C 4 y 4.g.",
"oXn.i p >.] 1 < > o     O L s.s.s.s.D . s s.d.d.s.a.; . h J a.d.s.D O s s.d.s.R N $ + P d.s.s.s.m . o 5 ` 1.2.>.C < 5 4 ",
"g.5.Z Z #.+.S q < 7 s + + P s.p.i.s.D . s s.d.d.s.p.; O h J a.s.p.d . s s.d.s.R N $ + P s.s.s.d.D . o X q ] #.#.C 9 < < ",
"< 4 Z S S #.2.S < V i.; + P a.J K s.D . s s.d.d.d.s.; O h J a.p.J g   s s.d.d.R N $ + P s.s.s.s.D O o - < 1 q S S C 4 > ",
"< 4 C S S S S 9 X m i.; + P a.J K s.D . s s.d.d.s.i.; O m E s.s.E d . s d.d.s.K N $ + P s.p.p.s.D .   X X 1 9 S S C 4 < ",
"< 6 C A S q < X   m i.; + P a.J K s.D . s s.s.s.s.s.; + P s.s.d.s.D O s s.s.s.R N $ + P a.J K s.D .     X < 9 S S C 3 < ",
"q u A S S q < : d U i.; + P a.J K i.D . s s.a.E a.s.; + P s.s.s.E b . s s.p.K J N $ + P a.J K a.D . & d 7 < 4 9 9 4 3 > ",
"A A S A S 9 < V d.d.i.; + P a.J J a.D . s s.E F E i.= + U s.d.s.G g . s s.E F F N $ + P a.J K a.D . s s.n < < < > 3 > 3 ",
"9 9 9 9 9 < X d d.d.i.a + P a.J G K d . s s.a.p.s.p.; + P s.s.s.F g . s s.E F F N * O b K G K a.D . s s.I c 6 < C ] ] ] ",
"1 1 1 1 - X   d d.d.i.; + P a.J F F g   s s.s.s.s.i.a + P s.s.s.G g   s s.R F F N @ O h F F J a.D . a i.R G c 4 +.2.2.2.",
"O.O.O.Z 1 0 f Y d.d.i.; + P a.J F F g . s s.a.R a.i.= + P s.s.a.J g . a s.K F F N $ . h G E p.R d . = K E E v 2 C #.#.#.",
"1.1.1.S 2 x W d.d.d.i.; + P a.K F F g . s s.R F E i.a O U s.s.s.G g . s s.E J F N $ . h J a.p.J g . * F R s.B 3 y S S S ",
"#.] S q 1 2 x I d.d.i.; + P s.a.R G g . s s.R F E i.a + P s.s.p.J g . s s.s.p.J N @ . h J a.p.G g . $ F R s.B > u A S A ",
"S C 5 3 r e > x i.i.U ; + V i.a.p.F g . s s.E F E i.; O D s.s.p.J g . s s.s.s.R F $ . , H Y R F , . * J R s.x < u S S S ",
"A u 5 } Z.9.< 6 z z z - # 0 x I G F g   s s.E F E i.a O b E s.p.J g   s s.p.K R R = o > 8 z 0 6 @   ; E R K v 1 u S S A ",
"C q 1 X.Y.F.o.| { | o.| r 3 6 M G F g . s s.E F E T = . j J a.a.K h . s s.E J R U : o X 3 r t 5 X   k T R J c < 9 C Z C ",
"6 4 > X.Y.@X.X{.H.`..XU.Z.{ 0 I p.F g . s s.K F J H * O h J a.s.p.d . s s.s.p.m z - X < r C.0.t # X 1 z V E x < 4 4 4 4 ",
"9 9 < X.Y.@X&X+XL.[.&X{.S.{ 7 U p.G h . s s.E F N N $ . h J a.s.a.m . s s.d.d.n < t { { X.I.K...{ { t < B a.x 1 6 9 9 9 ",
"-.S 4 X.Y.J.5.=. .*.=.*.{ e 7 T p.F g . s s.E F N N $ O h J a.a.K l o s s.d.s.n e 0.H.H.L.T.T.K.H.K.9.5 v J v < S ;.;.-.",
">.O.4  .S.9.5 < X < X X # X = T p.G g . s s.K F F N $ O h K a.a.R l . s d.a.W x e A.T.I.K.K.K.K.L.R.C.5 k N 8 1 ] >.>.1.",
"O.Z 5 e } r < X   o o   o o * U p.F g   l a.p.F F N $ O h J a.s.p.m . s d.E J k e A.I.0.} } } } 0.T.Z.3 k F 8 < C O.] ] ",
"A C 9 1 < # X # & $ O .   % s T p.G g . a s.E N F N @ . h J a.s.s.D O a p.K N 8 e F.+X*.5 5 < X 9.@XD.3 g F 8 3 u S S A ",
"S A C 9 < X o a U H h @ O d T s.p.G g . s s.E F F N * . h K a.s.s.U O * G G F g u `.&X3.5 X < 5 e.=X!.3 c F 8 3 u Z A S ",
"u u C 9 1 - ; L s.R N $ % P s.d.p.G g . s s.p.J F N $ O b E s.s.s.D O * F F N g 4 v.}.y.w.w.3.w.y. Xy.> , F 8 < 9 u u u ",
"1 1 1 > < z Y a.d.R N % % P d.d.p.G g . s s.s.a.K N * O U s.s.s.s.D . * N F N * X y 3.}.*X*X*X*X_.=.e . , F 8 < > 4 4 > ",
"C u u 9 < B E a.s.K N $ + P s.i.E K b . s s.d.d.R N @ + P s.s.s.s.P . * N F N l = # y E.|. X|.|.y.1 > @ g F , 5 e u C C ",
">.1.>.] 5 c G E s.K N $ + P s.K K a.f . s s.d.s.K N * + U s.s.s.s.D O * N F F K U = X e o.i S | e o > j N F c 1 ] 1.>.>.",
";.;.:.] 1 8 F E s.E N $ + P s.R T s.D . s s.d.s.p.H & + P s.a.a.s.D O * N F F p.i.;   o X X X X     > F F F c 1 S :.:.:.",
"] ] ] u < 8 F R s.R N $ + P s.s.d.d.D + s s.d.d.s.p.; + P a.K K s.D O * N F F p.i.;                 , N F F , 1 u ] S ] ",
"S A u 4 < 6 c I s.E M $ + P s.p.a.s.D . s s.d.d.s.i.= + P a.J K s.D . * N F F E i.;   & s a a a & . $ N F F 8 5 q A S S ",
"S u 3 < > < < V s.R N $ + P a.K K a.D . s s.d.d.s.i.a + P p.J J a.D . * F N G E i.; + D i.s.i.i.f . * F F F 8 < u S S S ",
"q 9 < Q X.} < 7 L b c $ % z H N K s.D . s s.s.d.d.i.a + P a.J K s.D O * N J E s.i.; + P d.d.d.d.D . * N F F , < 9 9 q y ",
"< > < X.I.C.5 > 1 1 < # 1 1 6 B K s.D . s s.d.d.d.i.a % P p.J K a.D . * F E s.s.i.; + P d.d.d.d.D . * F F N 8 < < > < < ",
"A p 1 9.T.P.E.t.0.t.g.t.9.r 1 M J s.D . s s.d.d.d.i.a + P a.J K a.D . * F E s.d.i.a + P d.d.d.d.D . * N J R v 1 u S S S ",
"2.#.4 ..I.%X-X$XR.$X-X#XL. .6 M K s.D . s s.d.d.d.i.; + P i.K K s.D . * N R s.d.i.a + P d.d.d.d.D O * F R s.n 1 +.2.2.2.",
"-.S 4 9.T.P.E.D.z.G.E.C.9.r 6 M K a.D . a R i.s.s.i.; + P p.J K s.D . * F E d.s.i.; + P d.d.d.d.D . * F R d.n 1 S #.;.;.",
"S u < ..Y.C.3 < < > < < < < 6 M K s.D . * F E d.d.i.; + P p.J K a.D O * F E d.s.i.; + P d.d.d.d.f . , F R s.B 1 y S S S ",
"S u 3 Q 9. .< X o o o o o X @ M K a.D . * N E s.p.I * + P i.J K a.D O * N E s.s.i.; + P d.d.d.d.D . * N E s.B 1 u S S S ",
"S C 1 > > < < X     .       % j K s.D O * F E s.R N * + P a.K K s.D O * F E s.s.i.; + L s.d.d.s.D . * F R a.n 1 u S C A ",
"S Z u 4 < 0 V V d f d % . a d F J s.D . * N E s.R N * + P s.p.p.s.D . = E s.s.s.i.; + b E s.a.E d . $ N J K v < 4 9 9 8 ",
"Z Z Z u < x p.a.i.s.Y ; + D T G J T f . * N K i.J j @ O D i.i.i.s.f . a i.s.s.s.T ; . g J T E F , . $ N N N 7 < < 1 1 1 ",
"4 9 9 4 < 6 a s s a ; O . & a * = a &   . $ = a = $ . o & a s a s &   O a a a a ; O   @ * ; ; & +   . * $ $ > 1 C O.O.O.",
"4 4 2 < < X                                                                                                 X 1 O.1.1.2.",
"+.+.+.Z < < X X X X X X X X X X X X X X X X X X X X X X X X X X X X X X X X . X X X X X X X X X X X X X X X X 1 A +.+.+.",
"1.1.1.+.q < < 2 q q y q q y y y 4 < 1 q q q q q q q < 1 4 y q q q q q 4 - 2 q q q u q y 9 < < q q q q q y y 1 1 u S A A ",
"+.O.O.#.+.C > O.7.8.7.7.r.8.7.7.%.1 q 6.7.7.7.7.7.6.u 1 %.7.7.7.7.7.7.' X A 7.7.7.7.7.7.:.4 q 1.r.7.7.7.f.2.' < u S S S ",
"S S A O.>.O.9 :.j.j.k.k.k.k.k.k.2.2 Z h.k.b.k.k.k.h.Z 2 6.k.k.k.b.j.b.%.X @.k.k.k.k.j.j.8.9 C f.k.k.k.k.j.h.#.4 u S S S ",
"S S A S O.+.#.O.O.$.:.:.>.>.:.:.] 1 w ;.:.:.:.>.:.;.q 2 ' :.:.:.:.:.:.S X Z :.:.>.>.:.[ S u S #.>.>.>.:.#.o.A u A A A A ",
"C C C Z C ] ;.Z < 9 C p C p p u q < 9 u C C C C C C 1 1 u C C C Z C p 9 < 9 C p p C u 1 1 u u p p C C C 9 < 9 u C C C C "
};
