/* XPM */
static char *result[] = {
/* columns rows colors chars-per-pixel */
"60 60 212 2 ",
"   c #1C1B1B",
".  c #181615",
"X  c #2F181C",
"o  c #241B1A",
"O  c #341B1B",
"+  c #351E19",
"@  c #212213",
"#  c #27211C",
"$  c #3F221A",
"%  c #37221B",
"&  c #393A1E",
"*  c #242323",
"=  c #292626",
"-  c #2B2A24",
";  c #2D2A29",
":  c #262A2A",
">  c #3B2325",
",  c #392823",
"<  c #3E2429",
"1  c #332D2D",
"2  c #342624",
"3  c #3B3C20",
"4  c #36302F",
"5  c #39322E",
"6  c #323321",
"7  c #2C3938",
"8  c #363231",
"9  c #3B3332",
"0  c #3B3835",
"q  c #3E3C39",
"w  c #39353A",
"e  c #592C1F",
"r  c #542B1F",
"t  c #4C2C25",
"y  c #462329",
"u  c #462826",
"i  c #522E25",
"p  c #5A212C",
"a  c #562927",
"s  c #5A3125",
"d  c #413635",
"f  c #433937",
"g  c #453A39",
"h  c #493C3A",
"j  c #612F20",
"k  c #60232F",
"l  c #6B2C2B",
"z  c #652A2B",
"x  c #693425",
"c  c #623327",
"v  c #733725",
"b  c #7E3926",
"n  c #74302C",
"m  c #7A332B",
"M  c #783A28",
"N  c #732F2C",
"B  c #44461F",
"V  c #45491D",
"C  c #494B1F",
"Z  c #4F511F",
"A  c #545617",
"S  c #55571A",
"D  c #56581B",
"F  c #595B1D",
"G  c #5F611D",
"H  c #5F7312",
"J  c #686C0B",
"K  c #66660A",
"L  c #6C740E",
"P  c #72760D",
"I  c #727907",
"U  c #626613",
"Y  c #6C6E15",
"T  c #63661D",
"R  c #666A1B",
"E  c #6B6E1B",
"W  c #676813",
"Q  c #706D1C",
"!  c #786B19",
"~  c #6D7215",
"^  c #6F721B",
"/  c #6F7819",
"(  c #6B7719",
")  c #717514",
"_  c #72751C",
"`  c #7A741D",
"'  c #75791F",
"]  c #787A17",
"[  c #726D0F",
"{  c #454522",
"}  c #464923",
"|  c #545329",
" . c #43403B",
".. c #4E413D",
"X. c #4E4335",
"o. c #52423F",
"O. c #564C37",
"+. c #6B6B23",
"@. c #766E25",
"#. c #6D7322",
"$. c #737423",
"%. c #797524",
"&. c #757A21",
"*. c #7A7C24",
"=. c #74742B",
"-. c #76772A",
";. c #787833",
":. c #493F43",
">. c #334846",
",. c #3B5957",
"<. c #3F6461",
"1. c #4C4745",
"2. c #554541",
"3. c #584743",
"4. c #554A43",
"5. c #5B4A45",
"6. c #5D4F49",
"7. c #5D544C",
"8. c #5E5C5A",
"9. c #604C47",
"0. c #634E4A",
"q. c #66514B",
"w. c #6B544E",
"e. c #6B5750",
"r. c #635951",
"t. c #6B5C54",
"y. c #745A54",
"u. c #7E7E40",
"i. c #6B6259",
"p. c #726156",
"a. c #766458",
"s. c #7C695C",
"d. c #585B60",
"f. c #46736F",
"g. c #516E6C",
"h. c #796C62",
"j. c #7D7065",
"k. c #7C7C78",
"l. c #686864",
"z. c #823B27",
"x. c #863C29",
"c. c #8D3F29",
"v. c #81372B",
"b. c #8F4029",
"n. c #847D2B",
"m. c #957A35",
"M. c #A76F34",
"N. c #AE7D42",
"B. c #847264",
"V. c #8D7668",
"C. c #84796D",
"Z. c #8A7B6E",
"A. c #82756A",
"S. c #967D6D",
"D. c #8B7F71",
"F. c #798219",
"G. c #788009",
"H. c #7E8226",
"J. c #7E8128",
"K. c #7A8134",
"L. c #4C807C",
"P. c #808A27",
"I. c #B29B3E",
"U. c #AE973A",
"Y. c #C3AC3A",
"T. c #918B4B",
"R. c #BD9847",
"E. c #BEA548",
"W. c #8F8274",
"Q. c #908476",
"!. c #9C8271",
"~. c #988A7C",
"^. c #95887A",
"/. c #9A806F",
"(. c #A58977",
"). c #A78C7A",
"_. c #AA8D7A",
"`. c #A18674",
"'. c #C7A74A",
"]. c #CBAD49",
"[. c #568E8A",
"{. c #5BA39D",
"}. c #6CACA6",
"|. c #6AC4BD",
" X c #9D8F80",
".X c #9E9080",
"XX c #908F8A",
"oX c #A19282",
"OX c #AA9583",
"+X c #A79887",
"@X c #B09481",
"#X c #B49A86",
"$X c #B79C89",
"%X c #B99F8B",
"&X c #BAA18D",
"*X c #AFAB9F",
"=X c #BDA692",
"-X c #BEAB98",
";X c #ADB29C",
":X c #90ACB2",
">X c #B7ACAA",
",X c #B9B2AA",
"<X c #B6A8B6",
"1X c #AAAAA4",
"2X c #C3B39C",
"3X c #CBB6A0",
"4X c #D3BFA9",
"5X c #8BC2BB",
"6X c #9FD6CE",
"7X c #A7DDD5",
"8X c #E9E7DD",
"9X c #D7D6CD",
/* pixels */
"_ _ $.| # 7.(._.(.6.4 Q.4X4X4X4X~. .* * o * * * * * * * o * * * * * * * * * * *   * q .X4X4X.Xq 4.!._._._.(.7.# | / _ _ ",
"_ E G | X.a._._.#Xj.7.C.oXoXoXoXC...9 5 1 * ; 9 8 4 9 4 = = 1 8 5 5 9 2 * = 9 9 9 9 ..A..XoXj.8 6.).#X#XOX_.a.X.| G ^ ^ ",
"_ G 3 O.B.!._.=X2X2X+Xi. . . . ...0.q.q.h * g q.q.q.q.5.1 1 3.q.q.q.q.h * d q.q.q.q.7... . .9 = r.-X3X3X&X_.!.B.O.3 G ^ ",
"F | O.t.`._.&XOX~.~.W.r.9 d d 9 ..9.q.q.h * g q.q.q.q.5.4 1 3.q.w.q.q.h * g w.q.q.w.5.4 = 5 d d 7.W.^.~.OX&XOX!.O.- } F ",
"6 X.B.!._.&X2XC.9 q d 3.w.w.w.w.q...h 2.9 * 9 h h h o.h ; ; g ..h :.h 9 * 9 o.h h o.h 1 1 3.w.w.5.d 0 0 C.2X&X!.4.* = 6 ",
"4.0.p.Z.#XOXW.i.f g g ..3.0.q.0.3.0 9 9 ; * ; 9 9 9 9 1 = = 1 5 9 9 d 1 * ; 9 8 9 9 9 d h 5.0.w.4.g g g t.W.B.a.q.5.4.4.",
"!.s.q i.-XW.0 ..e.e.w.d ; d h ..d ; * * * * * * = * = * * * * * * * * * * * = * * * 1 3.q.3.h h 3.w.w.e...4 1 8 a.!.`.S.",
"_.Q.h.j.j.r.4 ..0.0.5.9 * 1 4 8 5 { B B { { B B { { B B B B B { B B B B B B } { { { } X.h d 4 4 g 6.0.7...1 = 1 B.%X@X).",
"_.#X2XQ.9 4 g h h h h 1 # * * * 3 T ^ ^ ^ ^ ^ ^ _ ^ ^ ^ _ E _ ^ ^ ^ ^ ^ ^ ^ ^ ^ _ Q +.3 = * * * 1 h h h h g 1 1 Q.3X$X_.",
"=XOXZ.7.; 1 g h h 9 1 * # & C C S +._ _ _ _ _ _ _ _ _ _ _ _ _ _ _ _ _ _ _ _ _ _ Q _ E D C B B B { 4 4 4 1 1 = ; 7.Z.OX=X",
"4X.X .# * 1 g h g 1 o . @ S _ _ _ _ _ _ _ _ _ _ _ _ _ _ _ _ _ _ _ _ _ _ _ _ _ _ _ _ _ _ _ _ _ Y F # * o * * * * * q .X4X",
"4X.Xq ; h g 1 1 1 < < o @ S _ _ _ _ _ _ _ _ _ _ _ _ _ _ _ _ _ _ _ _ _ _ _ _ _ _ _ _ _ _ _ _ _ _ T | 3 * 5 ..o.h 1 ; 7.h.",
"3X~.q d e.o.= = * y p O @ A _ _ _ _ _ _ _ _ _ _ _ _ _ _ _ _ _ _ _ _ _ _ _ _ _ _ _ _ _ _ _ _ _ _ ^ _ Z * ..e.y.w.d * * * ",
"i.7.d g 3.3.o.5 * a N + @ S _ _ _ _ _ _ _ _ _ _ _ _ _ _ _ _ _ _ _ _ _ _ _ _ _ _ _ _ _ _ _ _ _ _ _ _ Z * 4 g o.3.g 1 * * ",
"* ; q h h 3.w.g * c z.$ @ S _ _ _ _ _ _ _ _ _ _ _ _ _ _ _ _ _ _ _ _ _ _ _ _ _ _ $._ _ _ _ _ _ ` ' _ S - = * 4 g h 0 ; * ",
"* ; d g h g g -   e z.$ @ A _ _ _ _ _ _ _ _ _ _ _ _ _ _ _ _ _ _ _ _ _ _ _ _ _ _ _ $._ _ _ _ _ _ _ _ T S & * 5 h h f ; * ",
"* 1 f h g 4 * o o j z.$ @ S _ _ _ _ _ _ _ _ _ _ _ _ _ _ _ _ _ _ ` R.R.` ~ ^ &.` _ _ _ _ _ _ _ _ _ _ _ _ C * 1 d f 9 = o ",
"9 d g h h 4 * u j z.z.u @ S _ _ _ _ _ _ _ _ _ _ _ _ _ _ _ _ _ _ I.m.N.U.] ].'./ _ _ _ _ _ _ _ _ _ _ _ _ C * = ; ; ; * * ",
"d d 0 0 d 1 # i c.c.M + @ S _ _ _ _ _ _ _ _ _ _ _ _ _ _ _ _ _ _ +.R.U.K '.M.E.I _ _ _ _ _ _ _ _ _ _ _ _ S 6 = * ; 1 1 1 ",
"; ; = ; ; # . r c.v.z + @ S _ _ _ _ _ _ _ _ _ _ _ _ _ _ _ _ _ _ [ Q R %.E.Y.W ' _ _ _ _ _ _ _ _ _ _ _ _ R F 3 = h 9.9.9.",
"4 9 4 ; * # + e c.n p O @ A _ _ _ _ _ _ _ _ _ _ _ _ _ _ _ _ _ _ %.H #.] U W ) ^ _ _ _ _ _ _ _ _ _ _ _ _ _ ^ { = 2.w.w.w.",
"0.0.q.h = u v z.c.n p X @ S _ _ _ _ _ _ _ _ _ _ _ _ ^ _ _ _ _ _ ~ n.] #.( _ E -._ _ _ _ _ _ _ _ _ _ _ _ _ ^ B = 0 :.3.o.",
"w.q.9.h = u x z.c.N p X @ S _ _ _ _ _ _ _ _ _ _ _ _ _ _ _ _ _ _ #.P @.^ ( / -.&._ _ _ _ _ _ _ _ _ _ _ _ _ _ { * 4 h h h ",
"h h 4 = * # , j c.N p X @ S _ _ _ _ _ _ _ _ _ _ _ _ _ _ _ _ _ _ ^ #.] ` _ ] ~ _ _ _ _ _ _ _ _ _ _ _ _ _ _ Q { # 9 h h h ",
"h d = 7 ,.>.: u x z p X @ S _ _ _ _ _ _ _ _ _ _ ^ ' _ _ _ _ _ _ _ _ _ _ _ _ _ _ _ _ _ _ _ _ _ _ _ _ _ _ _ ^ { = 9 h h h ",
"h d = ,.}.f.: * 2 y p O @ S _ _ _ _ _ _ _ _ _ _ _ _ _ _ _ _ _ _ _ ^ _ _ _ _ _ _ _ _ _ _ _ _ _ _ _ _ _ _ _ ^ B * 9 h h h ",
"4 1 * ,.|.}.k.1.# y p X @ S _ _ _ _ _ _ _ _ _ _ _ _ _ _ _ _ _ _ _ ' _ _ _ _ _ _ _ _ _ _ _ _ _ _ _ _ _ _ ^ ^ { * 1 4 9 9 ",
"* * o f.|.7X8XXX* y p X @ S _ _ _ _ _ _ _ _ _ _ _ _ _ _ _ ' _ ' _ _ _ _ _ _ _ _ _ _ _ _ _ _ _ _ _ _ _ _ ' ^ B * * * * o ",
"h 9 * <.|.}.1X8.= i l + @ S _ _ _ _ _ _ _ _ _ _ _ _ _ ' _ _ _ _ _ _ _ _ _ _ _ _ _ _ _ _ _ _ _ _ _ _ _ _ ^ ^ V = d h h h ",
"y.5.1 <.|.[.: * # s z.$ @ S _ _ _ _ _ _ _ _ _ _ _ _ _ _ _ _ ^ _ _ _ _ _ _ _ _ _ _ _ _ _ _ _ _ _ _ ' _ _ _ ^ { = o.y.y.y.",
"9.h = >.f.,.*   . j b $ @ S _ _ _ _ _ _ _ _ _ _ _ _ _ _ _ _ _ ' _ _ _ _ _ _ _ _ _ _ _ _ _ _ _ _ _ _ _ _ ^ ^ B = h 9.9.9.",
"h d * * * * *   . e z.u @ S _ _ _ _ _ _ _ _ _ _ _ _ _ _ ^ _ &.*._ _ _ _ _ _ _ _ _ _ _ _ _ _ _ ^ _ _ _ _ _ ^ V * 9 h d h ",
"h d 9 ; #     % e v z.u @ A ) ) _ _ _ _ _ _ _ _ _ _ _ ^ _ _ _ _ *.&._ ^ _ _ _ _ _ _ _ _ _ _ _ _ _ _ _ _ _ ^ B = 8 h h h ",
"g g f 9 =   . r b.c.z.+ @ A _ _ _ _ _ _ _ _ _ _ _ _ _ _ ' _ _ _ H.&._ _ _ _ _ Q _ _ _ _ _ _ _ _ _ _ _ _ _ ^ B * 8 f f g ",
"1 1 1 = * > e v b.b.z.u @ S _ _ _ _ _ _ _ _ _ _ _ _ _ _ _ Q ) _ &._ _ _ _ _ _ _ _ _ _ _ _ _ _ _ _ _ _ _ _ ^ { * ; 1 1 1 ",
"; ; ; * * i x.c.b.c.b $ @ D _ _ _ _ _ _ _ _ _ _ _ _ _ _ _ &.*.*.Y ) _ _ _ _ _ _ _ _ _ _ _ _ _ _ _ _ _ _ _ ^ { * * = ; = ",
"3.3.3.h = y l v.c.v.z + @ A ` _ _ _ _ _ _ _ _ _ _ _ _ _ ' ' &.&._ _ _ _ _ _ _ _ _ _ _ _ _ _ _ _ _ _ _ _ _ ^ B = g 3.9.9.",
"w.w.y.:.= > k m c.n p X @ A _ _ _ _ _ _ _ _ _ _ _ _ _ _ _ _ Y Y _ _ _ _ _ _ _ _ _ _ _ _ _ _ _ _ _ _ _ _ _ ^ B = 2.e.w.w.",
"3.3.2.d = < k n c.n p X @ A _ _ _ _ _ _ _ _ _ _ _ _ _ _ _ _ _ _ _ _ _ _ _ _ _ _ _ _ _ _ _ _ _ _ _ _ _ _ _ ^ B = f 3.:.3.",
"h h d 1 * > p N c.n p O @ S &.*._ _ _ _ _ _ _ _ _ _ _ _ _ _ _ _ _ _ _ _ _ _ &._ _ _ _ _ _ _ _ _ _ _ _ _ _ _ { * 9 h h h ",
"h 0 1 = * = 2 s c.n p X @ F &.&._ _ *.P.n._ _ _ _ _ _ _ _ _ _ _ _ _ _ _ _ _ _ _ _ _ _ _ _ _ _ _ _ $._ ^ $.^ { * 9 g g g ",
"d 8 * : >.7 * t v l p X @ S _ ^ _ *.*.*._ _ _ _ _ _ _ _ _ _ _ _ _ _ _ _ _ _ _ _ _ _ _ _ _ _ _ _ $.^ ) ] &.E B * 1 d d d ",
"= * * ,.{.f.: = > a p X @ F _ Y *.&.' _ _ _ _ _ _ _ _ _ _ _ _ _ _ _ _ _ _ _ _ _ _ _ _ _ _ _ _ _ ^ &.P J._ #.} * = = = = ",
"9 4 o f.|.}.l.1.* y p X @ F _ ^ *._ _ &.&.&._ _ _ _ _ _ _ _ _ _ _ _ _ _ _ _ _ _ _ _ _ _ _ _ _ _ $.^ >X>X*.#.{ * 4 9 9 d ",
"w.3.2 f.|.6X9Xk.* y p X @ A _ _ _ _ _ *._ _ _ _ _ _ _ _ _ _ _ _ _ _ _ _ _ _ _ _ _ _ _ _ _ _ _ _ ~ ,XT.<XY ~ V = :.w.w.w.",
"q.:.; ,.|.5X1Xl.* y p X @ S _ _ Y ^ ' Y _ Y _ ^ _ _ _ _ _ ' &._ _ _ _ _ ' _ _ _ _ _ _ _ _ _ _ _ I <X>XK &.^ C = h w.0.0.",
"h d = <.|.[.q ; * y p X @ D _ _ _ _ _ &._ *._ _ _ _ _ _ _ &.*.' _ _ _ &.' _ _ _ _ _ _ _ _ _ _ _ =.W +./ ~ Y } = d h h h ",
"h 9 = >.L.,.: , i p p O @ S _ _ _ _ _ _ _ Y _ _ _ ) _ _ _ &.H.*.&.' ' *.&.' ^ _ _ _ _ _ _ _ _ _ ] ~ _ $.~ =.t = d h h h ",
"h 9 * * : : * i x.N p O @ A _ _ _ _ _ _ _ _ _ _ ^ ] ~ ' P.n.Q %.L &.&.^ ~ / ' _ ^ &._ Q &.P #._ _ _ _ _ _ ^ { * 9 g g g ",
"h g 9 ; * > i v c.z.l + @ A _ _ _ _ _ _ _ _ _ _ _ $.&.) K.&.*X>XR n.] J / J.H.&.&.) H.=.) P $._ _ _ _ _ _ _ B * 1 9 4 4 ",
"h h h 9 = i b.b.c.c.z.u @ A ` ) _ _ _ _ _ _ _ _ -.) L _ W 2XT.T.;X;.^ H.^ [ n.G.-.G.I #.&._ $.) _ _ _ _ _ ^ B * # # * * ",
"1 1 1 ; * t b.v.m z.z.+ @ A _ _ _ _ _ _ _ _ _ _ %.+.&.) ;.U >X>XQ ^ ^ ~ / #.&.K.U K.$.^ +.$.' _ _ _ _ _ _ ^ { * f :.h h ",
"= * * * * i b.N p M b u @ S ^ ^ ^ _ ^ ^ Q _ E _ _ ~ Y ^ ^ =.U R E $./ +.Q :X:Xn.~ K ( #.~ _ _ +.^ ^ ^ ^ ^ Y { = 3.y.y.y.",
"o.o.o.d * 2 i u > t t -   & } { { B B B B B B B V V { } { { V V V V { V d.O.X.7.{ V { B { B B { B B } { { B 6 = h 3.5.3.",
"y.y.y.3.; = * : ; 1 - 1 ; 1 ; ; = * = ; ; 1 ; ; ; ; = * = ; ; ; ; ; 1 ; * = 2 1 ; 1 ; ; ; = * = ; ; 1 ; ; ; * * 9 h g h ",
"3.3.3.3.4.d *  .a.a.a.a.a.a.a.a.5.* 5 t.a.a.a.a.a.t.5 * 5.a.a.a.a.a.a.4.; 2.a.a.a.a.a.a.q.w :.r.a.a.a.a.a.a. .= 4 h h h ",
"h h g 3.w.o.1 q.S././.!.!.!.!.!.p.- g V.!.!.!.!.!.V.g - p.!.!.!.!.!.!.i.8 r.!.!.!.!.!.S.B.:.1.V.!.!.!.!.!.S.4.= 9 h h h ",
"h h h ..3.3.3.3.o.7.e.e.e.w.e.e.o.= 5 0.e.e.w.e.e.7.4 = 2.w.w.e.e.e.e...; g e.e.e.e.q.4.:.g :.0.e.e.e.e.6...d 0 g h g h ",
"d d d d d o.0.g * 1 0 d d d d d 5 * ; 9 d d d d d 9 ; * 9 d d d d d 9 4 * 1 d d d 0 0 : ; 9 d d d d q d ; * 1 d d d d d ",
"= ; ; ; ; 1 9 ; * = ; ; ; ; = ; = * = ; ; ; ; ; ; ; = * = = ; ; ; ; ; = * * ; ; ; ; = = * * ; ; = ; ; ; = * = ; ; ; ; ; "
};
