/* XPM */
static char *a7b1c3d3000046c4cb3a762cf4640e92sF3Q43yRn5lVYZwb[] = {
/* columns rows colors chars-per-pixel */
"60 60 161 2 ",
"   c #101E29",
".  c #1B2827",
"X  c #1A2A2A",
"o  c #1E372B",
"O  c #263126",
"+  c #27332C",
"@  c #313B24",
"#  c #333D2C",
"$  c #292D32",
"%  c #413C3B",
"&  c #503A3B",
"*  c #1C403A",
"=  c #244626",
"-  c #384823",
";  c #2A5325",
":  c #355D23",
">  c #2D4A35",
",  c #35543B",
"<  c #3F4930",
"1  c #376E23",
"2  c #316124",
"3  c #5C621E",
"4  c #676B1D",
"5  c #686C1E",
"6  c #72751B",
"7  c #75781E",
"8  c #6F731A",
"9  c #464E21",
"0  c #484F22",
"q  c #475327",
"w  c #515820",
"e  c #55582C",
"r  c #53403E",
"t  c #574F38",
"y  c #495939",
"u  c #555D3A",
"i  c #565E33",
"p  c #5E6423",
"a  c #497C38",
"s  c #43622E",
"d  c #666A27",
"f  c #747722",
"g  c #767924",
"h  c #797B2B",
"j  c #777A2B",
"k  c #7D7E33",
"l  c #797B38",
"z  c #656933",
"x  c #273C57",
"c  c #0D3561",
"v  c #153B4D",
"b  c #1C4B57",
"n  c #1A505F",
"m  c #2D534E",
"M  c #3E5B45",
"N  c #264656",
"B  c #286654",
"V  c #0C4460",
"C  c #195771",
"Z  c #3F4B60",
"A  c #28566E",
"S  c #1A647B",
"D  c #356169",
"F  c #40444D",
"G  c #40494D",
"H  c #564541",
"J  c #5A4B44",
"K  c #5B5452",
"L  c #725A4D",
"P  c #596254",
"I  c #53744E",
"U  c #7C654B",
"Y  c #71625F",
"T  c #5C5D60",
"R  c #5D676E",
"E  c #4C7B61",
"W  c #706972",
"Q  c #66766C",
"!  c #91574E",
"~  c #855E50",
"^  c #8B6955",
"/  c #976253",
"(  c #9D6D59",
")  c #A3785E",
"_  c #AF715C",
"`  c #B0715C",
"'  c #D17360",
"]  c #4B9620",
"[  c #65AB3F",
"{  c #33945A",
"}  c #34855B",
"|  c #5A894C",
" . c #528651",
".. c #4B8873",
"X. c #6C9761",
"o. c #678765",
"O. c #45A16E",
"+. c #58A371",
"@. c #7BAB6A",
"#. c #82823C",
"$. c #868442",
"%. c #80BF5E",
"&. c #BC8667",
"*. c #A68A7B",
"=. c #CE8B6B",
"-. c #DA8468",
";. c #D49670",
":. c #E18F6E",
">. c #E49471",
",. c #E79A73",
"<. c #EA9F76",
"1. c #EDA579",
"2. c #9AD47D",
"3. c #8BC074",
"4. c #0A4C98",
"5. c #0D4B8C",
"6. c #3D5B85",
"7. c #076996",
"8. c #1E7496",
"9. c #176796",
"0. c #2B778A",
"q. c #0954AB",
"w. c #085BBD",
"e. c #0E72BC",
"r. c #1673A9",
"t. c #5479B3",
"y. c #0672CF",
"u. c #0763D0",
"i. c #1B9193",
"p. c #288482",
"a. c #24989E",
"s. c #1482A8",
"d. c #2D9FA8",
"f. c #3987A8",
"g. c #35A6B2",
"h. c #6E8083",
"j. c #56AF83",
"k. c #68BD98",
"l. c #5196B1",
"z. c #0480CE",
"x. c #038FCD",
"c. c #828983",
"v. c #9F9E95",
"b. c #91979C",
"n. c #86938E",
"m. c #A08F96",
"M. c #A89D97",
"N. c #ABAFB3",
"B. c #EEAE87",
"V. c #EFB795",
"C. c #F1C1A3",
"Z. c #F2CAB1",
"A. c #F3D3BF",
"S. c #C4C8CA",
"D. c #C4C7CA",
"F. c #F4DCCE",
"G. c #F3D3C0",
"H. c #F6E6DC",
"J. c #DEE0E1",
"K. c #F7EFEA",
"L. c #F8F8F8",
/* pixels */
"6 6 6 6 6 6 6 6 6 6 6 6 6 7 7 6 6 7 6 7 f 6 6 6 6 6 6 6 6 6 6 6 6 6 6 6 6 6 6 6 6 6 6 6 6 6 6 6 6 6 6 6 6 6 6 6 6 6 6 6 ",
"6 6 6 6 6 6 6 6 6 6 6 6 6 7 6 6 6 6 6 7 6 6 6 6 6 6 6 6 6 6 6 6 6 6 6 6 6 6 6 6 6 6 6 6 6 6 6 6 6 6 6 6 6 6 6 6 6 6 6 6 ",
"6 6 6 6 6 6 6 6 6 6 6 6 6 7 6 6 6 4 4 w w w w 4 4 6 6 6 6 6 6 6 4 3 w w w w 3 4 6 6 6 6 6 6 6 6 6 6 6 6 6 6 6 6 6 6 6 6 ",
"6 6 6 6 6 6 6 6 6 6 6 6 7 6 7 7 7 p 0 @ @ @ @ 0 3 6 6 6 6 6 6 6 3 0 @ @ @ @ 0 3 6 6 6 6 6 6 6 6 6 6 6 6 6 6 6 6 6 6 6 6 ",
"6 6 6 6 6 6 6 6 6 6 6 6 7 6 7 7 6 w @         @ w 6 6 6 6 6 6 6 w @         @ w 6 6 6 6 6 6 6 7 6 6 6 6 6 6 6 6 6 6 6 6 ",
"6 6 6 6 6 6 6 6 6 6 6 6 6 6 5 3 w u P R R R R P u w 3 4 6 4 3 w u P R R R R P u w 3 4 6 6 6 6 7 6 6 6 6 6 6 6 6 6 6 6 6 ",
"6 6 6 6 6 6 6 6 6 6 6 6 6 6 3 0 # P c.N.N.N.N.c.K @ 9 3 6 3 9 @ P c.N.N.N.N.c.P @ 9 3 6 6 7 7 7 6 6 6 6 6 6 6 6 6 6 6 6 ",
"6 6 6 6 6 6 6 6 6 6 6 6 6 6 w @   R N.L.L.L.L.N.R   @ w 6 w @   R N.L.L.L.L.N.R   @ w 6 7 7 7 7 6 7 6 6 6 6 6 6 6 6 6 6 ",
"6 6 6 6 6 6 6 6 6 6 6 6 6 6 w @   R N.L.L.L.L.N.R   O - w - O   R N.L.L.L.L.N.R   @ w 6 6 7 7 6 6 f 6 6 6 6 6 6 6 6 6 6 ",
"6 6 6 6 6 6 6 6 6 6 6 6 6 6 w =   R N.L.L.L.L.N.R   X O @ O .   R N.L.L.L.L.N.R   @ w 6 6 6 8 6 6 6 6 6 6 6 6 6 6 6 6 6 ",
"6 6 6 6 6 6 6 6 6 6 6 6 8 6 q O   R N.L.L.L.L.N.R               R N.L.L.L.L.N.R   @ w 6 8 8 8 6 8 6 6 6 6 6 6 6 6 6 6 6 ",
"6 6 6 6 6 6 6 6 6 6 6 4 3 w i P R b.S.L.L.L.L.S.b.R R R R R R R b.S.L.L.L.L.S.b.R K u w 3 4 8 6 6 6 6 6 6 6 6 6 6 6 6 6 ",
"6 6 6 8 6 6 8 6 8 6 6 3 9 @ P *.N.S.J.L.L.L.L.J.S.N.N.N.N.N.N.N.S.J.L.L.L.L.J.S.N.h.P - 9 3 6 6 6 6 6 6 6 6 6 6 6 6 6 6 ",
"6 6 6 6 6 6 6 6 6 6 6 w @   R N.L.L.L.L.L.L.L.L.L.L.L.L.L.L.L.L.L.L.L.L.L.L.L.L.L.N.R   - w 6 6 6 6 6 6 6 6 6 6 6 6 6 8 ",
"6 6 6 6 6 6 6 6 6 6 6 w @   R N.L.L.L.L.L.L.L.L.L.L.L.L.L.L.L.L.L.L.L.L.L.L.L.L.L.S.b.R P u w 3 4 6 6 6 6 6 6 6 6 6 6 6 ",
"6 6 6 6 6 6 6 6 6 6 6 w @   R N.L.L.L.L.L.L.L.L.L.L.L.L.L.L.L.L.L.L.L.L.L.L.L.L.L.J.S.N.h.P @ 9 3 6 6 6 6 6 6 6 6 6 6 6 ",
"6 6 6 6 6 6 6 6 8 6 6 w @   R N.L.L.L.L.L.L.L.L.L.L.L.L.L.L.L.L.L.L.L.L.L.L.L.L.L.L.L.L.N.R   @ w 6 6 6 6 6 6 6 6 6 6 6 ",
"6 6 6 6 6 6 6 6 6 6 6 w @   R N.L.L.L.L.L.L.L.K.H.F.F.F.F.F.F.F.F.F.F.F.F.F.F.F.F.H.K.L.N.R   @ w 6 6 6 6 6 6 6 6 6 6 6 ",
"6 6 6 6 6 6 6 6 6 6 6 w @   R N.L.L.L.L.L.L.L.H.A.C.C.C.C.C.C.C.C.C.C.C.C.C.C.C.C.G.H.L.N.R   @ w 6 6 6 6 6 6 6 6 6 6 6 ",
"6 6 6 6 6 6 8 6 6 6 6 w @   R N.L.L.L.L.L.L.L.F.C.1.1.1.1.1.1.1.1.1.1.1.1.1.1.1.1.C.F.L.N.R   @ w 6 6 6 6 6 6 6 6 6 6 6 ",
"6 6 6 6 6 6 6 6 6 6 6 w @   R N.L.L.L.L.K.H.F.Z.V.1.1.1.1.1.1.1.1.1.1.1.1.1.1.1.1.V.Z.F.M.T   @ w 6 6 6 6 6 6 6 6 6 6 6 ",
"6 6 6 6 6 6 6 6 6 6 6 w @   R N.L.L.L.L.H.A.C.V.B.1.1.1.1.1.1.1.1.1.1.1.1.1.1.1.1.B.V.C.*.K   @ w 6 6 6 6 6 6 6 6 6 6 6 ",
"6 6 6 6 6 6 6 6 6 6 6 w @   R N.L.L.L.L.F.C.1.1.1.1.1.1.1.1.1.1.1.1.1.1.1.1.1.1.1.1.1.1.) J   @ w 6 6 6 6 6 6 6 6 6 6 6 ",
"6 6 8 6 6 6 6 6 6 6 6 w @   R N.L.L.L.L.F.C.1.1.1.1.;.&.) =.;.1.1.1.1.1.1.1.;.&.) &.;.1.) J   @ w 6 6 6 6 6 8 6 6 6 6 6 ",
"6 6 6 6 6 8 6 6 6 6 6 w @   R N.L.L.L.L.F.C.1.1.1.1.&.^ J ^ &.1.1.1.1.1.1.1.&.^ J ^ &.1.) J   @ w 6 6 6 6 6 6 6 6 6 6 6 ",
"6 6 6 6 6 6 6 6 6 6 6 w @   R N.L.L.L.L.F.C.1.1.1.1.) J   J ) 1.1.1.1.1.1.1.) J   J ) 1.) H   @ w 6 6 6 6 6 6 6 6 6 6 6 ",
"6 6 6 6 6 6 6 6 6 6 6 w @   R N.L.L.L.L.F.C.1.1.>.>.( r   J ) 1.1.1.1.1.1.1.) J   H ( >.( r   @ w 6 6 6 6 6 6 6 6 6 6 6 ",
"6 6 6 6 6 6 6 6 6 6 6 w @   R N.L.L.L.L.F.C.1.,.:.-./ r   J ) 1.1.1.1.1.1.1.) J X r / -./ r   @ w 8 6 6 6 6 6 6 6 8 6 6 ",
"6 6 6 6 6 8 6 6 6 6 6 w @   R N.L.L.L.L.F.C.1.:.-.' ! &   J ) 1.1.1.1.1.1.1.) J   & ! ' ! & . @ w 6 6 6 6 6 6 6 6 6 6 6 ",
"6 6 6 6 6 6 6 6 6 6 6 w @   R N.L.L.L.L.F.C.1.,.:.-._ ~ J ^ &.1.1.1.1.1.1.1.&.^ H ~ _ -./ r   @ w 6 6 6 6 6 6 6 6 6 6 6 ",
"6 6 6 6 6 6 6 6 6 6 8 w @   R N.L.L.L.L.F.C.1.1.,.>.=.&.) &.;.1.1.1.1.1.1.1.;.&.) &.=.>.( r   @ w 6 6 6 6 6 6 6 6 6 6 6 ",
"6 6 6 6 6 6 6 6 6 6 6 w @   R N.L.L.L.L.F.C.1.1.1.1.1.1.1.1.1.1.1.1.1.1.1.1.1.1.1.1.1.1._ H   @ w 6 6 6 6 6 6 6 6 8 6 6 ",
"6 6 6 6 6 6 6 6 6 6 6 w @   T N.L.L.L.L.H.G.C.V.B.1.1.1.1.1.1.1.1.1.1.1.1.1.1.1.1.B.V.C.*.K   @ w 6 6 6 6 6 6 6 6 6 6 6 ",
"6 6 6 6 6 6 6 6 6 6 6 w @   R N.L.L.L.L.K.H.F.Z.V.1.1.1.1.1.1.1.1.1.1.1.1.1.1.1.1.V.Z.F.M.T   @ w 6 6 6 6 6 6 6 6 6 6 6 ",
"6 6 6 6 6 6 6 6 6 6 6 w @   R N.L.L.L.L.L.L.L.F.C.1.1.1.1.1.1.1.1.1.1.1.1.1.1.1.1.C.F.L.N.R   @ w 6 6 6 6 6 6 6 6 6 6 6 ",
"6 6 6 6 6 6 6 6 4 3 w - O . R N.L.L.L.L.L.L.L.H.G.C.C.C.C.C.C.C.C.C.C.C.C.C.C.C.C.G.H.L.N.R   @ w 6 6 6 6 6 6 6 6 6 6 6 ",
"6 6 6 6 6 6 6 6 3 9 @ O .   R N.L.L.L.L.L.L.L.K.H.F.F.F.F.F.F.F.F.F.F.F.F.F.F.F.F.H.K.L.N.R   @ w 6 6 6 6 6 6 6 6 6 6 6 ",
"6 6 6 6 6 6 6 8 w @         R N.L.L.L.L.L.L.L.L.L.L.L.L.L.L.L.L.L.L.L.L.L.L.L.L.L.L.L.L.N.R   @ w 6 6 6 6 6 6 6 6 6 6 6 ",
"6 6 6 6 6 4 3 w q y M M M M Q n.N.N.N.N.N.N.N.N.N.N.N.N.N.N.N.N.N.N.N.N.N.N.N.N.N.N.N.N.h.P @ 9 3 6 6 6 6 6 6 6 6 6 6 6 ",
"6 6 6 6 6 3 9 @ y I X.X.X.X.o.Q R R R R R R R R R R R R R R R R R R R R R R R R R R R R P u w p 8 6 6 6 6 6 6 6 8 6 6 6 ",
"6 6 6 6 6 w @   M X.2.2.2.2.X.M             X                                   .       @ w 6 6 6 6 6 6 6 6 6 6 6 6 6 6 ",
"6 6 6 6 6 w @   M X.2.3.@.X.E B V V V V V V V m m M m n V V V V V V V b m M m o         @ w 7 7 g h g h g g 6 6 6 6 6 6 ",
"6 6 6 6 6 w @   M X.2.@. .M D S 7.7.7.7.7.7.7.S ..X...0.7.7.7.7.7.7.7.0...X.I >         @ w 6 f h k k k k h g 6 6 6 6 6 ",
"6 6 6 6 8 w @   M X.2.X.M   V 7.x.x.x.x.x.x.x.g.k.2.k.g.x.x.x.x.x.x.z.g.k.2.X.G         @ w 6 j k $.$.#.#.h g 6 6 6 6 6 ",
"6 6 6 6 6 w @   , | %.| ,   N 0.l.l.l.l.l.s.7.p.+.%.j.d.x.x.x.x.x.x.x.d.j.%.| ,   $ % J t e w d l #.l k k j 6 6 6 6 6 6 ",
"6 6 6 6 6 w @   > a [ a >   G W v.v.v.v.t.D V B  .[ O.i.x.x.x.x.x.x.x.a.O.[ a >   % L ) U t @ q z #.k h g g 6 6 6 6 6 6 ",
"6 6 6 6 6 w @   = 1 ] 1 =   J ) 1.1.1.1._ t   = 1 ] { i.x.x.x.x.x.x.x.i.{ ] 1 =   J ) 1.) J   # u l h f 6 6 6 6 6 6 6 8 ",
"6 6 6 6 6 w @   = 1 ] 1 = . J ) 1.1.1.1._ t   = 1 ] { i.x.x.x.x.x.x.x.i.{ ] 1 =   J ) 1.) H   # e j g f 6 6 6 6 6 6 6 6 ",
"6 6 6 6 6 w @   = 1 ] 1 =   J ) 1.1.1.1.) J   = 1 ] { i.x.x.x.x.x.x.x.i.{ ] 1 =   J ) 1.) J   # w g f 6 6 6 6 6 6 6 6 6 ",
"6 6 6 6 6 w @   = 1 ] 1 =   J ) 1.1.1.1.) J   = 1 ] { i.x.x.x.x.x.x.x.i.{ ] 1 =   J ) 1.) J   @ w 6 6 6 6 6 6 6 6 6 6 6 ",
"6 6 8 6 6 3 9 @ ; : 1 2 ; = e U ) ) ) ) Y F c n B } } r.z.z.z.z.z.z.z.s.} } B *   % L ) U t # w 3 6 6 6 6 6 6 6 6 6 6 6 ",
"6 6 6 6 6 4 3 w 9 ; = ; : 1 s y J J J J F C 4.9.9.8.e.e.y.y.y.y.y.y.y.e.e.8.C *   $ % J t e w w 4 6 6 6 6 6 6 6 6 6 6 6 ",
"6 6 6 6 6 6 8 6 w @   = 1 ] 1 =         c 4.u.u.u.u.u.u.u.u.u.u.u.u.u.u.u.u.4.c         @ w 6 6 6 6 6 6 6 6 6 6 6 6 6 8 ",
"6 6 6 6 6 6 6 6 3 9 @ - 2 1 ; o         c q.u.w.q.4.4.4.4.4.4.4.4.4.4.q.w.u.4.c   X + # 0 p 6 6 6 6 6 6 6 6 6 6 6 6 6 6 ",
"6 6 6 6 6 6 6 6 4 3 w 9 ; = O .         c 4.u.q.5.c c c c c c c c c c 5.q.u.4.c   + < i p d 6 6 6 6 6 6 6 6 6 6 6 6 6 6 ",
"6 8 6 6 6 6 6 6 6 6 8 w @               c 4.u.4.c                     c 4.u.4.c   # i l j j 6 6 6 6 6 6 6 6 6 6 6 6 6 6 ",
"6 6 6 6 6 6 6 6 6 6 6 3 9 @ @ @ $ $ .   x 6.t.6.x   . O @ @ @ @ X .   x 6.t.6.x   # e h j f 6 6 6 6 6 6 6 6 6 6 6 6 6 6 ",
"6 6 6 6 6 6 6 6 6 6 6 4 3 w w w w 9 O   F W m.W F   O - w w w w - O   F W m.W F   # w g f 6 6 6 6 6 6 6 6 6 6 6 6 6 6 6 ",
"6 6 6 6 6 6 6 6 6 6 6 6 6 6 6 6 6 w @   J ) 1.) J   @ w 6 6 6 6 w @   H ) 1.) J   @ w 7 6 6 6 6 6 6 6 6 6 6 6 6 6 6 6 6 ",
"6 6 6 6 6 6 6 6 6 6 6 6 6 6 6 6 6 w @   H ) 1.) J   @ w 6 6 6 6 w #   J ) 1.) J   @ w 6 6 6 6 6 6 6 6 6 6 6 6 6 6 6 6 6 "
};
