/* XPM */
static char *result[] = {
/* columns rows colors chars-per-pixel */
"60 60 203 2 ",
"   c #101E29",
".  c #1E2A27",
"X  c #132129",
"o  c #1B262A",
"O  c #1A282A",
"+  c #172B29",
"@  c #1D3A27",
"#  c #1B3427",
"$  c #0F2839",
"%  c #1E2B35",
"&  c #13273A",
"*  c #1C3736",
"=  c #212D27",
"-  c #212D2B",
";  c #293526",
":  c #203F27",
">  c #293526",
",  c #313B25",
"<  c #323B2B",
"1  c #242D34",
"2  c #29363F",
"3  c #283E38",
"4  c #223634",
"5  c #3E3A3A",
"6  c #353536",
"7  c #413D39",
"8  c #274A27",
"9  c #3A4323",
"0  c #3B4828",
"q  c #2C5527",
"w  c #2E4639",
"e  c #394A39",
"r  c #3C5530",
"t  c #356724",
"y  c #376D23",
"u  c #30622B",
"i  c #3B7622",
"p  c #3E7C22",
"a  c #2D6032",
"s  c #585E1F",
"d  c #565C1F",
"f  c #5D621F",
"g  c #62671E",
"h  c #656A1E",
"j  c #6A6E1D",
"k  c #6D711D",
"l  c #72751C",
"z  c #75781F",
"x  c #454D22",
"c  c #444C2A",
"v  c #4D5421",
"b  c #485127",
"n  c #505720",
"m  c #555C20",
"M  c #565D2A",
"N  c #4B4938",
"B  c #4C553E",
"V  c #525933",
"C  c #565331",
"Z  c #574D3D",
"A  c #5C6122",
"S  c #526D34",
"D  c #666A27",
"F  c #6D7125",
"G  c #747722",
"H  c #767923",
"J  c #797B2C",
"K  c #777928",
"L  c #7D7E32",
"P  c #7F7F3C",
"I  c #0F2B48",
"U  c #0D385C",
"Y  c #15374D",
"T  c #2D3943",
"R  c #0D3764",
"E  c #163D61",
"W  c #0C3C73",
"Q  c #1C4748",
"!  c #1D4058",
"~  c #3E4348",
"^  c #3D4851",
"/  c #3A4454",
"(  c #2A4E4B",
")  c #13436B",
"_  c #184874",
"`  c #0A5274",
"'  c #284568",
"]  c #434549",
"[  c #5A4B44",
"{  c #594D48",
"}  c #495244",
"|  c #45504B",
" . c #575B44",
".. c #404B54",
"X. c #545D5E",
"o. c #645345",
"O. c #6B5B45",
"+. c #715A4C",
"@. c #745E53",
"#. c #46664A",
"$. c #5B6351",
"%. c #636B5C",
"&. c #7D6050",
"*. c #545E65",
"=. c #5C5860",
"-. c #45576E",
";. c #576169",
":. c #6E766D",
">. c #646D73",
",. c #757C78",
"<. c #71796F",
"1. c #807F3B",
"2. c #936E58",
"3. c #99735B",
"4. c #896954",
"5. c #947969",
"6. c #AC7E64",
"7. c #458A21",
"8. c #438521",
"9. c #4B9520",
"0. c #4E9823",
"q. c #509A26",
"w. c #559E2C",
"e. c #4D8436",
"r. c #5DA435",
"t. c #62A93C",
"y. c #5D8458",
"u. c #5A884C",
"i. c #659357",
"p. c #69AE44",
"a. c #6EB249",
"s. c #74B651",
"d. c #7CBD5A",
"f. c #70B34B",
"g. c #768F6F",
"h. c #82823C",
"j. c #878648",
"k. c #96867D",
"l. c #B68466",
"z. c #C68D6B",
"x. c #CE9472",
"c. c #E7A277",
"v. c #EDA579",
"b. c #87C567",
"n. c #93CE74",
"m. c #92CA78",
"M. c #9AD47D",
"N. c #96D179",
"B. c #8FCC70",
"V. c #0D4E92",
"C. c #25599B",
"Z. c #08648F",
"A. c #0A51A4",
"S. c #0955AF",
"D. c #085EB0",
"F. c #1272B5",
"G. c #2864AF",
"H. c #32728E",
"J. c #777E84",
"K. c #6E738A",
"L. c #085CC0",
"P. c #0762CD",
"I. c #066EC7",
"U. c #0763D0",
"Y. c #0581B9",
"T. c #3284B3",
"R. c #77848B",
"E. c #4095B7",
"W. c #82898F",
"Q. c #848B88",
"!. c #868D92",
"~. c #999D97",
"^. c #98999A",
"/. c #97918F",
"(. c #969BA0",
"). c #999FA3",
"_. c #9DA2A5",
"`. c #A6AAAE",
"'. c #AAAFB2",
"]. c #ADB1B5",
"[. c #B8BCBF",
"{. c #E8AA84",
"}. c #EBBDA1",
"|. c #F1C3A6",
" X c #F2C8AF",
".X c #EDC9B4",
"XX c #C9CCCE",
"oX c #CFD2D4",
"OX c #D1D4D6",
"+X c #DBDDDE",
"@X c #CBCED0",
"#X c #F4D9C9",
"$X c #EFDCD1",
"%X c #F5E3D7",
"&X c #F5E5DB",
"*X c #DFE0E1",
"=X c #EDEDEE",
"-X c #E3E4E5",
";X c #F5EAE4",
":X c #F7F2EF",
">X c #F3F3F3",
",X c #F8F8F8",
"<X c #F8F5F4",
/* pixels */
"l l l l l l l l l l l l l l l z l l l l l l l l l l l l l l l l l l l l l l l l l l l l l l l l l l l l l l l l l l l l ",
"l l l l l l l l l l l l l l l l l l l z l l l l l l l l l l l l l l l l l l l l l l l l l l l l l l l l l l l l l l l l ",
"l l l l l l l l l l l l l z z z z l z z l l l l l l l l l l l l l l l l l l l l l l l l l l l l l l l l l l l l l l l l ",
"l l l l l l l l l l l l l z z z z z z z H l l l l l l l l l l l l l l l l l l l l l l l l z z l l l l z l l l l l l l l ",
"l l l l l l l l l l l l l z l l z l l l l l l l l l l l l l l l l l l l l l l l l l l l l l l l l l z l l l l l l l l l ",
"l l l l l l l l l l l l l l l k z l l l l l l G l l l l l l l l l l l l l l l l l l l l l l z z z z z l l l l l l l l l ",
"l l l l l l l l l l l l l l l l l l l l l l l l l l l l l l l l l l l l l l l l l l l l z z z z z z z z l l l l l l l l ",
"l l l l l l l l l l l l l l l l l l l k l l l l l l l l l l l l l l l l l l l l l l l l z z z z l l l l l l l l l l l l ",
"l l l l l l l l l l l l l l l l l l l l l l l l l l l l l l l l l l l l l l l l l l l l l l l l l l l l l l l l l l l l ",
"l l l l l l l l l l l l l l l l l k j g h h h j l l l l l l k j g g h j j k l l l l l l l l l l l l l l l l l l l l l l ",
"l l l l l l l l l l l l l l l l l h d x 9 x x d k l l l l l j d x 9 9 x s j l l l l l l l l l l l l l l l l l l l l l l ",
"l l l l l l l l l l l l l l l l l g 9 . X o > x j l l l l l g 9 . o o = x j l l l l l l l l l l l k l l l l l l l l l l ",
"l l l l l l l l l l l l l l l h s M  .*.*.*.X. .M f h l h f M  .*.*.*.X. .M f F l l l l l l l l l l l l l l l l l l l l ",
"l l l l l l l l l l l l l l k d 9 } g.'.].].).:.e x s l d 9 ] g.].].].`.:.e x m l l l l l l l l l l k l l l l k l l l l ",
"l l l l l l l l l l l l l l j x - ..).>X,X,X+XW.2 > v j x = ..(.=X,X<X*XW.T ; n l l l l l l l l l l l l l l l l l l l l ",
"l l l l l l k l l l l l l l k x - ..).>X<X<X+XW.2 = , x , o ^ (.=X,X<X*X!.T ; n l l l l l l l l l l l l l l l l l l l l ",
"l l l l l l l l l l l l l l F x - ..).>X,X,X+XW.T   O = o X ^ ^.=X,X,X*X!.T > v l l l l l l l l l l l l l l l l l l l l ",
"l l l l l l l l l l l l k g A V | >.].>X,X,X-X).*.....^ ....>.].>X,X,X-X_.;.} M f j k l l l l l l l l l l l l l l l l l ",
"l l l l l l l l l l l l g v 0 %.!.].OX,X,X,X=XXX`.).).).).).].oX>X,X,X=X@X`.R.$.9 d h l l l l l l l l l l l l l l l l l ",
"l l l l l l l l l l l l m , % J.@X>X<X,X,X,X<X>X>X>X>X>X>X>X>X<X,X,X,X<X,X>X[.>.X 9 f l l l l l l l l l l l l l l l l l ",
"l l l l l l l l l l l l m , % J.OX,X,X,X,X,X,X,X,X,X,X,X,X,X,X,X,X,X,X,X,X,XOX_.>.$.C m g l l l l l l l l l l l l l l l ",
"l l l l l l l l l l l l m , % J.oX,X,X,X,X,X,X,X,X,X,X,X,X,X,X,X,X,X,X,X,X,X=XOX[.g.} , n k l l l l l l l l l l l l l l ",
"l l l l l l l l l l l l m , % J.oX,X,X,X,X,X,X,X,X,X,X,X,X,X,X,X,X,X,X,X,X,X,X,X>X)...- x j l l l l l l l l l l l l l l ",
"l l l l l l l l l l l k m , % J.oX,X,X,X,X,X,X,X,X,X,X,X,X,X,X,X,X,X,X,X,X,X,X,X>X)...- x l l l l l l l l l l l l l l l ",
"l l l l l l l l l l l l m , % J.oX,X,X,X,X,X,X,X,X,X,X,X,X,X,X,X,X,X,X,X,X,X,X,X=X_...= x k l l l l l l l l l l l l l l ",
"l l l l l l l l l l l l m , % J.oX,X,X,X,X,X,X,X,X,X,X,X,X,X,X,X,X,X,X,X,X,X:X&X$X/.] = x j l l l l l l l l l l l l l l ",
"l l l l l l l l l l l l m , % J.oX,X,X,X,X,X,X,X,X,X,X,X,X,X,X,X,X,X,X,X,X,X&X#X}.k.7 = x l l l l l l l l l l l l l l l ",
"l l l l l l l l l l l l m , % J.oX,X,X,X,X,X,X,X,X,X,X,X,X,X,X,X,X,X,X,X,X,X&X|.c.2.5 = x j l l l l l l l l l l l l l l ",
"l l l l l l l l l l l l m , % J.oX,X,X,X,X,X,X,X,X,X,X,X,X,X,X,X,X,X,X,X,X,X%X|.c.2.5 = x l l l l l l l l l l l l l l l ",
"l l l l l l l l l l l l m , % J.oX,X,X,X,X,X,X,X,X,X,X,X,X,X,X,X,X,X,X,X,X<X%X|.c.2.5 = x k l l l l l l l k l l l l l l ",
"l l l l l l l l l l l l m , % J.oX,X,X,X,X,X,X,X,X,X,X,X,X,X,X,X,X,X,X,X,X,X%X|.c.2.5 = x k l l l l l l l l l l l l l l ",
"l l l l l l l l l l l k m , % J.oX,X,X,X,X,X,X,X,X,X,X,X,X,X,X,X,X,X,X,X,X,X%X}.c.2.5 = x j l l l l l l l l l l l l l l ",
"l l l l l l l l l l l l d , O R.oX,X,X,X,X,X,X,X,X,X,X,X,X,X,X,X,X,X,X,X,X,X%X|.v.2.7 = x j l l l l l l l l l l l l l l ",
"l l l l l l l l l l l l d > % ,.oX,X,X,X,X,X,X,X,X,X,X,X,X,X,X,X,X,X,X,X,X,X%X|.c.2.7 = x l l l l l l l l l l l l l l l ",
"l l l l l l l l l l l l m , % J.oX,X,X,X,X,X,X,X,X,X,X,X,X,X,X,X,X,X,X,X,X,X%X|.c.2.5 = x j l l l l l l l l l l l l l l ",
"l l l l l l l l l l l l m , % J.oX,X,X,X,X,X,X,X,X,X,X,X,X,X,X,X,X,X,X,X,X,X&X X{.3.T = v j l l l l l l l l l l l l l l ",
"l l l l l l l l l l l l m , % J.oX,X,X,X,X,X,X,X,X,X,X,X,X,X,X,X,X,X,X,X,X,X;X$X.Xk.] = x j l l l l l l l l l l l l l l ",
"l l l l l l l l l l l l m , % J.oX,X,X,X,X,X,X,X,X,X,X,X,X,X,X,X,X,X,X,X,X,X<X:X;X^...= x l l l l l l l l l l l l l l l ",
"l l l l l l l l l l G l m , 1 J.oX,X,X,X,X,X,X,X,X,X,X,X,X,X,X,X,X,X,X,X,X,X,X,X=X)...= b k l l l l l l l l l l l l l l ",
"l l l l l l l l l l l l m , % J.oX,X,X,X,X,X,X,X,X,X,X,X,X,X,X,X,X,X,X,X,X,X,X,X>X)...= x j l l l l l l l l l l l l l l ",
"l l l l l l l l l l z l m , 1 R.@X>X>X>X>X>X>X>X>X>X>X>X>X>X>X>X>X>X>X>X>X>X>X>X=X^.^ = v k l l l l l l l l l l l l l l ",
"l l l l l l l l l l l l g v 0 %.!._._.(._.(.).).).)._._.(.(._._._._._._.(.).)._.(.<.B x d k l l z H 1.J K l l l l l l l ",
"l l l l l l l l l l l l k D A V | ^ ^ ^ ^ ....../ ^ ^ ^ ^ ^ ^ ..^ ^ ^ ^ ^ ^ ^ ^ ..B M g j l l G K 1.j.h.J l l l l l l l ",
"l l l l l l z l l l l l l l k v , . o   + * 3 3 3 w 3 3 3 w 4 w w * $           X , n D j l l G K h.j.j.1.l l l l l l l ",
"l l l l l z z l l l l l l l l f v 9 ;   w #.y.y.y.y.y.y.y.y.y.y.y.#.3             = , x s l l G K 1.j.j.z l l l l l l l ",
"l l l l l z z l l l l l l l l k k d 9   #.g.m.m.m.m.m.m.m.m.m.m.B.y.(               X > v j G G J 1.j.j.H l l l k l l l ",
"l l l l l l z z z z l l l l l l l f 9   a i.b.b.N.M.M.M.M.M.N.b.d.u.w X $ ! ! ~ Z [ [ Z C n A F K L 1.1.H l l l l l l l ",
"l l l l l l l l z z l l l l l l k A 9 X q e.a.d.m.M.M.M.M.M.B.d.p.S 8 $ ) Z.H.,.6.6.6.2.o., x D z H K K H l l l l l l l ",
"l l l l l l l l l l l l l l l l l g 9   8 i q.a.b.n.n.n.n.n.b.p.0.y : $ ` Y.E.~.v.v.v.z.+.o , d l l l l l l l l l l l l ",
"l l l l l l l l l l l l l l l l l f 9 X 8 i 0.t.a.s.s.s.s.s.p.r.0.y : $ Z.Y.E.~.v.v.v.x.+.1 , d l l l l l l l l l l l l ",
"l l l l l l l l l l l l l l l l l f 9 X 8 p 9.q.w.w.w.w.w.w.w.0.9.y : $ ` Y.E.~.v.v.v.z.+.o , d l l l l l l l l l l l l ",
"l l l l l l l l l l l l l l l l l g x > 8 t p 7.9.9.9.9.0.9.9.7.p a Q U Z.F.T.R.l.l.l.3.o.< x s l l l l l l l l l l l l ",
"l l l l l l l l l l l l l l l l l j f v x q q y 7.9.9.9.9.9.7.t 8 Q W V.D.I.F.-.o.o.o.[ C v s j l l l k l l l l l l l l ",
"l l l l l l l l l l l l l l l l l l l k n > + q 7.9.9.9.9.9.p q X R A.P.U.U.A.R       - v k l l l l l l l l l l l l l l ",
"l l l l l l l l l l l l l l l l l j A v r ! ! Q u t t t t t q @   I W V.S.P.A.R   # 6 c m k l l l l l l l l l l l l l l ",
"l l l l l l l l l l l l l l l l l f x ; ! V.V.) * @ @ @ @ @ # o   $ I U V.L.S.R   < V D F l l l l l l l l l l l l l l l ",
"l l l l l l l l l l l l l l l l l f 9 X R C.G._ & X . = = = = = . . = * E A.V.' 6 N M F F l l l l l l l l l l l l l l l ",
"l l l l l l l l l l l l l l l l l f 9 X / K.K.-.1 . , x x x x x x x x c ( W ' =.4.+.C N A k l l l l l l l l l l l l l l ",
"l l l l l l l l l l l l l l l l l f 9   { l.l.@.1 > v j k j j k j j j A 0 % ] 3.x.4.5 ; v j l l l l l l l l l l l l l l ",
"l l l l l l l l l l l l l l l l l f 9   o.l.x.&.1 > n l l l l l l l l j x o N 3.v.2.5 - x k l z l l l l l l l l l l l l "
};
