/* XPM */
static char *_a74bcaced344b32dc005db7f50d91a1mCgC2QtRlXkQVA2D[] = {
/* columns rows colors chars-per-pixel */
"60 60 13 1 ",
"  c #72751B",
". c #787B21",
"X c #7F8226",
"o c #656C17",
"O c #BD9842",
"+ c #A2783C",
"@ c #C6A740",
"# c #636917",
"$ c #7F8124",
"% c #686F16",
"& c #B3B0A9",
"* c #A2814F",
"= c #9CA8AD",
/* pixels */
"                                                            ",
"                                                            ",
"             .X    XX                                       ",
"              XX  .X                                        ",
"              .. ..o                                        ",
"              oo ..o                        .X    ..        ",
"                 oo                          XX  ..         ",
"                                             o.. ..         ",
"                                             o.. oo         ",
"                                              oo            ",
"                                                            ",
"                                                            ",
"                                                            ",
"                                                            ",
"                                                            ",
"                                                            ",
"                                 OO                         ",
"                                O++O @@                     ",
"                                #OO#@+@                     ",
"                                 ## @@#                     ",
"                                    ##                      ",
"                                                            ",
"                                                            ",
"                                                            ",
"                                                            ",
"                                                            ",
"                                                            ",
"                                                            ",
"                                                            ",
"                                                            ",
"                                                            ",
"                               $                            ",
"                                $                           ",
"                                ..                          ",
"                               %..                          ",
"                              $.%%                          ",
"                              ..                            ",
"                              %%                            ",
"                                                            ",
"               $                                            ",
"              ..  .$$                                       ",
"           $  .% ..$                               .        ",
"           %.. %...%                               ..       ",
"           %..  ..%.$                             &&.       ",
"            %%  .%..%                            &*&%       ",
"                %%.%                             &&#        ",
"      $$.                    $$     $            ##         ",
"       $..                    $.. .$                        ",
"       %..                 .$$%.%..%                        ",
"        %%                  $.&&%..% $$   $                 ",
"                            %&**&.%   $$ $                  ",
"                             #&&#     ..%.                  ",
"                              ##     ==.%%                  ",
"                                    =**=                    ",
"                                    #==# ==                 ",
"                                     ##  *=                 ",
"                                         ##                 ",
"                                                            ",
"                                                            ",
"                                                            "
};
