/* XPM */
static char *_e8aa623233640c7c32eff357b8db2beOfpjs2815hJ35Xvk[] = {
/* columns rows colors chars-per-pixel */
"60 60 159 2 ",
"   c #4F2913",
".  c #512C15",
"X  c #532F18",
"o  c #56331B",
"O  c #5A351C",
"+  c #5C381F",
"@  c #583722",
"#  c #5D3B22",
"$  c #5E3F29",
"%  c #613E23",
"&  c #5F4126",
"*  c #5F422D",
"=  c #624126",
"-  c #684427",
";  c #64452A",
":  c #69452A",
">  c #66492D",
",  c #6A4A2E",
"<  c #644A34",
"1  c #6B4E31",
"2  c #664D39",
"3  c #6A4F39",
"4  c #704E30",
"5  c #6D5233",
"6  c #6A523D",
"7  c #725435",
"8  c #735837",
"9  c #745639",
"0  c #785739",
"q  c #755A3B",
"w  c #795D3D",
"e  c #7D603F",
"r  c #6B5641",
"t  c #6E5945",
"y  c #6F5C49",
"u  c #775D41",
"i  c #7B5F40",
"p  c #7C5F41",
"a  c #785E45",
"s  c #7A5F46",
"d  c #7A5F41",
"f  c #715D4A",
"g  c #7C6241",
"h  c #7D6142",
"j  c #7D6242",
"k  c #7D6243",
"l  c #7F6242",
"z  c #7E6342",
"x  c #7E6243",
"c  c #7E6343",
"v  c #7E6443",
"b  c #7F6443",
"n  c #7E6244",
"m  c #7E6344",
"M  c #7F6344",
"N  c #7E6444",
"B  c #7F6445",
"V  c #7E6343",
"C  c #73614D",
"Z  c #7A624D",
"A  c #7E6650",
"S  c #7C6552",
"D  c #7F6850",
"F  c #7F6851",
"G  c #7F6951",
"H  c #7A6A56",
"J  c #7D6E5A",
"K  c #806242",
"L  c #816342",
"P  c #806243",
"I  c #816343",
"U  c #816443",
"Y  c #826344",
"T  c #816444",
"R  c #806544",
"E  c #806545",
"W  c #816545",
"Q  c #806644",
"!  c #806645",
"~  c #816645",
"^  c #806745",
"/  c #816745",
"(  c #826745",
")  c #806546",
"_  c #816547",
"`  c #816646",
"'  c #816746",
"]  c #826746",
"[  c #836746",
"{  c #826747",
"}  c #816645",
"|  c #826845",
" . c #836947",
".. c #846947",
"X. c #836947",
"o. c #826748",
"O. c #836A49",
"+. c #846A48",
"@. c #856A48",
"#. c #856B49",
"$. c #866B49",
"%. c #856B4B",
"&. c #866B4A",
"*. c #876D4B",
"=. c #876E4B",
"-. c #866D4C",
";. c #876E4C",
":. c #866E4D",
">. c #876F4D",
",. c #866B4A",
"<. c #886D4C",
"1. c #89704D",
"2. c #88704E",
"3. c #89704E",
"4. c #89714E",
"5. c #88714F",
"6. c #89714F",
"7. c #8A714E",
"8. c #8A714F",
"9. c #89724F",
"0. c #8B724E",
"q. c #8A724F",
"w. c #8A714E",
"e. c #806751",
"r. c #806953",
"t. c #816A53",
"y. c #816B55",
"u. c #836B55",
"i. c #856D57",
"p. c #846E58",
"a. c #8A7250",
"s. c #8B7250",
"d. c #8B7350",
"f. c #8B7351",
"g. c #8C7350",
"h. c #8D7451",
"j. c #8D7551",
"k. c #8E7551",
"l. c #8E7552",
"z. c #8E7553",
"x. c #8E7652",
"c. c #8E7653",
"v. c #8F7753",
"b. c #8F7754",
"n. c #8D7451",
"m. c #8F7855",
"M. c #907753",
"N. c #927A56",
"B. c #947D59",
"V. c #8A7560",
"C. c #8B7661",
"Z. c #8C7B67",
"A. c #8B7C69",
"S. c #96815C",
"D. c #99835E",
"F. c #92806B",
"G. c #93816C",
"H. c #93826D",
"J. c #968B7B",
/* pixels */
"o O + + + + + + O O % % # % % % % % = = = = ; ; - - ; ; = ; = % = = % = % ; % % = $ = $ # # % # # + # O O @ O # + + % # ",
"o > e.p.i.e.u.7 % 1 w w 0 w w w d w w w w e w w w w w w w w w w w w w w w w w w w w w 0 w w w 0 q 0 1 % 9 F e.e.i.t.: # ",
"o 3 A.H.i.e.u.a 7 s g.<.3.>.3.9.9.9.i.9.0.0.0.0.5.f.f.f.f.f.f.f.0.0.0.0.3.f.9.9.9.>.>.>.9.>.9.$.>.>.M 9 s e.A u.A.H.7 % ",
"O 4 C.p.3 3 3 0 M [ [ [ _ @.@.&.$.1.0.0.0.x.0.k.c.z.j.z.c.M.c.c.0.M.k.k.g.c.g.f.j.0.>.>.$.$.....| | B [ 0 1 < 1 i.C.3 + ",
"O % < 9 Y [ Y , O O O O O o O O % , 7 7 0 0 0 0 0 w w w w w w h w w w 0 0 0 0 0 5 7 , % O O O O O O O O 1 h Y h 9 < = + ",
"# , _ $.[ [ .., O - 4 9 9 7 0 9 , - + % % % % % % % % % % % - % % % % % # % % % % + = , 0 7 7 7 4 4 % O , ) B [ O.[ , O ",
"+ 4 f.c.$.....1 O 4 B M Y p h h w 1 - + % : : , 4 , : , 4 , , , , , , , , : : % + : 1 w L L v g Y s 1 O 1 [ [ | 9.$., + ",
"% 7 j.M.$.....7 o 1 p M M [ [ M [ B 0 , , 0 e L L L Y Y L L Y L Y Y Y Y Y w 0 9 4 w ..[ L Q [ v Y p , O 4 | O.@.0.$.4 + ",
"% 7 f.z.=.$.=.7 o o + 0 ..$...[ [ O.%.@.9 - 9 [ L L [ [ [ [ [ [ [ [ [ [ Y 0 , d <.>.%.@.<.<.<.s.0 + O O 4 ....#.0.=.1 % ",
"% 4 c.z.=.$.=.5 O - 4 - - - , [ >.%.O.@.[ p 9 : : 4 0 w w e e h e 0 4 1 1 0 ..$.<.%.%.s.%.4 % % : 7 : % 7 #.#.#.0.1., % ",
"% 7 j.z.=.=.#.7 + - 7 4 , 4 4 4 w >.3.%.@.@.) 0 0 0 7 5 0 e w w 9 0 w w p [ >.$.>.g.&.w 4 3 , , 4 0 , % 0 $.$.$.0.9.7 % ",
"% 7 j.m.1.=.$.0 % 4 8 w e e 0 , 4 p @.>.9.$.>.>.0.9.h 0 8 0 0 9 9 p <.0.0.9.0.9.>.@.K , : 9 0 u w e 4 % 0 $.0.>.N.$.7 % ",
"= 7 c.m.9.>.>.0 - 4 0 e e L L L 9 % 9 g.g.>.>.9.g.g.g.@.7 ; : 4 Y ..$.0.s.s.s.M.3.4 % 9 p i 0 p w w 7 % 0 s.9.>.M.1.7 % ",
"% 7 c.N.0.9.j.0 - 4 L L @.@.$.$.@.Y 0 - w B.M.g.g.g.g.g.>.$.@.[ 9 w &.<.<.m.B.w - 0 ) @.&.Y @.Y @.$.0 : 0 s.>.g.M.0.7 % ",
"% 7 g.M.j.9.9.0 - 7 L ..@.$.$.<.<.<.Y 0 0 0 [ B.B.B.M.g.g.g.g.>.[ p 0 [ B.@.4 0 0 Y @.$.&.&.&.&.$.&.0 % 0 s.s.g.N.c.7 = ",
"% 7 c.M.j.9.0.0 - 4 L L $.=.<.<.<.<.<.<.w , 0 ) M [ g.M.c.g.g.g.g.@.w p ) 0 4 P <.&.$.$.&.&.&.&.&.&.0 % 0 z.s.g.N.m.7 % ",
"- 7 0.N.0.0.0.0 - 4 L ..$.<.$.$.<.<.<.<.&.@.9 % - - L g.c.c.c.c.g.g.g.w % 0 ..&.<.<.$.>.%.@.%.&.%.%.0 : w z.g.g.B.z.7 % ",
"= 0 0.N.N.k.0.0 + 7 L | <.$.<.$.$.$.$.<.w , 0 &.$.L 4 , $.D.S.N.g.f.0.>.&.w 9 h <.<.<.&.%.@.%.$.&.%.0 - w g.g.z.B.M.7 - ",
"= 7 0.B.0.M.k.0 % 4 q w L L h v w 9 0 0 w Y &.<.0.$.$.[ 0 4 4 w M.B.c.$.<...Y w 7 7 0 p [ M p M Y s 7 % 0 g.g.z.B.B.7 % ",
"% 7 c.M.c.c.k.8 % , 0 0 w 0 0 7 9 0 0 0 [ <.0.<.c.c.@.w 4 , , 7 w @.M.c.$.9.$.h 0 0 0 9 9 w d d p p 4 % 0 g.g.g.B.m.9 % ",
"% 7 9.M.k.k.k.0 + : 0 0 0 0 0 7 0 @.0.0.0.0.M.M.k.<.7 , 0 e Q q : 7 $.9.g.%.&.&.>.%.Y 0 5 0 w w w w 4 % 9 g.0.g.S.m.9 $ ",
"% 7 0.B.k.k.k.0 O - 4 0 0 1 5 h &.$.<.0.0.<.N.B.0 + 7 e L L e L Y 7 % 0 B.M.@.$.%.%.@.[ a 1 1 w w w : % 9 g.g.M.B.m.7 % ",
"+ 7 c.M.k.k.k.0 O % - - , 9 [ @.>.<.M.B.B.B.Y , 4 0 e L L L Q Q h w 0 4 , P M.<.3.@._ ) M w 9 , - - % # 9 g.g.z.B.m.1 % ",
"% 5 c.N.k.k.k.4 O - 4 4 9 M @.$.$.0.[ w w w 9 4 w | | Q Q | Q Q ) [ [ w 4 4 0 0 9 ) %.) h h w 7 4 9 % O 9 g.g.z.B.M.1 O ",
"+ , g.M.M.c.c.7 o 4 0 L L $.@.$.@.L 0 - % - 0 ......$.$.[ $.Y &.[ $.@.@.Y 0 % : : 9 h [ B v v e M M , O 0 0.g.g.N.c.1 O ",
"+ , 9.M.c.c.k.7 o , w L L L ..$.e % % 0 e w e L Y [ Y Y Y Y Y Y [ [ Y Y Y Y w P 0 - % w $.h e w w w : O 4 k.g.g.m.>., O ",
"O % , w 3.z.k.7 o O + % % - - - % + % - % - - - : - : : : : , : - : , - : - - % - % + - - % + % # O O O 4 8.s.>.g 2 + o ",
"O , Z Z u 0 0 0 7 0 7 8 0 w 0 w e e w w w e e e e e e K K p K P e e e e p w p w w 0 w q 0 0 0 0 9 9 9 4 0 u 0 u N Z ; X ",
"O 3 A.A.S s Z s e  .0.j.k.N.N.N.M.N.N.N.N.N.S.N.B.N.N.B.N.B.B.B.S.B.B.B.B.M.N.B.N.N.M.M.M.N.c.c.s.s.$.s s Z Z S F.Z.* . ",
"X 2 A.J.J.J.J.S ; v N.S.N.B.B.S.B.B.B.D.S.S.S.S.D.D.D.D.B.D.D.D.D.D.D.D.D.D.D.S.D.D.B.D.S.S.B.N.N.m.Y % S J.J.J.J.F.< . ",
"X ; C H H H H 2 X , e b e b Q  .| $.@...@.@.@.$.$.$.$.$.$.$.<.<.$.$.$.$.#.#.@.$.....@.@...O.O.[ Y _ 4 o 2 J J J J C & . ",
"X $ t C f r % ; , 8 e e e v L L L L L L Q Q Q L | L ..L | Y [ Y | | | | | | [ | | [ [ [ [ v [ [ L ) u 4 < % r C C t & . ",
"X # 3 r < * & , e e e e e e b b L v v v | v Q L Q b b | ) ) [ [ [ [ [ B L | | Q | | Q Q Q Q Q Q e e e e 5 = > < 6 6 &   ",
". o ; $ O ; e 8 5 5 8 8 e 8 8 e 0 0 w 0 q w q q q e e q w w 0 w w w w w w w w w w w w w w w w 0 8 e e e e e > + > < o   ",
". . . $ q e e ; X X X X X X X X X o o o o o O O O O o o O o o O o O o o o o O O O O O O o o o . X X . . > e e 8 & X     ",
". O : 3 8 e e & . + - ; > - > - , 7 ; X O # + = ; ; ; ; - > ; > ; : ; ; = = & O o - 1 ; - ; = - = & + . = e e e 5 > @   ",
". O 7 w w e e & . O ; > 5 5 7 5 9 8 5 > & O & ; > 1 5 1 1 1 1 7 5 7 1 < , = @ = ; 5 8 8 5 1 > 1 ; # O . * q q e e 5 +   ",
". + 7 w e q e ;   X o & - > , 5 9 5 w u 1 # + & - ; , 1 1 5 5 1 5 1 > > = % @ 1 e 8 5 5 , > = = & O . . > q e e e 8 +   ",
". + 7 w q e 8 & . & > O     O , 7 9 8 6 w g ;   . X ; 5 5 5 5 7 5 > X . . ; w q 5 5 5 5 > O . . O ; #   & e e q e 5 #   ",
"  O 7 w e q e &   & 5 , ; ; & + $ 5 q 8 8 q 8 8 q 8 = O > 5 7 < O % 5 7 9 5 9 5 5 8 1 # O # & ; > > & X & e e q 8 5 +   ",
"  + 8 q q w w ;   = 1 5 1 > ; & # & > 8 8 8 e e e e 8 > ; + & * > 5 q q q q 8 8 5 - # # # & > 5 1 1 &   * e w q 8 5 #   ",
"  @ 5 q q q q =   = 5 5 1 , > > ; + + > > > 5 q 8 q g e , & # * 8 8 5 5 5 , ; ; ; & + & ; ; ; 5 1 1 &   & 8 8 8 8 5 o   ",
"  + 5 q q q w &   & 1 5 5 , > > > > & X X X = 8 8 q q q e B N g < ; * > 5 &     X & > ; > ; > 5 1 1 &   & 8 8 5 8 5 o   ",
"  O 5 q q q 8 & . = 5 5 5 1 > > > > > ; - > + o * 8 q q q e q e h h N , o # > > ; > > > > ; > 1 1 1 &   & 5 5 8 5 5 #   ",
"  + 5 q 8 8 8 &   & 5 5 5 > > > > > * O O O ; 2 1 > > 1 8 q 8 q w g u 8 1 * O O + & > > * > > 5 5 5 &   & 8 5 8 5 5 o   ",
"  @ 5 8 8 8 8 *   & 1 1 1 > > > ; & & & & # 5 g 5 < ; > ; > ; > 5 q 8 w g 5 & & & & & & > > * 5 > 5 &   & 5 8 5 8 5 o   ",
"  O 1 8 8 8 8 &   & 5 1 1 > * ; & o ; q g u q 8 8 7 5 < + X X # , 5 8 8 8 C N g e * O & * & > 5 1 1 &   & 5 5 8 5 > o   ",
"  O 1 8 8 8 5 &   # > < 1 > & o @ 5 8 6 8 5 8 8 5 5 # o & 5 , * o $ 6 8 8 8 q q q q 5 # O & > 5 1 5 & X & 5 8 5 8 5 +   ",
"  + 5 5 8 8 8 & X @ > > > @ @ & 5 5 8 5 5 5 > @ + + & & > 5 > > ; $ # + + * 8 8 8 8 q 5 > & @ > 1 1 &   & 5 8 5 5 5 o   ",
"  O 5 5 5 8 5 &   o & # # & & 5 8 5 5 5 5 & # + @ # & 5 1 1 1 1 , ; @ O O & & 1 5 8 6 q 8 * & & @ & O   & 5 5 8 5 > o . ",
"  o > 5 5 5 8 &   X o o + > 5 5 5 5 > > & o @ > > > 5 5 > > 5 1 , > > ; * + o & > 5 5 5 8 q 5 @ O O X   & 5 5 8 5 > o   ",
"  o > 5 5 5 5 & X & 8 5 5 5 5 5 5 5 & X o & & & > > > > > 1 > > > 1 1 > & & & o X > 5 5 5 1 5 g g t > . # 5 5 5 5 > o   ",
"  o > 5 5 > 5 #   & 5 > > 5 5 > * O O & & * & & > > > > > > > > > > > * & & & & # o + > 5 5 5 5 5 5 &   & 5 5 5 5 > @   ",
"  X + & 5 5 > &   o & # & # # # +   X O + o + # + + + + + + & + # + # + O O o o o X X o + + + + @ # o   + 5 5 > & @ X   ",
"  X @ & & > 5 & & @ @ & @ + # # @ # @ # & & # # & & & & # # & & # # # # + & & + # # & & + + & + # # # # ; 5 > & & @ X   ",
"  & y 5 o & > 8 q q q w w w e e g g g N g N N N N v e G N e v e N v G N N Z N N v v e v e e e e v v v e 8 > # o r y &   ",
"  @ 6 y C < X & 5 5 5 5 5 5 5 5 5 5 5 5 5 5 5 5 5 5 5 5 5 5 5 5 8 5 5 5 5 5 5 5 5 5 5 5 8 8 5 5 5 5 5 5 & o < C y 6 &   ",
"  @ 6 y y t 2 * @ & < 5 5 5 > 5 1 5 5 > > 5 5 5 > 5 5 5 5 5 5 5 5 5 5 5 1 5 5 1 5 5 5 5 , 5 > 5 5 5 & # * 6 t C y 6 @   ",
"  X * < < 2 2 &   @ & & & & & & & & & & & & & & & & & & & & & & & & & & & & & & & & & & & & & & & & #   & 6 2 < < * X   ",
"                                                                            .               .                           "
};
