/* XPM */
static char *result[] = {
/* columns rows colors chars-per-pixel */
"60 60 155 2 ",
"   c #2D381F",
".  c #071824",
"X  c #142423",
"o  c #192E2E",
"O  c #163929",
"+  c #212D21",
"@  c #24292E",
"#  c #2E3922",
"$  c #223028",
"%  c #303C29",
"&  c #3F3938",
"*  c #4F3738",
"=  c #523D3B",
"-  c #2F4B1F",
";  c #39431E",
":  c #325D1E",
">  c #2D611F",
",  c #346E1E",
"<  c #1F4421",
"1  c #284C2C",
"2  c #255220",
"3  c #314535",
"4  c #325338",
"5  c #444D1B",
"6  c #40511C",
"7  c #50571A",
"8  c #52581B",
"9  c #5C6218",
"0  c #676B17",
"q  c #686C1A",
"w  c #6F7413",
"e  c #737614",
"r  c #757816",
"t  c #747719",
"y  c #75791B",
"u  c #495326",
"i  c #535927",
"p  c #56493A",
"a  c #485836",
"s  c #545D35",
"d  c #555E38",
"f  c #506429",
"g  c #477D35",
"h  c #64682B",
"j  c #767921",
"k  c #797B22",
"l  c #7A7D2A",
"z  c #7A7C33",
"x  c #0D384C",
"c  c #223956",
"v  c #053261",
"b  c #154B58",
"n  c #3E434C",
"m  c #29524D",
"M  c #3C5B43",
"N  c #214455",
"B  c #236653",
"V  c #044260",
"C  c #195178",
"Z  c #3D4A60",
"A  c #285F60",
"S  c #13647C",
"D  c #594A42",
"F  c #5B5351",
"G  c #735A4C",
"H  c #52754D",
"J  c #586253",
"K  c #7D654A",
"L  c #72625F",
"P  c #5C5D60",
"I  c #5D676E",
"U  c #66776D",
"Y  c #706973",
"T  c #865E4F",
"R  c #92564D",
"E  c #8C6954",
"W  c #986252",
"Q  c #9E6D58",
"!  c #A4795E",
"~  c #B1725C",
"^  c #D27460",
"/  c #4A971A",
"(  c #7E802D",
")  c #7F8031",
"_  c #65AC3D",
"`  c #31865B",
"'  c #2F955A",
"]  c #598A4B",
"[  c #518750",
"{  c #498974",
"}  c #678865",
"|  c #6C9861",
" . c #43A26E",
".. c #57A472",
"X. c #7CAC6A",
"o. c #818134",
"O. c #83833B",
"+. c #878540",
"@. c #BA8364",
"#. c #BD8867",
"$. c #A78B7C",
"%. c #CF8C6B",
"&. c #DB8568",
"*. c #D59770",
"=. c #E2906E",
"-. c #E59572",
";. c #E89B74",
":. c #EBA077",
">. c #EDA67A",
",. c #81C05E",
"<. c #8CC175",
"1. c #9BD57E",
"2. c #05498D",
"3. c #034B99",
"4. c #3A5B86",
"5. c #016997",
"6. c #157097",
"7. c #386E85",
"8. c #247A86",
"9. c #0253AC",
"0. c #025BBE",
"q. c #1276A7",
"w. c #0573BD",
"e. c #537AB4",
"r. c #0163D1",
"t. c #0173D0",
"y. c #1F8482",
"u. c #149294",
"i. c #1F999F",
"p. c #318897",
"a. c #0C83A9",
"s. c #29A0A9",
"d. c #32A7B3",
"f. c #55B084",
"g. c #68BE99",
"h. c #5097B2",
"j. c #0081CF",
"k. c #0090CE",
"l. c #838A84",
"z. c #87948F",
"x. c #92989D",
"c. c #A09F96",
"v. c #A59798",
"b. c #ACB0B4",
"n. c #EEAF88",
"m. c #EFB896",
"M. c #F1C2A4",
"N. c #F2CBB2",
"B. c #C5C9CB",
"V. c #F3D4C1",
"C. c #F4DDCF",
"Z. c #F6E7DD",
"A. c #DFE1E2",
"S. c #F7EFEB",
"D. c #F8F8F8",
/* pixels */
"e e e e e e e e e e e e e e e e e e e e e e e e e e e e e e e e e e e e e e r e r r e e e r r r e e e e e e e e e e e e ",
"e e e e e e e e e e e e e e e e e e e e e e e e e e e e e e e e e e e e e e r r r r e e e e r e r e e e e e e e e e e e ",
"e e e e e e e e e e e e e e e e e e e e 0 9 7 7 7 7 9 0 e e e e e e e 0 9 7 7 7 8 9 w r e e r e e e e e e e e e e e e e ",
"e e e e e e e e e e e e e e e e e e e e 9 5         5 9 e e e e e e e 9 5       # 5 9 t y y e e e e e e e e e e e e e e ",
"e e e e e e e e e e e e e r r e e e e e 7   . . . .   7 e e e e e e e 7   . . . . # 8 y r r e t e e e e e e e e e e e e ",
"e e e e e e e e e e e e r r e e e q 9 7 s J I I I I J s 7 9 0 e 0 9 7 s J I I I I J d 8 0 0 e e e e e e e e e e e e e e ",
"e e e e e e e e e e e r r r r r e 9 6   J l.b.b.b.b.l.J   5 9 e 9 5   J l.b.b.b.b.l.J # 5 9 e e e e e e e e e e e e e e ",
"e e e e e e e e e e y e y y r e e 7   . I b.D.D.D.D.b.I .   7 e 7   . I b.D.D.D.D.b.I . # 7 e e e e e e e e e e e e e e ",
"e e e e e e e e e e e e r r e e e 7   . I b.D.D.D.D.b.I . + ; 7 ; + . I b.D.D.D.D.b.I .   7 e e e e e e e e e e e e e e ",
"e e e e e e e e e e e e e e e e e 7   . I b.D.D.D.D.b.I . X +   + X . I b.D.D.D.D.b.I .   7 e e e e e e e e e e e e e e ",
"e e e e e e e e e e e e w w e e e 7   . I b.D.D.D.D.b.I . . . . . . . I b.D.D.D.D.b.I .   7 e e e e e e e e e e e e e e ",
"e e e e e e e e e e e e e w 0 9 7 s J I x.B.D.D.D.D.B.x.I I I I I I I x.B.D.D.D.D.B.x.I J s 7 9 0 e e e e e e e e e e e ",
"e e e e e e e e e e e e e w 8 5   J l.b.B.A.D.D.D.D.A.B.b.b.b.b.b.b.b.B.A.D.D.D.D.A.B.b.l.J   5 9 e e e e e e e e e e e ",
"e e e e e e e e e e e e e e 7 # . I b.D.D.D.D.D.D.D.D.D.D.D.D.D.D.D.D.D.D.D.D.D.D.D.D.D.b.I .   7 e e e e e e e e e e e ",
"e e e e e e e e e e e 0 9 7 s J I x.B.D.D.D.D.D.D.D.D.D.D.D.D.D.D.D.D.D.D.D.D.D.D.D.D.D.b.I .   7 e e e e e e e e e e e ",
"e e e e e e e e e e e 9 5   J l.b.B.A.D.D.D.D.D.D.D.D.D.D.D.D.D.D.D.D.D.D.D.D.D.D.D.D.D.b.I .   7 e e e e e e e e e e e ",
"e e e e e e e e e e e 7   . I b.D.D.D.D.D.D.D.D.D.D.D.D.D.D.D.D.D.D.D.D.D.D.D.D.D.D.D.D.b.I .   7 e e e e e e e e e e e ",
"e e e e e e e e e e e 7   . I b.D.S.Z.C.C.C.C.C.C.C.C.C.C.C.C.C.C.C.C.Z.S.D.D.D.D.D.D.D.b.I .   7 e e e e e e e e e e e ",
"e e e e e e e e e e e 7   . I b.D.Z.V.M.M.M.M.M.M.M.M.M.M.M.M.M.M.M.M.V.Z.D.D.D.D.D.D.D.b.I .   7 e e e e e e e e e e e ",
"e e e e e e e e e e e 7   . I b.D.C.M.>.>.>.>.>.>.>.>.>.>.>.>.>.>.>.>.M.C.D.D.D.D.D.D.D.b.I .   7 e e e e e e e e e e e ",
"e e e e e e e e e e e 7   . P v.C.N.m.>.>.>.>.>.>.>.>.>.>.>.>.>.>.>.>.m.N.C.Z.S.D.D.D.D.b.I .   7 e e e e e e e e e e e ",
"e e e e e e e e e e e 7   . F $.M.m.n.>.>.>.>.>.>.>.>.>.>.>.>.>.>.>.>.n.m.M.V.Z.D.D.D.D.b.I .   7 e e e e e e e e e e e ",
"e e e e e e e e e e e 7   . D ! >.>.>.>.>.>.>.>.>.>.>.>.>.>.>.>.>.>.>.>.>.>.M.C.D.D.D.D.b.I .   7 e e e e e e e e e e e ",
"e e e e e e e e e e e 7 # . D ! >.*.#.! #.*.>.>.>.>.>.>.>.*.#.! #.*.>.>.>.>.M.C.D.D.D.D.b.I .   7 w e e e e e e e e e e ",
"e e e e e e e e e e e 7   . D ! >.#.E D E #.>.>.>.>.>.>.>.#.E D E #.>.>.>.>.M.C.D.D.D.D.b.I .   7 e e e e e e e e e e e ",
"e e e e e e e e e e e 7   . D ! >.! D . D ! >.>.>.>.>.>.>.! D . D ! >.>.>.>.M.C.D.D.D.D.b.I .   7 e e e e e e e e e e e ",
"e e e e e e e e e e e 7   . = Q -.Q p . D ! >.>.>.>.>.>.>.! D . p Q -.;.;.>.M.C.D.D.D.D.b.I .   7 e e e e e e e e e e e ",
"e e e e e e e e e e e 7   . = W &.W = . D ! >.>.>.>.>.>.>.! D . = W &.=.;.>.M.C.D.D.D.D.b.I .   7 e e e e e e e e e e e ",
"e e e e e e e e e e e 7 # . * R ^ R * . D ! >.>.>.>.>.>.>.! D . * R ^ &.-.>.M.C.D.D.D.D.b.I .   7 e e e e e e e e e e e ",
"e e e e e e e e e e e 7   . = W &.~ T D E #.>.>.>.>.>.>.>.#.E D T ~ &.=.;.>.M.C.D.D.D.D.b.I .   7 e e e e e e e e e e e ",
"e e e e e e e e e e e 7   . D Q -.%.@.! #.*.>.>.>.>.>.>.>.*.#.! @.%.-.;.:.>.M.C.D.D.D.D.b.I .   7 e e e e e e e e e e e ",
"e e e e e e e e e e e 7   . D ! >.>.>.>.>.>.>.>.>.>.>.>.>.>.>.>.>.>.>.>.>.>.M.C.D.D.D.D.b.I .   7 e e e e e e e e e e e ",
"e e e e e e e e e e e 7   . F $.M.m.n.>.>.>.>.>.>.>.>.>.>.>.>.>.>.>.>.n.m.M.N.Z.D.D.D.D.b.I .   7 e e e e e e e e e e e ",
"e e e e e e e e e e e 7   . J v.C.N.m.>.>.>.>.>.>.>.>.>.>.>.>.>.>.>.>.m.N.C.S.S.D.D.D.D.b.I .   7 e e e e e e e e e e e ",
"e e e e e e e e e e e 7 # . I b.D.C.M.>.>.>.>.>.>.>.>.>.>.>.>.:.>.>.>.M.C.D.D.D.D.D.D.D.b.I .   7 e e w e e e e e e e e ",
"e e e e e e e e e e e 7 # . I b.D.Z.V.M.M.M.M.M.M.M.M.M.M.M.M.M.M.M.M.N.Z.D.D.D.D.D.D.D.b.I . + ; 7 9 0 e e e e e e e e ",
"e e e e e e w e e e e 7   . I b.D.S.Z.C.C.C.C.C.C.C.C.C.C.C.Z.C.Z.C.C.Z.S.D.D.D.D.D.D.D.b.I . X $ ; 5 9 e e e e e e e e ",
"e e e e e e e e e e e 7   . I b.D.D.D.D.D.D.D.D.D.D.D.D.D.D.D.D.D.D.D.D.D.D.D.D.D.D.D.D.b.I . . . .   7 e e e e e e e e ",
"e e e e e e e e e e e 9 5   J l.b.b.b.b.b.b.b.b.b.b.b.b.b.b.b.b.b.b.b.b.b.b.b.b.b.b.b.b.z.U M M a M 4 u 7 9 0 e e e e e ",
"e e e e e e e e e e e 0 9 7 s J I I I I I I I I I I I I I I I I I I I I I I I I I I I I U } | | | | H a   5 9 e e e e e ",
"e e e e e e e e e e r e e e 7   . . . . . . . . . . . . . . . . . . . . . . . . . . . . 4 | 1.1.1.1.| M . $ 7 e e e e e ",
"e e e e e y y k k k k y r r 7   . . . . o 3 M N b V V V V V V V b m M m N V V V V V V V A [ | X.<.1.| M .   7 e e e e e ",
"e e e e e y l l ( ) ) l y e 7   . . . . 3 H | { 8.5.5.5.5.5.5.5.y.{ | { S 6.5.5.5.5.5.5.S A M } X.1.| M .   7 e e e e e ",
"e e e e e y l O.O.O.+.o.k e 7   . . . . M | 1.g.d.k.k.k.k.k.k.k.d.g.1.g.d.k.k.k.k.k.k.k.5.V . M | 1.| M .   7 e e e e e ",
"e e e e e t k l z o.O.z h 7 i p D & @ . 4 ] ,...s.k.k.k.k.k.k.k.s.f.,...y.5.6.p.h.h.h.h.7.b . m ] X.] 4 .   7 e e e e e ",
"e e e e e t y k l z o.h u   p T ! G & . 2 [ _  .i.k.k.k.k.k.k.k.i. ._ [ B V I e.c.c.c.c.U D . 1 g _ / 1 .   7 e e e e e ",
"e e e e e e e e y l o.s % . p ! >.! p . < , / ' u.k.k.k.k.k.k.k.u.' / , < . D ! >.>.>.>.! D . < , / , < .   7 e e e e e ",
"e e e e e e e e y k l i % . p ! >.! D . < , / ' u.k.k.k.k.k.k.k.u.' / , 1 . D ! >.>.>.:.! p . < , / , - .   7 e e e e e ",
"e e e e e e e e y r j i   . D ! >.! D . < , / ' u.k.k.k.k.k.k.k.u.' / , < . D $.>.>.>.>.! D . < , / , < .   7 w e e e e ",
"e e e e e e e e e e e 7   . p ! >.! D . < , / ' u.k.k.k.k.k.k.k.u.' / , < . p Q >.>.>.>.! D . 2 , / , 1 .   7 e e e e e ",
"e e e e e e e e e e e 9 5   p K ! G & . < B ` y.a.j.j.t.j.j.j.j.a.` ` A b v Z L ! ! ! ! K a < 2 > , : -   5 8 e e e e e ",
"e e e e e e e e e e e 0 9 7 i p D * o . x C 6.q.w.t.t.t.t.t.t.t.w.q.q.5.5.3.C Z D p p p a f , 2 2 < 2 5 7 0 0 e e e e e ",
"e e e e e e e e e e e e e e 7 # . . . . v 3.r.r.r.r.r.r.r.r.r.r.r.r.r.r.r.r.3.v . . . . < , / , - .   7 w e e e e e e e ",
"e e e e e e e e e e e e e r 8 5 % $ X . v 3.r.0.9.3.3.3.3.3.3.3.3.3.3.9.0.r.3.v . . . . O 2 , : -   5 9 w e e e e e e e ",
"e e e e e e e e e e e e e e q h s 3 $ . v 3.r.9.2.v v v v v v v v v v 2.9.r.3.v . . . . X O   - ; 7 9 0 e e e e e e e e ",
"e e e e e e e e e e e e e e j l o.s % . v 3.r.3.v . . . . . . . . . . v 3.r.3.v . . . . . . .   7 e e e e e w e e e e e ",
"e e e e e e e e e e e e e e y k l i # . c 4.e.4.c . X + #       + X . c 4.e.4.c X X +         5 9 w e e e e e e e e e e ",
"e e e e e e e e e e e e e e e y r i % . n Y v.Y n . + ; 7 7 7 7 # + . D Y v.Y c . + ; 7 7 7 7 9 0 e e e e e e e e e e e ",
"e e e e e e e e e e e e e e e e e 7   . D ! >.! p .   7 e e e e 7   . D ! >.! D .   7 e e e e e e e e e e e e e e e e e ",
"e e e e e e e e e e e e e e e e e 7   . D ! >.! D .   7 e e e e 7 $ . D ! >.! D .   7 e e e e e e e e e e e e e e e e e "
};
