/* XPM */
static char *result[] = {
/* columns rows colors chars-per-pixel */
"60 60 220 2 ",
"   c #1F1833",
".  c #221B33",
"X  c #261E39",
"o  c #2E282F",
"O  c #2C272F",
"+  c #332E2D",
"@  c #35302D",
"#  c #3D3B2A",
"$  c #3B372A",
"%  c #2A2430",
"&  c #282338",
"*  c #3A2B3A",
"=  c #332639",
"-  c #383539",
";  c #413E2A",
":  c #4D3139",
">  c #423E3E",
",  c #422A37",
"<  c #673E3A",
"1  c #5F611D",
"2  c #72780C",
"3  c #6B6E15",
"4  c #65661F",
"5  c #6B6D1D",
"6  c #67691A",
"7  c #6D7115",
"8  c #6F711A",
"9  c #727615",
"0  c #72751C",
"q  c #75781E",
"w  c #777C17",
"e  c #6C6C12",
"r  c #4D4B26",
"t  c #464328",
"y  c #494829",
"u  c #555424",
"i  c #5C5C23",
"p  c #575729",
"a  c #484735",
"s  c #555535",
"d  c #77473D",
"f  c #6C503B",
"g  c #5F6021",
"h  c #626321",
"j  c #666B20",
"k  c #6A6B22",
"l  c #6F6F29",
"z  c #737422",
"x  c #777A21",
"c  c #797C23",
"v  c #717129",
"b  c #726E2E",
"n  c #4D4D1E",
"m  c #261F43",
"M  c #29234B",
"N  c #292E4E",
"B  c #272547",
"V  c #332B41",
"C  c #392F43",
"Z  c #2E3344",
"A  c #3B3444",
"S  c #383148",
"D  c #2F2A59",
"F  c #2E2855",
"G  c #2E3A5C",
"H  c #2E3459",
"J  c #38365B",
"K  c #312B5E",
"L  c #352F67",
"P  c #373366",
"I  c #3C3778",
"U  c #3D397C",
"Y  c #3A3774",
"T  c #423949",
"R  c #453E53",
"E  c #413D5E",
"W  c #593A40",
"Q  c #413C69",
"!  c #423D7E",
"~  c #3F4746",
"^  c #394B67",
"/  c #3B5576",
"(  c #394E6B",
")  c #444446",
"_  c #4F485B",
"`  c #4A4253",
"'  c #574C58",
"]  c #53514D",
"[  c #6D4E46",
"{  c #654745",
"}  c #75544A",
"|  c #615858",
" . c #715752",
".. c #4A596C",
"X. c #655C6F",
"o. c #6A616C",
"O. c #796C6E",
"+. c #75686A",
"@. c #6E6875",
"#. c #7E7376",
"$. c #6A665D",
"%. c #8C5846",
"&. c #915945",
"*. c #996B54",
"=. c #966B4F",
"-. c #A16B4E",
";. c #A37453",
":. c #AC7B58",
">. c #B17C58",
",. c #9A7A6D",
"<. c #83777A",
"1. c #8A6F6B",
"2. c #A57764",
"3. c #7B8019",
"4. c #7D8027",
"5. c #7F8229",
"6. c #81842B",
"7. c #B58057",
"8. c #B7835B",
"9. c #B58867",
"0. c #8D8C49",
"q. c #433F89",
"w. c #413C80",
"e. c #3C5B83",
"r. c #3E5685",
"t. c #3D4C80",
"y. c #44428B",
"u. c #454183",
"i. c #42558D",
"p. c #494596",
"a. c #4B489D",
"s. c #465797",
"d. c #426A94",
"f. c #426191",
"g. c #446D96",
"h. c #7D7782",
"j. c #746B9D",
"k. c #4D49A1",
"l. c #524EAC",
"z. c #5255AE",
"x. c #5956BC",
"c. c #595BBE",
"v. c #5655B7",
"b. c #4C57A3",
"n. c #5568BB",
"m. c #4C77AC",
"M. c #5863C0",
"N. c #586BC2",
"B. c #5872C3",
"V. c #577DC6",
"C. c #5772C1",
"Z. c #807BB9",
"A. c #4F88B9",
"S. c #4E83B5",
"D. c #5188BC",
"F. c #6985A4",
"G. c #5782C7",
"H. c #578AC9",
"J. c #5687C7",
"K. c #5694CB",
"L. c #5698CC",
"P. c #5B9ACB",
"I. c #5492C5",
"U. c #659DC8",
"Y. c #77A3C4",
"T. c #7EAED3",
"R. c #8C858A",
"E. c #988A88",
"W. c #938C94",
"Q. c #979093",
"!. c #B58F80",
"~. c #A8948B",
"^. c #B89383",
"/. c #AB9692",
"(. c #BEAB9B",
"). c #B6A196",
"_. c #AFA39D",
"`. c #A49CA2",
"'. c #8CA9BD",
"]. c #B6ACAB",
"[. c #A8B3BA",
"{. c #B7AEB2",
"}. c #C09E90",
"|. c #C29D87",
" X c #C8A68D",
".X c #D0AD8F",
"XX c #C4A997",
"oX c #CEB3A6",
"OX c #C6B7AA",
"+X c #C4BDBB",
"@X c #D6BEB1",
"#X c #C5ABA0",
"$X c #D6C3AE",
"%X c #C9C3BC",
"&X c #DECDBC",
"*X c #D6C6B3",
"=X c #8AADCB",
"-X c #AEB9C7",
";X c #8391C4",
":X c #B5C9D5",
">X c #CAC6C4",
",X c #D5CCC3",
"<X c #DDD9D5",
"1X c #D2D2D2",
"2X c #E1CDC0",
"3X c #E4D3C3",
"4X c #E9D6C4",
"5X c #E5D8C9",
"6X c #E8DACB",
"7X c #E1DBD5",
"8X c #EBDDD2",
"9X c #EEE3D5",
"0X c #EAE5DC",
"qX c #F2E7DB",
"wX c #F6EEE2",
"eX c #F8EFE5",
"rX c #F8F1E6",
"tX c #FDF7ED",
"yX c #F4F0E9",
"uX c #CEDBE1",
/* pixels */
"0 0 0 0 0 0 0 0 8 0 q 0 0 0 0 q 0 8 0 0 x 0 0 0 0 0 0 0 0 0 0 0 0 0 0 0 0 0 0 0 0 0 0 0 0 0 0 q 0 0 8 0 0 0 0 0 0 0 0 0 ",
"0 0 0 0 0 0 0 0 0 0 0 0 0 0 0 8 0 q 0 0 8 0 0 0 0 0 0 0 0 0 0 0 0 0 0 0 0 0 0 0 0 0 0 0 0 0 0 7 0 0 0 0 0 0 0 0 0 0 0 0 ",
"0 0 0 0 0 0 0 0 0 0 8 0 0 c c x 0 q 0 5.c x 0 0 0 0 0 0 0 0 0 0 0 0 0 0 0 0 0 0 0 0 0 0 0 0 0 0 0 0 0 0 0 0 0 0 0 0 0 0 ",
"0 0 0 0 0 0 0 0 0 0 0 0 0 x 4.6.0 0 q 4.c q 8 0 0 0 0 0 0 0 0 0 0 0 0 0 0 0 0 0 0 0 q 0 0 0 0 0 0 0 0 0 0 0 0 0 0 0 0 0 ",
"0 0 0 0 0 0 0 0 0 0 0 0 8 0 0 x 0 c x 3 8 0 x 8 0 0 0 0 0 0 0 0 0 0 0 0 0 0 0 0 0 0 0 0 0 0 0 8 0 0 q 0 0 0 0 0 0 0 0 0 ",
"0 0 0 0 0 0 0 0 0 0 0 0 0 0 8 3 0 q x 3 8 0 c 0 0 0 0 0 0 0 0 0 0 0 0 0 0 0 0 0 0 0 8 0 c 4.c 8 0 x x 0 0 0 0 0 0 0 0 0 ",
"0 0 0 0 0 0 0 0 0 0 0 0 0 0 8 8 8 6 3 0 0 0 5 0 0 0 0 0 0 0 0 0 0 0 0 0 0 0 0 0 0 0 0 0 x c 4.x 0 x c q 0 0 0 0 0 0 0 0 ",
"0 0 0 0 0 0 0 0 0 0 q 0 0 0 8 5 k j j k 5 x 0 z 0 0 0 0 0 0 0 0 0 0 0 0 0 0 0 0 8 q 0 0 7 8 q x 0 x x q 0 0 0 0 0 0 0 0 ",
"0 0 0 0 0 0 0 0 0 0 0 0 0 0 4 u y y y u 4 0 0 0 0 0 0 0 0 0 0 0 0 0 0 0 0 0 0 0 0 0 0 0 0 5 z c 8 3 e 7 0 0 0 0 0 0 0 0 ",
"0 0 0 0 0 0 0 0 0 0 0 0 0 0 i # o o o ; i 0 0 0 0 0 0 0 0 0 0 0 0 0 0 0 0 0 0 0 8 0 0 q 0 0 3 3 q 8 8 0 0 0 0 0 0 0 0 0 ",
"0 0 0 0 0 0 0 0 0 0 0 0 0 0 u @ . m m A r h 4 8 0 0 0 0 0 0 0 0 0 0 0 0 0 0 0 0 0 0 0 0 0 0 8 3 0 q 0 0 0 0 0 0 0 0 0 0 ",
"0 0 0 0 0 0 0 0 0 0 0 0 0 0 u @ X F Q Q T y i 4 0 0 0 0 0 0 0 0 0 0 0 0 0 0 0 0 q 0 8 0 0 q q 0 0 0 0 0 0 0 0 0 0 0 0 0 ",
"0 0 0 0 0 0 0 0 0 0 0 0 0 0 u @ m Y q.q.J O ; 4 0 0 0 9 0 0 0 0 0 0 0 0 0 0 0 0 0 0 0 0 0 0 0 0 0 0 0 0 0 0 0 0 0 0 0 0 ",
"0 0 0 0 0 0 0 0 0 0 0 0 0 0 u @ m I l.l.! F > p g h h 1 g g g g 1 1 h 4 5 0 0 0 0 0 0 0 0 0 0 0 0 0 0 0 0 0 0 8 0 0 0 0 ",
"0 0 0 0 0 0 0 0 0 0 0 0 0 0 u @ m I l.l.p.w.E > ; ; ; ; ; ; ; ; ; ; ; u 4 q 0 0 0 0 0 0 0 0 0 q 0 0 0 0 0 0 0 0 0 0 0 0 ",
"0 0 0 0 0 0 0 0 0 0 0 0 0 0 u @ m ! l.x.v.l.! M . % . . % % . % . % . ; g 0 0 0 z z 0 0 0 0 0 0 0 0 0 0 0 0 0 0 0 0 0 0 ",
"0 0 0 0 0 0 0 0 0 0 0 0 0 0 g ; * Q y.k.v.x.q.Y F D F D D D K G G G G ~ s g 6 0 9 q 8 q 0 0 0 0 0 0 0 0 0 0 0 0 0 0 0 0 ",
"0 0 0 0 0 0 0 0 0 0 0 0 0 0 4 i r ) L ! k.x.l.p.q.q.q.q.q.q.i.f.d.d.d...) s =.6 q 8 q 8 0 0 0 0 0 0 0 0 0 0 0 0 0 0 0 0 ",
"0 0 0 0 0 0 0 0 0 0 0 0 0 0 0 0 k t % D q.x.x.x.x.x.x.x.v.c.n.H.K.I.K.d.^ % b e 8 8 0 0 0 0 0 0 0 0 0 0 0 0 0 0 0 0 0 0 ",
"0 0 0 0 0 0 0 0 0 0 0 0 0 0 4 g u > J I a.x.x.x.x.c.N.N.N.N.G.K.L.L.K.m./ ^ ) s p u i 4 5 0 0 0 0 0 0 0 0 0 0 0 0 0 0 0 ",
"0 0 0 0 0 0 0 0 0 0 0 0 0 0 i y - Q q.a.l.x.x.x.c.N.G.G.G.J.H.K.L.L.L.D.m.d...- $ $ # u h 0 0 0 0 0 0 0 0 0 0 0 0 0 0 0 ",
"0 0 0 0 0 0 0 0 0 0 0 0 0 0 u @ X I l.x.x.x.x.x.M.V.K.L.P.L.L.L.L.L.L.K.I.A./ B     . # i 0 0 0 0 0 0 0 0 0 0 0 0 0 0 0 ",
"0 0 0 0 0 0 0 0 0 0 0 0 0 0 u @ m I l.x.x.x.M.N.B.J.K.L.L.L.L.L.K.H.V.V.J.m.s.Y P L P ) a p 4 0 0 0 0 0 0 0 0 0 0 0 0 0 ",
"0 0 0 0 0 0 0 0 0 0 0 0 0 0 u @ m I l.x.x.x.N.V.J.K.L.L.L.L.L.L.H.V.N.N.N.n.z.a.p.p.p.Y A t u 8 0 0 0 0 0 0 0 0 0 0 0 0 ",
"0 0 0 0 0 0 0 0 0 0 0 5 0 5 s @ m ! l.x.x.x.N.G.K.L.L.L.L.L.L.L.H.B.c.c.c.c.c.c.c.c.x.y.H - r g 5 0 0 0 0 0 0 0 0 0 0 0 ",
"0 0 0 0 0 0 0 0 0 0 0 5 g r a E U p.v.x.x.x.N.B.G.H.L.L.L.L.L.L.K.V.B.B.B.B.B.B.B.B.B.g.e./ ~ y r 0 0 0 0 0 0 0 0 0 0 0 ",
"0 0 0 0 0 0 0 0 0 0 0 4 r + J w.k.l.x.x.x.x.c.n.N.J.K.L.L.L.L.L.L.K.H.H.H.H.J.H.H.H.I.S.m.g.( - @ 0 0 0 0 0 0 0 0 0 0 0 ",
"0 0 0 0 0 0 0 0 0 0 0 g ; . K q.l.l.l.l.l.l.l.l.z.n.S.A.A.A.A.A.A.A.A.A.A.A.A.A.A.A.A.A.A.m.( m   0 0 0 0 0 0 0 0 0 0 0 ",
"0 0 0 0 0 0 0 0 0 0 0 g ; . m L ! w.U U ! I ! I U t.e.e.e.e.e.e.e.e.e.e.e.e.e.e.e.e.e.e.e./ H .   0 0 0 0 0 0 0 0 0 0 0 ",
"0 0 0 0 0 0 0 0 0 0 0 g ; . m m m M M m M M B M M N N N N N N N N N N N N N N N N N N N N N X     0 0 0 0 0 0 0 0 0 0 0 ",
"0 0 0 0 0 0 0 0 0 0 0 4 t o % . . % S T : ) S V = S R R ` R A A * * * * * * T T R ` E V X   % o o 0 0 0 0 0 0 0 0 0 0 0 ",
"0 0 0 0 0 0 0 0 0 0 0 5 i r ; o X ]  .Z.Z.W.O.{ { O.R.W.W.W.1. .[ [ [ [ [  .#.R.W.W.W.X.S % @ t r 0 0 0 0 0 0 0 0 0 0 0 ",
"0 0 0 0 0 0 0 0 0 0 q 0 5 5 r + V o.~.OX,X7X).1.=./.3X7X7X5XXX9.;.;.;.;.;.9.).,X7X7X<XW.` % t h 5 0 0 0 0 0 0 0 0 0 0 0 ",
"0 0 0 0 0 0 0 0 0 0 0 0 0 0 u @ V O.(.&X9XrXoX;.&./.+X>X>X%X).9.7.7.7.>.7.9. X+X>X>X+XR.] $ u 5 0 0 0 0 0 0 0 0 0 0 0 0 ",
"0 0 0 0 0 0 0 0 0 0 0 0 0 0 u @ V O.(.&X9XtXoX2.%.1.Z.1.h.h.,.:.7.7.7.7.7.7.,.<.#.h.h.$.s u h 0 0 0 0 0 0 0 0 0 0 0 0 0 ",
"0 0 0 0 0 0 0 0 0 0 0 0 0 q u @ - O.(.&X9XrXoX2.d : * & V S [ ;.7.7.7.7.7.;.} A V V V a h 5 8 0 0 0 0 0 0 0 0 0 0 0 0 0 ",
"0 0 0 0 0 0 0 0 0 0 0 0 0 0 u @ V O.(.&X9XtXoX2.d : .     X { *.7.7.7.7.7.;.{ =     . ; h z 0 0 0 0 0 0 0 0 0 0 0 0 0 0 ",
"0 0 0 0 0 0 0 0 0 0 q q 0 0 r @ V O.(.&X9XyXoX2.d : . . . X { ;.7.7.7.7.7.;.[ =     . ; h z 0 0 0 0 0 0 0 0 0 0 0 0 0 0 ",
"0 0 0 0 0 0 0 0 0 0 0 0 0 0 u @ V O.XX&X9XyXoX2.d : . .   X < -.7.7.7.7.7.;.[ =     . ; i 0 0 0 0 0 0 0 0 0 0 0 0 0 0 0 ",
"0 0 0 0 0 0 0 0 0 0 0 0 0 0 p @ V O.(.&X9XtX2X^.2. .: , , : } -.7.7.7.7.7.:.} : W ' o.| s i j 0 0 0 0 0 0 0 0 0 0 0 0 0 ",
"0 0 0 0 0 0 0 q 0 0 0 0 0 q p @ V O.(.&X9XtX0X3X#X,.d < < f %.;.7.>.8.>.>.>.&.{  .E.].<.] t i 5 0 z 0 z z 0 z 0 0 0 0 0 ",
"0 0 x 0 0 0 0 3 0 q x q 0 0 u @ V O.(.&X9XtXtXtX8X}.&.%.%.&.-.>.8.8.8.8.8.>.-.=.2.@XyX`._ % r 5 x 8 9 9 z 8 8 0 0 0 0 0 ",
"0 0 0 0 0 0 0 0 0 0 0 0 q c u + V +.(.&X9XtXtXtX0X@X^.!.9.^.|..X.X.X.X.X.X.X|.9.#X5XrX`._ o r 5 7 q 2 4.q v 3.9 0 0 0 0 ",
"0 0 0 0 0 0 0 0 0 0 3 8 q q p + - O.(.&X9XtXtXtXeX8X2X&X2X,X3X6X4X4X4X4X4X4X3X3X6XqXtX`._ o r 5 v 0 ].].q z 0 l 0 0 0 0 ",
"0 0 0 0 0 0 8 0 0 0 0 0 0 0 u $ * +.).*X<XyXyXyXtXeXtXtXtXtXtXtXtXtXtXtXtXtXtXtXtXtXyX`._ o r 5 8 ].0.{.7 8 2 z 0 0 0 0 ",
"0 0 0 0 0 0 q x 0 x 0 0 0 7 g r a | O.Q.[.:X1X<X0XwXtXtXtXtXtXtXtXtXtXtXtXtXtXtXtXtXtX`._ o r 5 2 ].].e q z q 7 0 0 0 0 ",
"0 0 0 0 0 q c 6.x 0 0 9 0 q 5 4 i s ) ..F.T.-X+X2X8XtXtXtXtXtXtXtXtXtXtXtXtXtXtXtXtXrX`._ % r 5 v e j w 2 7 z 3.0 0 0 0 ",
"0 0 0 0 0 0 x c c x 0 0 0 0 0 0 4 t % ^ g.L.=X{.%X<XeXeXtXtXtXtXtXtXtXtXtXtXtXtXyX0X<XW.' @ u 0 w 8 z z 9 b 5 8 0 0 0 0 ",
"0 0 0 0 0 0 8 3 x x q 0 0 0 0 0 4 t % G d.L.Y.'.[.>X7X9XwXtXtXtXtXtXtXtXtXtXtXtX<X{.W.+.s n i 0 q 8 q 8 q 0 0 0 0 0 0 0 ",
"0 0 0 0 0 0 0 0 7 8 8 0 0 0 0 0 5 y % G d.L.P.U.;X[.*X5XqXtXtXtXtXtXtXtXtXtXtXtX>XR.` ] p 3 l 8 8 q 8 q 8 q 0 0 0 0 0 0 ",
"0 0 0 0 0 0 0 0 8 8 0 0 0 0 8 j i a Z ( g.L.L.L.U.'.+X1X0XtXtXtXtXtXtXtXtXtXtXtX+X@.. ; h q v 9 q 8 q 8 0 0 0 0 0 0 q 8 ",
"0 0 0 0 0 0 0 0 q 0 q 0 0 0 h u a ^ / g.S.L.L.L.U.Y.'.:XuXtXtXtXtXtXtXtXtXtXtXtX+X@.. # g v q 8 8 q 8 q 0 0 0 0 0 0 0 q ",
"0 0 0 0 0 0 0 0 0 0 0 8 0 0 i # Z / S.A.I.L.L.L.L.P.U.=XuXtXtXtXtXtXtXtXtXtXtXtX+X@.  ; 4 q q q 0 0 0 0 0 0 0 0 q 8 q 8 ",
"0 0 0 0 0 0 0 0 0 0 8 8 4 h a A L f.m.H.H.H.H.H.H.H.H.=X1XqXrXtXtXtXtXtXtXtXtXtX+X@.  # g 9 3 9 0 0 0 0 0 0 0 0 8 q 8 q ",
"0 0 0 0 0 0 0 0 q 0 0 4 p t T Q u.b.n.B.B.B.B.B.B.B.B.;X-X6XqXrXtXtXtXtXtXtXtXtX+X@.. t h v q 0 0 0 0 0 0 0 0 0 q 8 q 8 ",
"0 0 0 q 0 0 0 0 0 0 0 g t % K p.v.v.c.c.c.c.c.c.c.c.M.j.{.*X6XwXtXtXtXtXtXtXtXtX+X@.. # i q l 9 0 0 0 0 0 0 0 0 8 q 8 q ",
"0 0 0 0 0 0 0 0 0 0 0 g ; . F U p.p.p.p.p.p.a.p.p.p.p.j.`.$X5XwXtXtXtXtXtXtXwXqX].o.. # h 0 8 0 0 0 0 0 0 0 0 0 0 0 0 0 ",
"0 0 0 0 0 0 0 0 0 0 q g # . m D L L L L L Y L L L L L X./.$X4XwXtXtXtXtXtXtXqX5X_.o.. ; h 0 0 0 0 0 0 0 0 0 0 0 0 0 0 0 ",
"0 0 0 0 0 0 0 0 0 0 0 g ; .   . X                   m _ E.$X5XyXtXtXtXtXtXrX8X&X~.| . # g 0 8 8 0 0 0 0 0 0 0 0 0 0 0 0 ",
"0 0 0 0 0 0 0 0 0 0 0 g # .   .                       ' E.$X4XyXtXtXtXtXtXrX6X,X~.| . ; g 0 z 8 0 0 0 0 0 0 0 0 0 0 0 0 "
};
