/* XPM */
static char *result[] = {
/* columns rows colors chars-per-pixel */
"60 60 214 2 ",
"   c #1F1833",
".  c #231C33",
"X  c #221D3B",
"o  c #2B262E",
"O  c #2F292F",
"+  c #322D2E",
"@  c #35312D",
"#  c #39362C",
"$  c #3D3A2B",
"%  c #2A2530",
"&  c #2A2338",
"*  c #352635",
"=  c #393838",
"-  c #413E2A",
";  c #482F38",
":  c #49373C",
">  c #59383B",
",  c #3E4039",
"<  c #72780C",
"1  c #66671E",
"2  c #67681F",
"3  c #6B6D1E",
"4  c #696B15",
"5  c #6E711B",
"6  c #6D7115",
"7  c #727614",
"8  c #72751C",
"9  c #75791E",
"0  c #767B17",
"q  c #65680D",
"w  c #494727",
"e  c #4D4B26",
"r  c #44422A",
"t  c #49462A",
"y  c #4A4928",
"u  c #504F25",
"i  c #545424",
"p  c #5C5C22",
"a  c #585827",
"s  c #4B4938",
"d  c #504D36",
"f  c #57533B",
"g  c #4E502F",
"h  c #77463C",
"j  c #5F6021",
"k  c #626321",
"l  c #6A6B22",
"z  c #686927",
"x  c #6F7123",
"c  c #727423",
"v  c #777A21",
"b  c #797C24",
"n  c #717129",
"m  c #74722D",
"M  c #251E41",
"N  c #272447",
"B  c #342D45",
"V  c #3C3649",
"C  c #2D2753",
"Z  c #312C5E",
"A  c #383751",
"S  c #332D63",
"D  c #353169",
"F  c #38376A",
"G  c #3C3879",
"H  c #423C49",
"J  c #463A48",
"K  c #443D51",
"L  c #593D43",
"P  c #423D6A",
"I  c #433F73",
"U  c #3A4754",
"Y  c #34496E",
"T  c #334568",
"R  c #374B73",
"E  c #3C536E",
"W  c #454746",
"Q  c #5D4444",
"!  c #4D4453",
"~  c #524B5C",
"^  c #584D59",
"/  c #544A54",
"(  c #7A4D42",
")  c #72524A",
"_  c #6B6459",
"`  c #5A5364",
"'  c #4D587B",
"]  c #665C67",
"[  c #7B7378",
"{  c #6E6A61",
"}  c #875D4B",
"|  c #8D5F4F",
" . c #95694F",
".. c #9A6756",
"X. c #996A59",
"o. c #896554",
"O. c #A06F57",
"+. c #A97854",
"@. c #A87351",
"#. c #A26E4F",
"$. c #846966",
"%. c #8A7A78",
"&. c #927C76",
"*. c #996E62",
"=. c #A77963",
"-. c #7D8027",
";. c #7B8019",
":. c #B58057",
">. c #B28A73",
",. c #8F8763",
"<. c #C29571",
"1. c #423E87",
"2. c #3D5182",
"3. c #45418C",
"4. c #4C478F",
"5. c #484495",
"6. c #4C4B9F",
"7. c #484594",
"8. c #465596",
"9. c #456998",
"0. c #45709D",
"q. c #426386",
"w. c #7F7883",
"e. c #7F7680",
"r. c #796F86",
"t. c #4D4AA1",
"y. c #514DA9",
"u. c #5552B3",
"i. c #5754B8",
"p. c #5956BD",
"a. c #595ABE",
"s. c #525FB2",
"d. c #4D59A5",
"f. c #4673A0",
"g. c #4A79A9",
"h. c #5763BD",
"j. c #4C6FAB",
"k. c #6A6AB4",
"l. c #5864C0",
"z. c #586BC2",
"x. c #5873C3",
"c. c #577EC6",
"v. c #5777C5",
"b. c #6176C3",
"n. c #847C82",
"m. c #4E85B5",
"M. c #518DBF",
"N. c #7991BE",
"B. c #5781C7",
"V. c #5786C8",
"C. c #578DC9",
"Z. c #5D89C8",
"A. c #5695CB",
"S. c #5698CC",
"D. c #5A97C9",
"F. c #699CC6",
"G. c #79A3C4",
"H. c #6FA0C5",
"J. c #9A8A83",
"K. c #938686",
"L. c #8E8790",
"P. c #958C94",
"I. c #90898C",
"U. c #AB978D",
"Y. c #A1999E",
"T. c #B69586",
"R. c #8C87B0",
"E. c #A29CA1",
"W. c #A49DBF",
"Q. c #93AABB",
"!. c #B6ABA9",
"~. c #A7B3BA",
"^. c #B6B5B6",
"/. c #B4AAB3",
"(. c #BAA89B",
"). c #C3A495",
"_. c #C4A699",
"`. c #C8AC9B",
"'. c #D3B59F",
"]. c #C8B6A8",
"[. c #D8BBA2",
"{. c #C7BDBA",
"}. c #D2BCB0",
"|. c #D5C2AC",
" X c #CAC3BD",
".X c #D9C8B8",
"XX c #918CC9",
"oX c #93ADCB",
"OX c #B7B8CB",
"+X c #C7BEC4",
"@X c #AEC5D4",
"#X c #C7C1C0",
"$X c #CACBC8",
"%X c #DDD2C8",
"&X c #DFD9D4",
"*X c #D8D1DA",
"=X c #D1CBCC",
"-X c #E4D6C5",
";X c #E6D9CC",
":X c #E9DBCD",
">X c #E1D5CE",
",X c #E9DCD1",
"<X c #E2CFC3",
"1X c #EDE1D4",
"2X c #EAE4DD",
"3X c #F0E5D9",
"4X c #F3EADE",
"5X c #F0E2D3",
"6X c #D8DAE4",
"7X c #DBE3E4",
"8X c #F4EDE3",
"9X c #F9F1E6",
"0X c #FDF7ED",
"qX c #E9E5E3",
/* pixels */
"8 8 8 8 8 8 8 8 5 7 c c 8 3 3 l 2 1 3 5 v 8 8 c 8 8 8 8 8 8 8 8 8 8 8 8 8 8 8 8 8 8 8 8 5 5 8 8 8 8 5 8 8 8 8 8 8 8 8 8 ",
"8 8 8 8 8 8 8 8 c 8 8 7 l p u w e u p 3 7 8 8 6 8 8 8 8 8 8 8 8 8 8 8 8 8 8 8 8 8 8 8 8 ;.8 8 5 8 8 8 8 8 8 8 8 8 8 8 8 ",
"8 8 8 8 8 8 8 8 8 8 8 8 k g @ + * @ y n b v 8 8 8 8 8 8 8 8 8 8 8 8 8 8 8 8 8 8 8 8 8 8 8 8 8 8 8 8 8 8 8 8 8 8 8 8 8 8 ",
"8 8 8 8 8 8 8 8 7 8 8 8 k - . X X M s a n c 6 8 8 8 8 8 8 8 8 8 8 8 8 8 8 8 8 8 8 8 8 8 5 8 8 8 8 8 8 8 8 8 8 8 8 8 8 8 ",
"8 8 8 8 8 8 8 8 8 8 8 8 j - . N Z D K s e p c 6 8 8 8 8 8 8 8 8 8 8 8 8 8 8 8 8 8 8 8 5 8 ;.c 3 8 8 ;.8 8 8 8 8 8 8 8 8 ",
"8 8 8 8 8 8 8 8 8 8 8 8 j - . C I 5.P B # i n 8 8 8 8 8 8 8 8 8 8 8 8 8 8 8 8 8 8 8 5 8 -.-.;.5 8 c c c 8 8 8 8 8 8 8 8 ",
"8 8 8 8 8 8 8 8 8 8 8 8 1 - . Z 1.p.1.S & t j x 3 3 3 3 3 3 3 x c 8 8 8 8 8 8 8 8 8 8 8 c -.-.c 8 ;.c 8 8 8 8 8 8 8 8 8 ",
"8 8 8 8 8 8 8 8 8 8 8 7 p - . Z 5.p.t.G F W t u u u u u u u u i j 5 8 8 8 8 8 8 8 8 ;.3 4 5 8 ;.5 -.-.;.8 8 8 8 8 8 8 8 ",
"8 8 8 8 8 8 8 8 8 8 8 8 p - . Z 1.p.y.6.1.P = + @ @ @ @ @ * @ - p 4 7 8 8 8 8 8 8 8 8 5 6 5 v b 5 4 q 5 8 8 8 8 8 8 8 8 ",
"8 8 8 8 8 8 8 8 8 8 8 8 1 - . Z 5.u.i.i.y.G C X X X X M X X & & , 1 5 3 5 5 5 8 8 8 9 9 8 5 3 4 8 5 5 8 8 8 8 8 8 8 8 8 ",
"8 8 8 8 8 8 8 8 8 8 8 8 1 i - U P 1.6.u.u.3.G S D D D D D F T T U i u i u j 2 8 8 8 8 8 8 8 5 6 8 8 ;.5 8 8 8 8 8 8 8 8 ",
"8 8 8 8 8 8 8 8 8 8 8 8 3 1 p d J S 1.y.i.y.6.5.5.5.1.5.7.8.9.9.E , @ @ @ y j 8 9 8 5 8 8 8 9 8 8 8 c 8 8 8 8 8 8 8 8 8 ",
"8 8 8 8 8 8 8 8 8 8 8 8 8 8 5 i # M D t.p.p.p.p.p.a.a.h.a.x.C.m.2.N X X & = i 5 8 8 8 8 8 8 8 8 8 8 8 8 8 8 8 8 8 8 8 8 ",
"8 8 8 8 8 8 8 8 8 8 8 8 3 j i s A D 1.y.p.p.p.a.h.z.x.h.x.B.C.C.0.R Y Y T U s i j 3 8 8 8 8 8 8 8 8 8 8 8 8 8 5 8 8 8 8 ",
"8 8 8 8 8 8 8 8 8 8 8 8 k e $ V I 1.y.u.p.p.p.l.x.B.B.B.B.C.A.A.m.f.0.0.0.' W # u k 8 8 8 8 9 9 8 8 8 8 8 8 8 8 8 8 8 8 ",
"8 8 8 8 8 8 8 8 8 8 8 8 k r . Z 5.p.p.p.p.p.p.l.c.A.S.S.S.S.S.A.S.S.S.S.S.0.T X - j 8 8 8 8 8 5 8 8 8 8 8 8 8 8 8 8 8 8 ",
"8 8 8 8 8 8 8 8 8 8 8 8 k u $ V I 1.y.u.a.l.z.v.V.A.S.S.S.S.S.S.C.B.B.V.B.j.2.Z V s i 1 5 8 8 8 8 8 8 8 8 8 8 8 8 8 8 8 ",
"8 8 8 8 8 8 8 8 8 8 8 8 3 k p s K S 1.y.a.z.c.V.C.S.S.S.S.S.S.A.B.x.z.z.z.s.6.3.~ V , i 3 8 8 8 8 8 8 8 8 8 8 8 8 8 8 8 ",
"8 8 8 8 8 8 8 8 8 8 8 8 8 8 8 i @ X D t.a.v.C.S.S.S.S.S.S.S.S.C.v.l.p.p.p.p.p.u.2.C o e 3 8 8 8 8 8 8 8 8 8 8 8 8 8 8 8 ",
"8 8 8 8 8 8 8 8 8 8 8 8 5 k p s J S 1.y.h.z.c.V.C.S.S.S.S.S.S.A.B.x.z.z.z.z.z.h.8.R U , g j 2 5 8 8 8 8 8 8 8 8 8 8 8 8 ",
"8 8 8 8 8 8 8 8 8 8 8 8 2 i - J P 1.t.u.p.h.z.v.V.A.S.S.S.S.S.A.C.B.B.B.B.B.c.B.j.j.q.E , w p 6 8 8 8 8 8 8 8 8 8 8 8 8 ",
"8 8 8 8 8 8 8 8 8 8 8 8 k - . Z 5.p.p.p.p.p.p.z.c.A.S.S.S.S.S.S.S.A.A.A.A.A.A.S.A.A.m.E N @ u 6 8 8 8 8 8 8 8 8 8 8 8 8 ",
"8 8 8 8 8 8 8 8 8 5 k j y @ . C G 5.5.5.5.1.5.6.d.f.f.f.f.f.f.f.f.f.f.f.f.f.f.f.f.f.9.Y N o , p a p 8 8 8 8 8 8 8 8 8 8 ",
"8 8 8 8 8 8 8 8 8 3 a t @ %   M C D D S D D D F F Y Y Y Y Y Y Y Y Y Y Y Y Y R R Y Y T N X o + $ - - 8 8 8 8 8 8 8 8 8 8 ",
"8 8 8 8 8 8 8 8 8 l e O . .   . X M X M M     M X X   N   X X X & X X   N   &   X & M     . . . . . 8 8 8 8 8 8 8 8 8 8 ",
"8 8 8 8 8 8 8 8 8 3 u - + . . & V L ~ ` P K B J ! ` ` ` ` ~ J J : : : : : ! ~ ` ` ` ~ V X . O + @ @ 8 8 8 8 8 8 8 8 8 8 ",
"8 8 8 8 8 8 8 8 8 l k i - + . J ] %.n.E.U.$.) ) %.Y.E.E.E.,.o.) } ) ) ) ) $.J.E.E.E.L.] B o $ e u u 8 8 8 8 8 8 8 8 8 8 ",
"8 8 8 8 8 8 8 8 8 8 5 5 p - . / &.]..X>X>XT.| *.(.,XqX2X2X|.>.+.+.+.+.+.+.>..X4XqXqX=Xn.V O y 3 3 3 8 8 8 8 8 8 8 8 8 8 ",
"8 8 8 8 8 8 8 8 8 8 8 8 k - . ^ K.|.-X4X1X).....U.{.+X+X+X(.>.+.:.:.:.:.+.<.`.#X#X#X!.[ s - i 3 8 8 8 8 8 8 8 8 8 8 8 8 ",
"8 8 8 8 8 8 8 8 8 8 8 8 j - . ^ J.}.-X4X1X)...} $.[ e.n.n.&.+.:.:.:.:.:.:.,.%.w.w.w.[ _ f i 1 8 8 8 8 8 8 8 8 8 8 8 8 8 ",
"8 8 8 8 8 8 8 8 8 8 8 8 j - . ^ J.|.-X4X1X)...( L B B B V ) O.:.:.:.:.:.:.X.Q V B B = d k l 8 8 8 8 8 8 8 8 8 8 8 8 8 8 ",
"8 8 8 8 8 8 8 8 8 8 8 8 j - . ^ J.|.-X4X,X)...h ; . . . . Q  .:.:.:.:.:.:.| J       % w 1 8 8 8 8 8 8 8 8 8 8 8 8 8 8 8 ",
"8 8 8 8 8 8 8 8 8 8 9 8 j - . ^ J.|.-X4X5X)...h ;         L ..:.:.:.:.:.:. .>       % w 1 8 8 8 8 8 8 8 8 8 8 8 8 8 8 8 ",
"8 8 8 8 8 8 8 8 8 8 8 8 j - . ^ J.|.-X4X1X)...h ; .       L ..+.:.:.:.:.+.} : .     o e l 5 8 8 8 8 8 8 8 8 8 8 8 8 8 8 ",
"8 8 8 8 8 8 8 8 8 8 8 8 j $ . ^ J.|.-X4X3X].=.| Q * * * * h ..:.:.:.:.:.:. .h * B K / f j k 3 8 8 8 8 8 8 8 8 8 8 8 8 8 ",
"8 8 8 8 8 8 8 8 8 8 8 8 j r . ^ J.|.-X4X8X<X}.T.$.> ; > > } #.:.:.:.:.:.+.| ( > ] %.n.{ d u k 5 8 8 8 8 8 8 8 8 8 8 8 8 ",
"8 8 8 8 8 8 8 8 8 8 8 8 1 r . ^ J.|.-X4X9X8X5X}.=.} h h ( ..@.:.:.:.:.:.:.@.| h >.].{.n.J # i 5 8 8 8 8 8 8 8 8 8 8 8 8 ",
"8 8 8 8 8 8 8 8 8 8 9 8 p $ . ^ J.|.-X4X0X0X0X>X_.=.*...@.=.<.<.<.<.<.<.<.<.=.=.!.>X&XL.K + u 5 8 8 8 8 8 8 8 8 8 8 8 8 ",
"8 8 8 8 8 8 8 8 8 8 8 8 q , . ^ J.|.<X8X0X0X0X3X.X_._.).)._.'.[.[.[.[.[.'.'._.).}.3X&XL.J + u x 8 8 8 8 8 8 8 8 8 8 8 8 ",
"8 8 8 8 8 8 8 8 8 8 8 8 p $ . ^ J.}.-X8X0X0X0X9X3X,X,X,X:X,X5X5X5X5X5X5X5X:X5X:X3X9X&XL.V + u 3 8 8 8 8 8 8 8 8 8 8 8 8 ",
"8 8 8 8 8 8 8 c 8 8 8 7 k y O ^ %.(.{.*XqXqX8X9X0X0X0X0X0X0X0X0X0X0X0X0X0X0X0X0X0X0X&XL.A + u 7 8 c 8 c c 8 c 8 8 8 8 8 ",
"8 8 9 8 8 8 8 7 8 9 v v l i y f _ [ L.W.OX=X>X1X8X0X0X0X0X0X0X0X0X0X0X0X0X0X0X0X0X0X,XL.A + u 5 c 6 7 0 v 6 7 8 8 8 8 8 ",
"8 8 8 8 8 8 8 8 8 8 8 8 c n k i Q K ' k.XXW. X<X5X0X0X0X0X0X0X0X0X0X0X0X0X0X0X0X0X0X*XL.V + u x 7 c < -.8 n 0 8 8 8 8 8 ",
"8 8 8 8 8 8 8 8 8 7 3 6 9 v 9 i - X F 8.a.R.].+X;X8X9X0X0X0X0X0X0X0X0X0X0X0X0X0X8X2X#Xn.J # i 5 n 7 !.!.b c 8 n 8 8 8 8 ",
"8 8 8 8 8 8 8 8 8 8 c 8 6 5 8 a #   T d.B.H.Q.~.$X:X4X8X0X0X0X0X0X0X0X0X0X0X0X0X=X/.I.{ d u j 8 7 !.,.^.6 7 < 8 8 8 8 8 ",
"8 8 8 8 8 8 8 v 8 9 8 8 7 5 8 a # X Y j.Z.D.H.Q.~..X-X4X0X0X0X0X0X0X0X0X0X0X0X8X/.[ / f a z 3 8 < /.(.q 8 c v 6 8 8 8 8 ",
"8 8 8 8 8 8 b -.v 8 8 7 8 8 8 i # X R 0.D.D.S.H.Q.]..X2X9X9X0X0X0X0X0X0X0X0X0X8XE.~ % w k 8 8 8 n 4 l 7 7 6 c 0 8 8 8 8 ",
"8 8 8 8 8 8 v -.b v 8 8 8 8 8 p $ X R m.S.D.S.H.G.Q.#X$X1X4X9X0X0X0X0X0X0X0X0X8XE.~ o w l 8 8 8 0 7 c c 7 m c 8 8 8 8 8 ",
"8 8 8 9 8 8 5 6 v 9 8 8 8 8 8 a # . R g.S.S.S.S.F.H.oX^.<X:X8X0X0X0X0X0X0X0X0X0XE.~ % r n < x 7 8 8 8 8 8 8 8 8 8 8 8 8 ",
"8 8 8 8 8 8 5 7 5 7 8 8 8 8 7 a @ & Y g.S.S.S.S.S.S.G.~.|.-X4X0X0X0X0X0X0X0X0X8XE.~ % t j < n 8 8 8 8 8 8 8 8 8 8 8 8 8 ",
"8 8 8 8 8 8 8 8 5 5 8 8 8 8 8 a # X R g.S.S.S.S.S.S.F.oX~.$XqX0X0X0X0X0X0X0X0X8XE.~ o t l 8 c 8 8 8 8 8 8 8 8 8 8 8 8 8 ",
"8 8 8 8 8 8 8 c 9 8 8 8 8 8 8 a #   R m.S.S.S.S.A.A.F.H.G.@X7X0X0X0X0X0X0X0X0X8XE.~ % w k x 9 7 8 8 8 8 8 8 8 8 8 8 8 8 ",
"8 8 8 8 8 8 8 8 8 8 8 5 5 5 x i # N R g.S.A.A.A.D.A.A.A.S.@X6X0X0X0X0X0X0X0X0XqXY.~ o w 4 9 9 c 8 8 8 8 8 8 8 8 8 8 8 8 ",
"8 8 8 8 8 8 8 8 5 8 8 8 3 j i s A D 8.j.B.B.c.c.c.c.c.c.Z.oX6X0X0X0X0X0X0X9X4X&XP./ % w l 5 6 7 8 8 8 8 8 8 8 8 8 8 8 8 ",
"8 8 8 8 8 8 8 8 v 8 8 8 k u # V I 6.d.h.z.h.h.z.l.l.z.l.b.oX6X0X0X0X0X0X0X4X;X.XK.K B w z x 8 8 8 8 8 8 8 8 8 8 8 8 8 8 ",
"8 8 8 8 8 8 8 8 8 8 8 5 j r . Z 1.i.i.i.i.i.i.i.p.p.p.p.a.XX*X0X0X0X0X0X0X1X.X].%.K & w 1 9 n 7 8 8 8 8 8 8 8 8 8 8 8 8 ",
"8 8 8 8 8 8 8 8 8 8 8 8 j - . C G 1.1.1.1.1.1.1.1.1.1.1.4.R.{.5X8X0X0X0X0X%X!.,.` B % r l 7 8 8 8 8 8 8 8 8 8 8 8 8 8 8 ",
"8 8 8 8 8 8 8 8 8 8 8 8 j - . M C Z S S Z Z S S S S S S D r.!.-X5X9X0X0X0X XI.! K & o w k 8 8 8 8 8 8 8 8 8 8 8 8 8 8 8 ",
"8 8 8 8 8 8 8 8 8 8 8 8 j - .       .               .   & ] U.|.;X9X0X0X0X^.]       % w l 8 8 8 8 8 8 8 8 8 8 8 8 8 8 8 ",
"8 8 8 8 8 8 8 8 8 8 8 8 j - . .                         X ] U..X:X9X0X0X0X^.]     . % w k 7 8 8 8 8 8 8 8 8 8 8 8 8 8 8 "
};
