/* XPM */
static char *result[] = {
/* columns rows colors chars-per-pixel */
"60 60 211 2 ",
"   c #1F1833",
".  c #221B35",
"X  c #221C39",
"o  c #2B1E34",
"O  c #2F2A2E",
"+  c #2C272F",
"@  c #312D2E",
"#  c #3B362B",
"$  c #3C392C",
"%  c #36322C",
"&  c #262031",
"*  c #2C2334",
"=  c #2B243D",
"-  c #342737",
";  c #393532",
":  c #413E2A",
">  c #44363B",
",  c #56363A",
"<  c #613B3A",
"1  c #5A591D",
"2  c #534A16",
"3  c #6B6E15",
"4  c #64661F",
"5  c #666A1F",
"6  c #6B6D1D",
"7  c #676A12",
"8  c #6D7116",
"9  c #6E711B",
"0  c #727614",
"q  c #72751C",
"w  c #75781E",
"e  c #787919",
"r  c #6E740C",
"t  c #4D4C26",
"y  c #44422A",
"u  c #484727",
"i  c #514E26",
"p  c #504E28",
"a  c #545325",
"s  c #5B5B23",
"d  c #58572B",
"f  c #494839",
"g  c #55513C",
"h  c #544838",
"j  c #7B483D",
"k  c #6D5F36",
"l  c #5F6022",
"z  c #626321",
"x  c #686924",
"c  c #737422",
"v  c #777A21",
"b  c #797C23",
"n  c #717129",
"m  c #776C32",
"M  c #251E41",
"N  c #29234B",
"B  c #262545",
"V  c #342C42",
"C  c #373047",
"Z  c #3B364A",
"A  c #2D2755",
"S  c #312C5C",
"D  c #2C3556",
"F  c #2D395B",
"G  c #3B3856",
"H  c #342E64",
"J  c #37316A",
"K  c #333363",
"L  c #3A3573",
"P  c #3E397C",
"I  c #40394B",
"U  c #453E53",
"Y  c #413D5D",
"T  c #423E74",
"R  c #3D4853",
"E  c #334669",
"W  c #3A5477",
"Q  c #474547",
"!  c #5B4345",
"~  c #4A4254",
"^  c #594F58",
"/  c #654743",
"(  c #7A5649",
")  c #6A5557",
"_  c #6C5051",
"`  c #6C6254",
"'  c #44407D",
"]  c #4E516E",
"[  c #685C63",
"{  c #605969",
"}  c #726A68",
"|  c #756C75",
" . c #756C75",
".. c #894F3E",
"X. c #88533B",
"o. c #8B5945",
"O. c #96694E",
"+. c #966A50",
"@. c #9E6E5E",
"#. c #936F55",
"$. c #B37F57",
"%. c #A67849",
"&. c #867978",
"*. c #987B75",
"=. c #967168",
"-. c #A47764",
";. c #7E8128",
":. c #7B8019",
">. c #9A8E35",
",. c #B58057",
"<. c #B58158",
"1. c #B39745",
"2. c #92837F",
"3. c #B38C7D",
"4. c #B08972",
"5. c #8D8C49",
"6. c #CBAB48",
"7. c #C49976",
"8. c #3F3A80",
"9. c #403C82",
"0. c #433F89",
"q. c #3E5987",
"w. c #3F4F87",
"e. c #3F618B",
"r. c #45408D",
"t. c #434684",
"y. c #474393",
"u. c #4C489F",
"i. c #494697",
"p. c #4A5596",
"a. c #436C98",
"s. c #45719D",
"d. c #476587",
"f. c #7D7588",
"g. c #4E4BA3",
"h. c #524EAB",
"j. c #5350AF",
"k. c #5551B2",
"l. c #5754B8",
"z. c #5956BD",
"x. c #595ABE",
"c. c #4E53A4",
"v. c #4A79AB",
"b. c #5565B9",
"n. c #4F71B2",
"m. c #7270B7",
"M. c #5866C1",
"N. c #586DC2",
"B. c #5872C3",
"V. c #577DC6",
"C. c #837C86",
"Z. c #837DBF",
"A. c #518DBF",
"S. c #5282BC",
"D. c #4D84B4",
"F. c #7990BE",
"G. c #5786C8",
"H. c #578BC9",
"J. c #5686C6",
"K. c #5695CB",
"L. c #5698CC",
"P. c #5996C7",
"I. c #73A1C4",
"U. c #639CC8",
"Y. c #8D878B",
"T. c #938D95",
"R. c #989299",
"E. c #9F989E",
"W. c #9C8A86",
"Q. c #AB9A8F",
"!. c #B89384",
"~. c #B3A39A",
"^. c #9391B1",
"/. c #8DAABD",
"(. c #B5ABAA",
"). c #B7B5B2",
"_. c #B7AEB4",
"`. c #A89AB1",
"'. c #C6A99B",
"]. c #C4AC97",
"[. c #C9B4A8",
"{. c #D4BAA6",
"}. c #C2BCBB",
"|. c #CCB7AD",
" X c #C19F91",
".X c #DBC1A9",
"XX c #D9C7B3",
"oX c #DECBBD",
"OX c #D9C5B6",
"+X c #8F8AC9",
"@X c #8EB0CA",
"#X c #B4B1C6",
"$X c #B0C7D5",
"%X c #CEC9C5",
"&X c #CCC8C5",
"*X c #D3C9C5",
"=X c #DFD9D4",
"-X c #D8D5D7",
";X c #D1CAD2",
":X c #E9DCCD",
">X c #E4D6C6",
",X c #E8DED4",
"<X c #EEE3D6",
"1X c #EBE5DE",
"2X c #F1E6DA",
"3X c #F4E9DD",
"4X c #DEE3E3",
"5X c #F7EEE3",
"6X c #F9F1E6",
"7X c #FDF7ED",
"8X c #E9E7E0",
/* pixels */
"q q q q q q q q 8 q w q q q q w q 9 q q v q q w q q q q q q q q q q q q q q q q q q q q q q q q q q q 9 q q q q q q q q ",
"q q q q q q q q w q q q q q 9 3 q w q q q q q 9 q q q q q q q q q q q q q q q q q q q q q q q 8 q q q q q q q q q q q q ",
"q q q q q q q q q q 9 q q v v q q q w ;.b v q w q q q q q q q q q q q q q q q q q q q q q q q q q q q q q q q q q q q q ",
"q q q q q q q q 9 q w q q v >.;.q q w ;.v w 8 q q q q q q q q q q q q q q q q q 9 q w q q q q w q q q q q q q q q q q q ",
"q q q q q q q q q w q q 9 q w v q ;.b 8 8 9 w 9 q q q q q q q q q q q q q q q q q w q q q w w 9 q q w q q q q q q q q q ",
"q q q q q q q q q q 9 q q 9 8 8 q q w 3 9 q b q q q q q q q q q q q q q q q q q q q 3 q b b v q q w v w q q q q q q q q ",
"q q q q q q q q w q q q w 9 4 1 s 1 l 5 q 9 9 c q q q q q q q q q q q q q q q q q q q q v b b v q v b w q q q q q q q q ",
"q q q q q q q q 9 q w q 9 4 i y y : u s 9 c c q q q q q q q q q q q q q q q q q 9 q w q 3 q w v q v w w q q q q q q q q ",
"q q q q q q q q q q q q q s $ o o . O t 6 q q q q q q q q q q q q q q q q q q q q w q q 8 9 c b q 7 7 9 q q q q q q q q ",
"q q q q q q q q q q q q q s # . M A C f d 4 6 q q q q q q q q q q q q q q q q q 9 w q w q 8 9 3 q q 8 q q q q q q q q q ",
"q q q q q q q q q q q q q s #   A L T U $ p z q q q q q q q q q q q q q q q q q q q q q q q 9 8 q w w q q 0 q q q q q q ",
"q q q q q q q q q q q q q s # X J i.u.L B # a q q q q q q q q q q q q q q q q q w q 9 q q q w w q q q q q q q q q q q q ",
"q q q q q q q q q q q q q s # X J u.h.0.H Z f s s s s 5 9 q q q q q q q q q q q q q q q q w q 9 q q q q q q q q q q q q ",
"q q q q q q q q q q q q q s #   J g.k.g.r.T I : $ $ u 1 6 q q q q q q q q q q q q q q q q q q q q q q q q q q 9 q q q q ",
"q q q q q q q q q q q q q s # X J g.z.l.l.y.S . &   O u 5 9 q q q q q q q q q q c q q q q q w w q q q q q q q q q q q q ",
"q q q q q q q q q q q q q z u # G T i.h.l.g.9.S S S S Q a s s s 4 6 q q q q q q c q q q q q q 9 q q q q q q q q q q q q ",
"q q q q q q q q q q q q w x s a Q G L y.l.j.g.0.0.0.9.Y > # # $ i %.1.X.:.:.q w q q q q q q q q q q q q q q q q q q q q ",
"q q q q q q q q q q q q q q q 9 i O N P j.z.l.l.z.z.h.P M . . . p n %.1.:.6.6.9 q q q q q q q q q q q q q q q q q q q q ",
"q q q q q q q q q q q q q q q 9 i @ N P k.z.z.z.z.z.k.0.J D K E R ` m 2 >.X.1.r q q q q q q q q q q q q q q q q q q q q ",
"q q q q q q q q q q q q q q q 9 i @ M P k.z.z.z.z.z.l.h.y.p.p.a.W R ; ; y d 2 :.q q q q q q q q q q q q q q q q q q q q ",
"q q q q q q q q q q q q q q q q i O B T j.z.z.z.z.z.z.z.z.M.V.K.e.E     X O a 5 9 q q q q q q q q q q q q q q q q q q q ",
"q q q q q q q q q q q q q x l i Q G L y.k.z.z.z.x.M.N.N.N.V.G.L.v.W E E E R f g l 6 q q q q q q q q q q q q q q q q q q ",
"q q q q q q q q q q q q q z u ; G ' i.h.l.z.z.z.N.V.G.G.G.H.K.K.A.D.v.e.e.e.R ; t l q q q q q q w 8 q q q q q q q q q q ",
"q q q q q q q q q q q q 9 s : X J i.l.z.z.z.z.x.B.G.L.L.K.L.L.L.L.L.L.L.L.D.W X ; s 9 9 q q q q q w q q q q q q q q q q ",
"q q q q q q q q q q q q q z i : G P y.g.l.x.M.B.V.H.L.L.L.L.L.L.H.G.J.J.V.n.p.J R f a l 9 q w 9 q q q q q q q q q q q q ",
"q q q q q q q q q q q q w 6 z s f Z H y.k.M.B.G.H.K.L.L.L.L.L.L.J.B.M.M.b.x.c.i.T Z $ i x q q w q q q q q q q q q q q q ",
"q q q q q q q q q q q q q q 9 6 i @ N 8.j.M.V.K.K.L.L.L.L.L.L.L.J.B.x.x.x.x.x.x.y.K * y l 9 9 9 q q q q q q q q q q q q ",
"q q q q q q q q q q q q q 5 s p Q G P y.k.M.B.V.H.K.L.L.L.L.L.L.J.V.B.B.B.B.B.B.c.q.W R p a 5 9 q q q q q q q q q q q q ",
"q q q q q q q q q q q q q z u @ G t.u.h.l.x.M.M.V.H.L.L.L.L.L.L.K.H.J.J.H.J.H.H.A.v.s.W R : 1 9 q q q q q q q q q q q q ",
"q q q q q q q q q q q 6 x a % . J i.k.k.k.k.k.k.b.v.A.K.J.A.A.A.A.A.H.A.A.A.A.A.A.A.D.W B O u 5 3 q q q q q q q q q q q ",
"q q q q q q q q q q 6 l a : O . A J 9.9.8.8.8.8.w.q.e.e.e.e.e.e.e.e.e.e.e.e.e.e.e.e.e.E B & # t t q q q 9 q q q q q q q ",
"q q q q q q q q q q 6 i % + . . M N A A A A A A A D D D D D D D D D D D D D D D D D D =   . * @ @ q q q w q q q q q q q ",
"q q q q q q q q 0 w z u @ o . . o B V C C V o o - V V C C V - - = = * - - - C C C C V B .   . & & w w q q q q q q q q q ",
"q q q q q q q q q w 6 s u % + . Z [ } | C.| ^ , )  .C.C.C.| ) / / / / / / _ } C.C.C.f.^ V o % y y 9 8 w q q q q q q q q ",
"q q q q q q q q q q 6 6 4 t @ o ^ &.~.[.OX(.=.j =.(.;X&X&X[.!.@.+.+.+.+.O.-.~.&X%X%X}.f.Z + y 1 l w q q q q q q q q q q ",
"q q q q q q q q q q q q q s # . [ Q.XX:X6X*X3...4.|.-X,X=XXX X<.$.$.$.$.$.7.'.-X=X=X*XY.~ % a 9 q q q q q q q q q q q q ",
"q q q q q q q q q q q q q s # . [ Q.OX:X6X*X3...=.C.W.T.T.W.*.<.$.$.,.,.,.<.4.T.T.T.Y.} g i l 9 q q q q q q q q q q q q ",
"q q q q q q q q q q q q q s # X [ Q.XX:X6XOX3...( U U U Y _ o.$.<.<.,.,.<.@.` ~ ~ ~ Q g l x 6 9 q q q q q q q q q q q q ",
"q q q q q q q q q q q w 9 s # & [ Q.OX:X6XoX3...< -     . > o.$.$.$.,.,.<.+.! .     & y 4 w w 9 0 q q q q q q q q q q q ",
"q q q q q q q q q q q w q s ; & ) Q.OX:X6XoX3...< -       > ( $.<.<.,.,.<.+.! .     & y z q q w q q q q q q w 9 q q q q ",
"q q q q q w w q q q q q q s $ & [ Q.XX:X6XoX3.o.< - . .   I o.$.<.<.<.<.$.O.I .     o y 4 q q q w c 9 c q q c w q q q q ",
"q w w q 9 9 q 8 9 v v w q s $ X [ Q.XX:X6X>X X@._ , o * - , ( $.<.<.<.$.$.O.j - C Z ~ g s x 6 9 9 9 0 e v 9 9 9 q q q q ",
"q q q q q q q q w q q q b l $ X [ Q.XX:X6X,XOX'.*.( , , , j o.$.<.<.$.$.$.%.o., ) &.C.} g p l 9 8 w r >.9 n :.0 q q q q ",
"q q q q q w q w q 9 8 9 c s : X [ Q.XX:X6X6X5X,X'.@.j j j X.%.,.<.<.$.$.$.%.o.o.*.[.*XY.~ # a 9 c 3 (.(.;.c 9 n q q q q ",
"q q q q 9 w 9 q q q q q q s # . [ Q.OX:X6X7X7X7X|.!.-.-.@.-.4.7.7.7.7.7.7.7.$.-.~.>X1XR.U O t 9 8 (.5._.9 0 r w q q q q ",
"q q q q q 9 w w q w q q q a $ . [ Q.OX:X6X7X7X7X,X{.'.[.].{..X.X.X.X.X.X.X{.|.'.OX<X1XR.~ + t 9 r _.(.7 q v w 8 q q q q ",
"q q q q w w 9 >.v q q q v s # . [ Q.OX,X6X7X7X7X5X5X2X2X2X2X3X5X3X3X3X3X3X2X2X2X3X6X1XR.U O t 9 n 3 x e 8 8 c 0 q q q q ",
"q q q q 9 9 w b b v q q q s $ . ^ &.~.}.-X4X1X8X5X7X7X7X7X7X7X7X7X7X7X7X7X7X7X7X7X7X1XR.U O t 9 e 8 q v 0 n c 9 q q q q ",
"q 9 q w q q 8 8 v w w q q s # . Z ^  .T.@X$X&X>X<X5X7X7X7X7X7X7X7X7X7X7X7X7X7X7X7X7X1XR.R O p 9 q q q q q q q q q q q q ",
"q q q q q q 9 q 9 8 q q q s #   . = G d.P.@X).XX>X3X7X7X7X7X7X7X7X7X7X7X7X7X7X7X7X7X1XR.Q O p x q q q q q q q q q q q q ",
"q q q q q q q q 9 9 9 5 l u %   B D E a.A.I.@X).&X=X3X5X7X7X7X7X7X7X7X7X7X7X7X7X1X-X).&.Q y d 9 q q q q q q q q q q q q ",
"q q q q q q q q q q 6 a y % +   F W a.D.P.U.I.I.#X*X>X2X6X7X7X7X7X7X7X7X7X7X7X7X&XE. .` g a 6 3 q q q q q q q q q q q q ",
"q q q q q q q q q q z u * .   X E s.K.K.L.P.L.U.@X_.XX>X5X7X7X7X7X7X7X7X7X7X7X7X_.{ = f z q q q q q q q q q q q q q q q ",
"q q q q q q q q 5 l p Q A A S H w.n.J.G.J.H.J.H.F.`._.*X,X5X6X7X7X7X7X7X7X7X7X7X_.{ * y z q 3 0 q q q q q q q q q q q q ",
"q q q q q q q 9 l u > Y t.0.0.0.c.b.N.N.B.B.B.N.m.Z.Z.#X*X:X3X7X7X7X7X7X7X7X7X7X(.{ = y x n q e q q q q q q q q q q q q ",
"q q w q w q q 6 p @ N T h.l.l.l.z.z.z.z.z.x.x.x.z.z.m.^.[.oX,X7X7X7X7X7X7X7X7X7X(.{ o u 4 q n q q q q q q q q q q q q q ",
"q q q q q q q 9 t O B H 0.y.y.y.y.y.y.y.i.g.m.m.Z.+X+X#X*X>X2X7X7X7X7X7X7X7X7X7X}.C.^ g d s 4 q q q q q q q q q q q q q ",
"q q q q q q q 9 t O X N H H H H K H H H H ] C.`.#X#X;X-X,X2X6X7X7X7X7X7X7X7X7X7X-X~.&.` f u 1 q q q q q q q q q q q q q ",
"q q q q q q q 6 t @ .       .             ~ Y.|.>X2X6X7X7X7X7X7X7X7X7X7X7X7X7X7X<XoX[.&.I @ t 9 q q q q q q q q q q q q ",
"q q q q q q q 9 t *           .         & ~ 2..X>X1X7X7X7X7X7X7X7X7X7X7X7X7X7X7X<XoX].&.Z O t 3 q q q q q q q q q q q q "
};
