/* XPM */
static char *result[] = {
/* columns rows colors chars-per-pixel */
"60 60 216 2 ",
"   c #1F1833",
".  c #221C33",
"X  c #221C3B",
"o  c #241F2F",
"O  c #2F292F",
"+  c #262626",
"@  c #322E2E",
"#  c #2A312A",
"$  c #343421",
"%  c #3D3A2B",
"&  c #39352C",
"*  c #272131",
"=  c #292330",
"-  c #28263B",
";  c #392939",
":  c #34363A",
">  c #34351F",
",  c #413E2A",
"<  c #44363A",
"1  c #5D3B3B",
"2  c #452C37",
"3  c #4B4C1F",
"4  c #47491F",
"5  c #4F511F",
"6  c #5B5D1D",
"7  c #55571C",
"8  c #64661F",
"9  c #66691E",
"0  c #6A6D1E",
"q  c #696C14",
"w  c #6E711A",
"e  c #6D7116",
"r  c #72751C",
"t  c #75781F",
"y  c #737713",
"u  c #444223",
"i  c #4C4B26",
"p  c #464329",
"a  c #484629",
"s  c #535325",
"d  c #5C5C22",
"f  c #55552A",
"g  c #4A4835",
"h  c #535330",
"j  c #6D413B",
"k  c #5F6022",
"l  c #636421",
"z  c #686A23",
"x  c #777A21",
"c  c #797C23",
"v  c #737522",
"b  c #6E6D2F",
"n  c #272146",
"m  c #292646",
"M  c #342E47",
"N  c #2B3546",
"B  c #3D374C",
"V  c #3C3645",
"C  c #2D2653",
"Z  c #2E375B",
"A  c #303057",
"S  c #353066",
"D  c #303E61",
"F  c #38336F",
"G  c #373469",
"H  c #3D397A",
"J  c #3B3673",
"K  c #342E65",
"L  c #493F4F",
"P  c #423D47",
"I  c #553E42",
"U  c #433D53",
"Y  c #413D68",
"T  c #413D77",
"R  c #394D4E",
"E  c #34496D",
"W  c #344566",
"Q  c #3C566A",
"!  c #3D477E",
"~  c #3C665D",
"^  c #454646",
"/  c #594448",
"(  c #575448",
")  c #574B56",
"_  c #5A5756",
"`  c #464953",
"'  c #7A4D43",
"]  c #765348",
"[  c #615559",
"{  c #655147",
"}  c #67645C",
"|  c #50556A",
" . c #645B68",
".. c #47736A",
"X. c #487271",
"o. c #6A6368",
"O. c #706A77",
"+. c #786F70",
"@. c #7C757E",
"#. c #726A6E",
"$. c #834D3E",
"%. c #895B4B",
"&. c #8E654E",
"*. c #846259",
"=. c #976753",
"-. c #97664B",
";. c #AC7A55",
":. c #AC7A5D",
">. c #B17C55",
",. c #897A78",
"<. c #847B7D",
"1. c #92746F",
"2. c #AA7E6F",
"3. c #A27363",
"4. c #7D8027",
"5. c #81842B",
"6. c #B58057",
"7. c #B4825C",
"8. c #BB8B65",
"9. c #A78677",
"0. c #A6846F",
"q. c #423D85",
"w. c #3D5B85",
"e. c #44428A",
"r. c #4B479A",
"t. c #484694",
"y. c #495E9F",
"u. c #436B96",
"i. c #436693",
"p. c #456E8F",
"a. c #776D84",
"s. c #4E4BA3",
"d. c #524FAC",
"f. c #5652B5",
"g. c #5956BD",
"h. c #595DBF",
"j. c #5359B1",
"k. c #4E56A7",
"l. c #4878A6",
"z. c #4A7CAB",
"x. c #516BB4",
"c. c #6865B3",
"v. c #5864C0",
"b. c #586AC2",
"n. c #5777C5",
"m. c #577BC5",
"M. c #5873C4",
"N. c #847E88",
"B. c #8F7E81",
"V. c #867A99",
"C. c #4C8585",
"Z. c #549693",
"A. c #5089BC",
"S. c #6C98A4",
"D. c #6AC2BE",
"F. c #5781C7",
"G. c #568CC9",
"H. c #5588C6",
"J. c #5693CB",
"K. c #5698CC",
"L. c #5B99CA",
"P. c #6A97C6",
"I. c #7AABD2",
"U. c #75A2C4",
"Y. c #6DCCC4",
"T. c #72D5CD",
"R. c #6FD0C9",
"E. c #928B93",
"W. c #968B8B",
"Q. c #A9928A",
"!. c #ACA198",
"~. c #8D8BB4",
"^. c #A49EAB",
"/. c #87A7BE",
"(. c #ABA5A7",
"). c #B4A9A8",
"_. c #A8B4B9",
"`. c #BBB9B5",
"'. c #B7B0B0",
"]. c #C09F91",
"[. c #C9A998",
"{. c #D7B89E",
"}. c #D6B79D",
"|. c #C9A88E",
" X c #C9B6A2",
".X c #C7B8AC",
"XX c #D3B9AC",
"oX c #C2BDBB",
"OX c #D5BFB3",
"+X c #C9C3BB",
"@X c #D6C5B7",
"#X c #E0D0BD",
"$X c #ABB4C8",
"%X c #8FA0C9",
"&X c #B5CDDE",
"*X c #A1D0CB",
"=X c #A7E2DA",
"-X c #9DDED6",
";X c #C8C5C3",
":X c #D3CCC9",
">X c #DCD5CD",
",X c #D5D7D6",
"<X c #E4D7C8",
"1X c #E4DED8",
"2X c #E6DDD4",
"3X c #E2CFC4",
"4X c #EFE4D6",
"5X c #ECE4DC",
"6X c #F3EADE",
"7X c #F1E5D7",
"8X c #F5EDE3",
"9X c #E8F2E8",
"0X c #FDF7ED",
"qX c #F5F0E7",
"wX c #EEEAE4",
"eX c #DED8E2",
/* pixels */
"r r r r r r r r e r r r r r y y e e w e t r r t r r r r r r r r r r r r r r r r r r r r r r r t t r e r r r r r r r r r ",
"r r r r r r r r r r r r r r y y e 4.r r w t r w r r r r r r r r r r r r r r r r r r r r r r w e r r r r r r r r r r r r ",
"r r r r r r r r r r r r r c c 4.w r 4.4.t t w t r r r r r r r r r r r r r r r r r r r r t r r r r r r r r r r r r r r r ",
"r r r r r r r r r r r r r c &.4.e r r 4.4.t w r r r r r r r r r r r r r r r r r w r t r w w t t r r r r r r r r r r r r ",
"r r r r r r r r r r v r w 0 z z z z v q q r x w r r r r r r r r r r r r r r r r r t r r r t r e r r t r r r r r r r r r ",
"r r r r r r r r r r r r 0 6 i , a i f 6 w r c r r r r r r r r r r r r r r r r r r r e r c 4.c r r t t r r r r r r r r r ",
"r r r r r r r r r r r r 9 i @ o - o & d v w r r r r r r r r r r r r r r r r r r r r r r t 4.4.t r x c t r r r r r r r r ",
"r r r r r r r r r r r r 8 p = X m C B g d l z v r r r r r r r r r r r r r r r r e t t w e w r t r x c t r r r r r r r r ",
"r r r r r r r r r r r r l a = n K q.T A % s l r r r r r r w r r t t w r r r r r t r r r e r v c r q q e r r r r r r r r ",
"r r r r r r r r r r r r 8 p = C q.f.t.K   % f r w r r r v w r r w w t w r r r r r r r r r e 0 q r r e r r r r r r r r r ",
"r r r r r r r r r r r r l a = C q.f.s.q.F B g i s s 5 5 5 f i i d 8 r r r r r r r r r r r r r e r r r r r w r r r r r r ",
"r r r r r r r r r r r r l p = C q.f.f.d.r.| B @ @ @ @ @ @ @ @ @ p 6 r r r r r r t r r r r r t r r r t r r r r r r r r r ",
"r r r r r r r r r r r r 9 i @ M T s.d.f.g.t.K n n n n n n n n m : f 8 8 8 z 0 w r r r r r r r r r r r r r r r r r r r r ",
"r r r r r r r r r r r r 0 d i g U J q.s.g.s.q.H H H H H H ! w.w.Q ^ a a a a d 9 w r r t r r r r r r r r r r r r r r r r ",
"r r r r r r r r r r r r r w z f < n F t.g.f.f.d.d.d.d.d.d.j.x.A.p.W = = = O a l v r r r r r t t r r r r r r r r r r r r ",
"r r r r r r r r r r r r w 9 l h ^ C J r.g.g.g.g.h.v.v.b.v.M.F.G.A.w.Z Z Z Z ^ h k 9 0 r r r r r r r r r r r r r r r r r ",
"r r r r r r r r r r r r 0 s p < U q.r.d.g.g.g.g.v.m.F.F.F.F.J.K.H.l.u.u.i.i.Q P u s 0 r t w t w r r r r r r r r r r r r ",
"r r r r r r r r r r r r l a = C q.f.g.g.g.g.g.h.M.H.K.K.K.K.K.K.K.K.K.K.K.A.i.A * p 8 r w t w t r r r r r r r r r r r r ",
"r r r r r r r r r r r r 0 d , P Y q.r.d.g.v.b.M.F.G.K.K.K.K.K.K.G.G.m.m.H.m.i.! S ^ h s l w r r r r r r r r r r r r r r ",
"r r r r r r r r r r r r r l l h : C J r.g.v.m.H.G.K.K.K.K.K.K.K.G.m.b.b.v.v.j.d.e.Y : % s w r w r r r r r r r r r r r r ",
"r r r r r r r r r r r r w 0 0 d g m F r.g.b.F.J.J.K.K.K.K.K.K.K.H.M.h.h.h.h.h.h.j.e.C : g 8 0 w r r r r e e r r r r r r ",
"r r r r r r r r r r r r 0 d i < U J q.s.g.h.b.m.F.J.K.K.K.K.K.K.J.F.n.n.m.n.n.m.x.u.i.Q ` a s 8 r r r r 4.r r r r r r r ",
"r r r r r r r r r r r r 8 i @ C T s.f.f.g.g.h.v.n.G.K.K.K.K.K.K.K.J.G.J.G.J.G.G.J.H.A.l.Q m % f w r r r r r r r r r r r ",
"r r r r r r r r r r 9 l s , * C J t.r.r.r.r.r.s.k.l.l.l.l.l.l.l.l.l.l.l.l.l.l.l.z.z.l.i.E X O u k k k r r r r r r r r r ",
"r r r r r r r r r w d p & O . X C K K K K K K K G E E E E E E E E E E E E E E E E E E D A   * @ & , % r r r r r r r r r ",
"r r r r r r r r r 0 i O . . . .       X             . . .                   . X                       r r r r r r r r r ",
"r r r r r r r r r 0 d a @ O . - L )  . .O. .L I )  .O.O.O. .[ I g I 1 / I / _  .O.O.O. .` X * @ % & % r r r r r r r r r ",
"r r r r r r r r r w 9 k s & o P #.B.!..X;XB.*.$.1.(.oXoXoX).Q.=.&.&.&.&.&.=.9.).oXoXoX^.o.m # , d k k r r r r r r r r r ",
"r r r r r r r r r r r r l p = L B.[.3X4XqXXX2.%.Q.OX1X1X1X@X|.8.6.6.6.6.6.7.|.@X5X1X1X`.a.V , d w r r r r r r r r r r r ",
"r r r r r r r r r r r r 8 p = L 1.XX3X4X0XXX2.%.*.B.E.E.E.W.9.>.6.6.6.6.6.6.0.W.E.E.E.N.} h 5 k r r r r r r r r r r r r ",
"r r r r r r r r r r r r l a = L ,. X#X4X0XXX3.$.{ I B B U / *.;.6.6.6.6.6.6.*./ B B B P h k 0 0 r r r r r r r r r r r r ",
"r r r r r r r r r r r r 8 a = L ,. X#X4XqXXX2.%.1 ;       ; ] ;.6.6.6.6.6.;.] 2       O i 0 r r r r r r r r r r r r r e ",
"r r r r r r r r r r t r 8 p = ^ ,. X#X4X0XXX2.$.1 ;       ; ] ;.>.>.7.7.6.>.] <     . O i 0 r r w 4.e r r r r r r t r r ",
"r r r r r r r r r r r r 8 p = L ,. X#X4X0XXX2.$.1 ;       2 ] ;.>.>.6.>.>.>.] 2     . O i z r r w e w e 4 3 3 3 7 5 r r ",
"r r r r r r r r r t r w l p = L ,. X#X4X0X3X[.9.*.I 2 2 2 1 %.;.6.6.6.6.>.>.%.1 < ) o. .{ d d 9 w 4.e 4 + ....~ ..+ 4 r ",
"r r r r r r r r r r r r l p = L ,. X#X4X0X4X<XOXQ.%.j j j ' -.>.6.6.6.6.>.>.-.%.] 1.).^.+.< , d w 0 4 + ..Y.T.Y.*XS.> k ",
"r r r r r r r r r r r t z a * L ,. X#X4X0X0X0X8XXX2.=.=.-.=.:.8.8.8.8.8.8.8.:.=.3.[.4X:XE.M & s 9 4 + X.R.T.T.-X9X.Xh 4.",
"r r r r r r r r r r r r l a = L ,. X#X4X0X0X0XqX3X[.].].].].[.}.{.{.{.{.{.{.}.|.[.@X6X:Xa.M @ i 4 + X.R.T.T.-X9XqX!.> 9 ",
"r r r r r r r r r r r r 8 p = L ,. X3X4X0X0X0X0X8X4X2X2X2X2X4X4X6X7X7X7X7X7X4X2X5X8X0X:XW.M @ $ + X.T.T.T.-X9X0X0X+Xb w ",
"r r r r r r r r r r r r 9 i & / +.Q.).;XeXeX1X8XqX0X0X0X0X0X0X0X0X0X0X0X0X0X0X0X0X0X0X:Xa.N = = C.R.T.T.=X9X0X0X+X} # 9 ",
"r r r r r r r r r r r w w l f h {  .a.~.%X$X:X<X7XqX0X0X0X0X0X0X0X0X0X0X0X0X0X0X0X0X0X:XE.M * Q Y.T.T.=X9X0X0X+X} # 7 r ",
"r t t r r r r e r t x t r r v k , - S t.g.V.).@X<X6X0X0X0X0X0X0X0X0X0X0X0X0X0X0X0X0X0X:Xa.M N Z.T.T.=X9X0X0X+X} # 7 r r ",
"r r r r r r r r r r r r x c v 6 p . K w.b.c.%X$X+X2X7X6X0X0X0X0X0X0X0X0X0X0X0X0XqX,X`.E. .W X.S.T.=X9X0X0X+X} > 7 r r r ",
"r r r r r r r r r r e e r x x 6 , X Z i.P.P.%X/.$X+X<X7XqX0X0X0X0X0X0X0X0X0X0X0X5X).@.) ..Z.D.D.=X9X0X0X+X_ # s r r r r ",
"r r r r r r r r r r r r w e r l , o W u.K.K.K.L./.`.+X>X6XqX0X0X0X0X0X0X0X0X0X0X1XE.` m p.D.T.=X9X0X0X+X( > 7 r r r r r ",
"r r r r r r r c r r r r r w r d ,   Z u.K.K.K.K.U./._.+X<X4X6X0X0X0X0X0X0X0X0X0X,XE.U N C.D.=X9X0X0X`._ > 7 4.q r r r r ",
"r r r r r r c 4.c r r r r t r d , o W u.K.K.K.K.L.U.U._.+X#X5X0X0X0X0X0X0X0X0X0X2XE.U - X.*XqX0X0X`._ > 7 e v 4.r r r r ",
"r r r r r r c c c c r r r r r k , o W p.K.K.K.K.K.K.L./._.+X,X0X0X0X0X0X0X0X0X0X2XE.U . R oX0X0X'.( > k e c w r r r r r ",
"r r r r r r e e x x t r r r r k % * Z u.K.K.K.K.K.K.L.U./.$X,XqX0X0X0X0X0X0X0X0X2XE.U - = o.>X'.( > 6 r r r r r r r r r ",
"r r r r r r r r e r w r r r r d , . W u.K.K.K.K.K.K.L.L.K.I.&X9X0X0X0X0X0X0X0X0X,XW.U m R # _ R > 6 r r r r r r r r r r ",
"r r r r r r r r e e r r w 8 d h ^ W w.l.K.K.K.K.K.K.K.K.K.I.&XqX0X0X0X0X0X0X0XqX:XW.U * ~ ~ # # 7 r r r r r r r r r r r ",
"r r r r r r r r t t r r z s , V Q u.A.A.K.K.K.K.K.K.K.K.K.I.&X9X0X0X0X0X0X0X5X2X.X<.B   N C...# 4 9 r r r r r r r r r r ",
"r r r r r r r r r r w 0 k , - Z i.H.J.J.J.J.J.J.L.G.L.L.G.%X&XwX0X0X0X0X0XqX<X@X!.+.V o + R Z.R + 4 w r r r r r r r r r ",
"r r r r r r r r r w k s g ` G e.i.n.m.m.m.m.m.m.m.m.n.n.n.P.$X>X4X8X0X0X0XqX+XQ.+.) : 4 4 > R R # 7 r r r r r r r r r r ",
"r r r r r r r r r z s & M Y s.d.f.v.h.v.v.v.h.h.h.v.h.h.v.M.^.:X<X7X0X0X0X8X(.O.M ^ a.q z 7 6 7 7 e r r r r r r r r r r ",
"r r r r r r r r r 0 i O n G q.s.s.s.s.s.s.s.r.k.s.s.s.s.s.c.V.Q..X<XqX8X,XoXE.` # ( E.e q 4.b y r r r r r r r r r r r r ",
"r r r r r r r r r 0 i @ X C K F F F F F F F F J J J J F F J | o.W.oX0X:X^.@.} g i 7 q q r r r r r r r r r r r 4.e r r r ",
"r r r r r r r r r 0 i O   . X X X X X   X X   X   X X   X X X X  .).0X'.O.- g d v w w r r r r r r r r r r r r r e r r r ",
"r r r r r r r r r 0 i O                                         | (.0X(. .X , d r r r r r r r r r r r r r r r r r r r r ",
"r r r r r r r r r 9 i O       .                                  .(.0X'. .. , d r r r r r r r r r r r r r r r r r r r r "
};
