/* XPM */
static char *result[] = {
/* columns rows colors chars-per-pixel */
"60 60 211 2 ",
"   c #1F1833",
".  c #221B36",
"X  c #241C38",
"o  c #2F2A2E",
"O  c #2A242F",
"+  c #322D2E",
"@  c #35312D",
"#  c #3B372B",
"$  c #3C392C",
"%  c #262032",
"&  c #2A2531",
"*  c #2B2638",
"=  c #392636",
"-  c #352835",
";  c #38363A",
":  c #403D2A",
">  c #432B37",
",  c #44313C",
"<  c #5C3A3B",
"1  c #693F3B",
"2  c #613B3A",
"3  c #72780C",
"4  c #64651E",
"5  c #67691E",
"6  c #6A6C1E",
"7  c #696D14",
"8  c #6E711B",
"9  c #6D7115",
"0  c #727615",
"q  c #72751C",
"w  c #75791E",
"e  c #777C17",
"r  c #6B6816",
"t  c #4D4B26",
"y  c #454229",
"u  c #484728",
"i  c #504F25",
"p  c #545325",
"a  c #5B5B23",
"s  c #57572B",
"d  c #474637",
"f  c #55513B",
"g  c #4E5036",
"h  c #605F2B",
"j  c #5F6022",
"k  c #646521",
"l  c #6A6B25",
"z  c #6F7022",
"x  c #737423",
"c  c #777A21",
"v  c #797C24",
"b  c #737429",
"n  c #74722D",
"m  c #4B4B1F",
"M  c #261F42",
"N  c #252243",
"B  c #282249",
"V  c #272A49",
"C  c #372E44",
"Z  c #2D2753",
"A  c #312B5C",
"S  c #3B3658",
"D  c #31354E",
"F  c #342E65",
"G  c #353169",
"H  c #383768",
"J  c #3D387B",
"K  c #3B3773",
"L  c #433949",
"P  c #453F53",
"I  c #403C5D",
"U  c #533942",
"Y  c #413D69",
"T  c #3D474F",
"R  c #34486C",
"E  c #344567",
"W  c #384975",
"Q  c #395378",
"!  c #3E536B",
"~  c #454346",
"^  c #5A4546",
"/  c #5A5445",
"(  c #4A4254",
")  c #474150",
"_  c #544A57",
"`  c #5B505B",
"'  c #40525E",
"]  c #775A58",
"[  c #71524A",
"{  c #4B516E",
"}  c #685C63",
"|  c #605969",
" . c #756D69",
".. c #7A706D",
"X. c #864E3E",
"o. c #8B513F",
"O. c #8E5544",
"+. c #845746",
"@. c #905944",
"#. c #9B6348",
"$. c #94684E",
"%. c #976C56",
"&. c #A97453",
"*. c #B47F57",
"=. c #A26D51",
"-. c #8A716C",
";. c #A57967",
":. c #7B8019",
">. c #7D8027",
",. c #B58057",
"<. c #B68159",
"1. c #AB8272",
"2. c #A8877C",
"3. c #B38B7B",
"4. c #B68B71",
"5. c #8D8C49",
"6. c #C09574",
"7. c #3F3B80",
"8. c #413C83",
"9. c #433F8A",
"0. c #3D5C83",
"q. c #3C4E80",
"w. c #3F628C",
"e. c #454189",
"r. c #494596",
"t. c #4A4699",
"y. c #4C489E",
"u. c #474392",
"i. c #48539A",
"p. c #5B559B",
"a. c #466B98",
"s. c #4E4AA2",
"d. c #514EAB",
"f. c #5350AF",
"g. c #5552B3",
"h. c #5956BD",
"j. c #595BBE",
"k. c #5755B9",
"l. c #4775A2",
"z. c #4B7AAC",
"x. c #5960BF",
"c. c #5268B5",
"v. c #4C6EA9",
"b. c #696ABD",
"n. c #5864C0",
"m. c #586BC2",
"M. c #5874C4",
"N. c #577BC5",
"B. c #5777C5",
"V. c #877B85",
"C. c #4E85B5",
"Z. c #508BBD",
"A. c #6D8098",
"S. c #5782C7",
"D. c #578CC9",
"F. c #548CC3",
"G. c #5694CB",
"H. c #5698CC",
"J. c #5996C8",
"K. c #689CC9",
"L. c #6A81C4",
"P. c #77A4C6",
"I. c #6FA0C5",
"U. c #988986",
"Y. c #948D93",
"T. c #969097",
"R. c #989299",
"E. c #999395",
"W. c #8F898C",
"Q. c #AB9A8F",
"!. c #B89384",
"~. c #A19593",
"^. c #BCAA9A",
"/. c #9389AC",
"(. c #8EA9BC",
"). c #B3ACAE",
"_. c #BAADA6",
"`. c #B0ADB2",
"'. c #C29D88",
"]. c #C9A386",
"[. c #C8A898",
"{. c #C9B3A5",
"}. c #C8BAB5",
"|. c #D4BDB1",
" X c #D1B8A5",
".X c #D5C1AC",
"XX c #D9C6B3",
"oX c #DECBBD",
"OX c #DAC6B5",
"+X c #C6C2B9",
"@X c #E4CEB9",
"#X c #E1CAB7",
"$X c #E0D1BF",
"%X c #91ADC6",
"&X c #A5B9CB",
"*X c #BBC7CE",
"=X c #DEDAD4",
"-X c #D4D1CE",
";X c #E1CEC2",
":X c #E9DCCD",
">X c #E4D5C6",
",X c #E5DFD9",
"<X c #E3DCD4",
"1X c #EDE2D4",
"2X c #ECE5DD",
"3X c #E1E0DD",
"4X c #F3E9DD",
"5X c #F5EEE3",
"6X c #F9F1E6",
"7X c #FDF7ED",
"8X c #EAECE8",
/* pixels */
"q q q q q q q q 9 q w q q q q w w 8 q q c 8 q q q q q q q q q q q q q q q q q q q 0 q q 0 8 x w q 0 8 q q q q q q q q q ",
"q q q q q q q q q q q q q q q 8 q q q q q q q q q q q q q q q q q q q q q q q q q q q w w q q 8 x q q q q q q q q q q q ",
"q q q q q q q q q q 8 q q c x z l l 6 v v c q q q q q q q q q q q q q q q q q q q q q q q q q q q q q q q q q q q q q q ",
"q q q q q q q q q q q q q l h g u u i l x w 8 q q q q q q q q q q q q q q q q q 8 c q q 8 q q w 0 q q q q q q q q q q q ",
"q q q q q q q q q w q q 9 a y o o o @ t r q c 8 q q q q q q q q q q q q q q q q q q q q q q q 8 q q w q q q q q q q q q ",
"q q q q q q q q q q q q q a #   X B C d a 5 x q q q q q q q q q q q q q q q q q q q 8 q >.>.c 8 q c c q q q q q q q q q ",
"q q q q q q q q q q q q q a # . Z G K P d t k q q q q q q q q q q q q q q q q q q q 0 q c >.>.c q c c c q q q q q q q q ",
"q q q q q q q q q q q q q a ;   F u.y.H * $ p q q q q q q q q q q q q q q q q q 0 x c 8 7 8 0 c q c c c q q q q q q q q ",
"q q q q q q q q q q q q q a # X G s.f.7.A C g a j a k k q q q q q q q q q q q q q w q 8 9 8 x v 8 7 7 9 q q 0 q q q q q ",
"q q q q q q q q q q q q q a #   G s.g.s.9.{ L : : : u p 6 q q q q q q q q q q q q q w w q 8 9 7 w 8 8 q x q q q q q q q ",
"q q q q q q q q q q q q q a # . G s.h.k.k.u.F . . . o u 5 q q q q q q q q q q q q q q w q q 8 8 q q q q q q q q q q q q ",
"q q q q q q q q q q q q q k t ; H Y t.d.h.s.J A A A S d s a a p j l q q q q q q w q 8 8 q w w q q q w q q 0 q q q q q q ",
"q q q q q q q q q q q q q 6 j p ~ S G u.g.f.s.u.u.u.e.S ; @ $ # t j c q q q q q q q q q q x q q q q q 0 q q x q q q q q ",
"q q q q q q q q q q q q q q q 8 i + B Y g.h.h.h.k.h.d.J B   . . $ j q q q q q q 8 q q w q q q q q q q q q x q 8 q q q q ",
"q q q q q q q q q q q q q q q q i o B 7.d.h.h.h.h.h.f.u.K G H R T g p p i a k w x q q q q q c e q q q q q 0 q 0 q q q q ",
"q q q q q q q q q q q q q q q 8 i o B 7.g.h.h.h.h.h.k.d.y.i.a.l.{ T + @ @ : p 8 w q 8 q q q q 8 q q q q q q q x q q q q ",
"q q q q q q q q q q q q q q 8 l t - V 8.f.h.h.h.h.j.h.j.j.m.N.H.w.R V X N ; i 6 8 q q q q q q q q q q q q q q q q q q q ",
"q q q q q q q q q q q q q k a t L Y Y t.g.h.h.h.x.m.M.M.M.N.D.H.z.w.Q Q Q ! } u a k q q q q q q q q q q q q q q q q q q ",
"q q q q q q q q q q q q q j y o Y 9.d.g.h.h.h.h.m.N.D.D.D.D.G.H.Z.C.C.z.z.a.' + u k q q q q q q q q q q q q q q q q q q ",
"q q q q q q q q q q q q w a y * F 9.d.g.h.j.j.n.M.D.H.H.H.H.H.H.G.G.F.D.G.l.Q Z ; i l 6 8 q q q q q q q q q q q q q q q ",
"q q q q q q q q q q q q q k a u L Y 7.y.g.x.m.B.S.D.H.H.H.H.H.H.D.S.B.B.B.c.i.J I ~ t a 6 q q q q q q q q q q q q q q q ",
"q q q q q q q q q q q q q 8 6 k u ; A 8.f.n.N.D.G.H.H.H.H.H.H.H.S.m.x.x.x.j.f.d.Y D o t 5 q q q q q q q q q q q q q q q ",
"q q q q q q q q q q q q q z k j g C F 9.g.n.B.D.G.G.H.H.H.H.H.H.D.M.x.x.x.x.n.n.d.W D d s k 6 8 q q q q q q q q q q q q ",
"q q q q q q q q q q q q q k p y L Y 9.s.k.j.n.M.S.D.H.H.H.H.H.H.F.S.S.N.N.S.N.N.c.a.0.! d t j 8 q q q q q q q q q q q q ",
"q q q q q q q q q q q q q a : % F t.g.g.h.h.h.j.M.D.H.H.H.H.H.H.G.G.G.G.G.D.H.H.G.G.C.0.D @ t 8 q q q q q q q q q q q q ",
"q q q q q q q q q q 8 4 a t +   A 8.t.t.r.r.t.r.i.v.l.l.l.l.l.l.l.l.l.l.l.l.l.l.l.z.w.R V & : a j q q q q q q q q q q q ",
"q q q q q q q q q q 6 p y @ O . B A F F G F F G G R R W R R R R R R E E R W R W R R E D X % @ $ $ q q q q q q q q q q q ",
"q q q q q q q q q q 4 y % .     . . . . . . . X           X       X X .                         . q q q q q q q q q q q ",
"q q q q q q q q q q 5 p : + O . C ( ` ` ` _ U > > > > , ; , > > > > > > > > > > ; > = = % % o $ $ q q q q q q q q q q q ",
"q q q q q q q q q q 8 4 a u + X ( -.U.U.U.-.] 1 1 1 1 1 1 1 1 1 1 1 1 1 1 1 1 1 1 1 2 > % & $ p a q q q q q q q q q q q ",
"q q q q q q q q q q q q q a $ X } Q. X.X|.].;.X.O.O.@.O.O.O.O.O.o.o.o.O.O.O.O.@.O.+.+.< * + t 8 8 q q q q q q q q q q q ",
"q q q q q q q q q q q q q a $ X } Q..X@X;X{.;.O.;.;.!.!.!.2.&.#.#.#.#.#.#.=.;.!.!.!.!.] C o t 8 q q q q q q q q q q q q ",
"q q q q q q q q q q w q q a # X } Q.XX>X1X.X1.O.;.{.;X;X;X X6.&.&.&.&.&.&.4.].oX$X;X|.V.S + t 8 q q q q q q q q q q q q ",
"q q q q q q q q q q q 8 q a $ % } Q.XX:X6X;X3.O.2.|.,X,X,XoX].<.<.<.<.<.,.4. X1X1X3X-XW.~ @ p 8 q q q q q q q q q q q q ",
"q q q q q q q q q w q q q a $ X } Q.XX:X6XoX3.X.%.V.T.T.T.U.4.,.,.,.<.<.<.4.2.R.T.T.W. .f i a q q q q q q q q q q q q q ",
"q q q q q q q q q q q q w a # X } Q.XX:X6XoX!.X.[ _ ( P P ` $.*.,.,.,.,.<.%.] ( ( ( ( f a 4 6 q q q q q q q q q q q q q ",
"q q q q q q q q w 8 w 8 q a # X } Q.OX:X6XoX3.o.2 =       > [ *.,.,.,.,.,.$.2 X     % y k q q q q q q q q q q q q q q q ",
"q q q q q q q q q q q w q a # X } Q.XX:X6X;X3.X.2 =       L ] *.,.,.,.,.<.$.2 .     % y k w q q q q q q q q q q q q q q ",
"q q q q q q q q q q 8 w 8 a # % } Q.OX:X6X;X3.X.2 C       > [ *.,.,.,.,.,.%.f .     & y k q q q q q q q q q q q q q q q ",
"q q q q q q q q q q w x 8 a $ % } Q.OX:X5X>X[.;.+.U = = = < O.*.,.,.,.,.,.#.[ = L ( _ / s 4 l q q q q q q q 8 8 q q q q ",
"q q w q q q w q 8 w q q q a $ % } Q.XX:X6X2XoX{.;.] 2 1 1 h $.<.,.,.<.<.,.=.+.2 ] V.R. ./ u a 8 8 x 8 6 8 8 x :.q q q q ",
"q q w q q 8 q 8 8 w c w q a $ % } Q.XX:X6X7X6X4X{.;.O.O.O.o.=.<.,.<.<.<.,.&.#.X.1.|.=XY.P + p 8 x 6 :.:.>.8 8 8 q q q q ",
"q q q q q q q q w w 8 q v k $ X } Q.XX:X6X7X7X7X;XQ.;.;.;.3.3.].].6.].].].6.3.3.[.>X2XR.) o t 8 7 :.:.$.8 l :.0 q q q q ",
"q q q q q q q q q 8 9 8 x s $ X } Q.XX:X6X7X7X7X1X;X|.|.|.OX@X@X@X@X@X@X@X@XOX|.;X4X2XR.P o t 8 z 3 ^._.:.b 8 b q q q q ",
"q q q q q q q q q q q q 8 a # X } Q.oX>X7X7X7X7X7X7X7X7X7X7X7X7X7X7X7X7X7X7X7X7X7X7X2XR.P o t 8 8 _.5.`.9 0 3 w q q q q ",
"q q q q q q q c q w w q q j i $ / ..E.`.*X-X<X4X5X6X7X7X7X7X7X7X7X7X7X7X7X7X7X7X7X7X2XT.P o t z 3 `.).7 c z w 7 q q q q ",
"q q q q q w v >.c q 8 q q z 4 a f / { A.P.&X&X@X:X5X7X7X7X7X7X7X7X7X7X7X7X7X7X7X7X7X2XT.( o t 8 z 7 k e 0 7 x :.q q q q ",
"q q q q q 8 c >.v c q q q q q 8 p - V 0.F.P.`.}.;X2X6X7X7X7X7X7X7X7X7X7X7X7X7X7X6X8X=XY.) @ i 8 :.9 w x 0 n z q q q q q ",
"q q q q q q 9 8 v w w q q 8 q 8 p o V Q Z.K.(.(.*X;X1X4X6X7X7X7X7X7X7X7X7X7X7X7X3X_.E. ./ m a q q q q q q q q q q q q q ",
"8 q q w q q 8 q 9 8 q q q q q q p o V w.Z.H.I.P.(.+X$X1X6X7X7X7X7X7X7X7X7X7X7X7X`.V.` / p 7 l 8 q q q q q q q q q q q q ",
"q q q q q q q q 8 8 q q q q 6 k g ; H w.Z.H.H.H.P.`.-X3X6X7X7X7X7X7X7X7X7X7X7X7X`.| % y k w b q q q q q q q q q q q q q ",
"q q q q q q q q w q q q q 5 p u ~ ! w.l.J.H.H.H.K.(.%X-X8X7X7X7X7X7X7X7X7X7X7X7X`.| % y j x w 8 q q q q q q q q q q q q ",
"q q q q q q q q q q q 8 8 j y * E a.C.F.H.H.H.H.K.K.P.*X8X7X7X7X7X7X7X7X7X7X7X7X).| % y 4 e w w q q q q q q q q q q q q ",
"q q q q q q q q q q 8 6 k s C A Q z.D.D.F.F.D.G.D.D.K.&X3X5X6X7X7X7X7X7X7X7X7X7X).| % y k 8 9 0 q q q q q q q q q q q q ",
"q q q q q q q q q q 6 a u ~ Y Y i.c.M.M.M.M.M.M.M.M.b.&X-X:X5X7X7X7X7X7X7X7X7X7X).| * y k x w q q q q q q q q q q q q q ",
"q q q w q q q q q q 5 u o Z 8.g.k.j.j.j.j.j.j.j.j.n.b./.}.$X1X6X7X7X7X7X7X7X7X7X).| N y j e z 0 q q q q q q q q q q q q ",
"q q q q q q q q q q 4 y % Z K t.t.t.t.t.y.t.t.y.t.y.p.V.{.oX1X7X7X7X7X7X7X7X5X4X).` % y j w q q q q q q q q q q q q q q ",
"q q q q q q q q q q 4 y % M Z G G G G G G G F F F F e.V._.oX1X7X7X7X7X7X7X6X1X>X~._ % y k q q q q q q q q q q q q q q q ",
"q q q q q q q q q q 4 y %     . . . . . X     . X X C ..^.oX,X7X7X7X7X7X7X4X>X.X2._ % y k q 0 8 q q q q q q q q q q q q ",
"q q q q q q q q q q k y %     .                     C ..^.@X:X7X7X7X7X7X7X5X>XoXW._ % y k 8 q 9 q q q q q q q q q q q q "
};
